STARTFONT 2.1
COMMENT
COMMENT Converted from OpenType font "UbuntuMono-Italic.ttf" by "otf2bdf 3.0".
COMMENT
FONT -FreeType-Ubuntu Mono-Medium-I-Normal--77-560-100-100-P-360-ISO10646-1
SIZE 56 100 100
FONTBOUNDINGBOX 69 78 -17 -13
STARTPROPERTIES 19
FOUNDRY "FreeType"
FAMILY_NAME "Ubuntu Mono"
WEIGHT_NAME "Medium"
SLANT "I"
SETWIDTH_NAME "Normal"
ADD_STYLE_NAME ""
PIXEL_SIZE 77
POINT_SIZE 560
RESOLUTION_X 100
RESOLUTION_Y 100
SPACING "P"
AVERAGE_WIDTH 360
CHARSET_REGISTRY "ISO10646"
CHARSET_ENCODING "1"
FONT_ASCENT 64
FONT_DESCENT 13
COPYRIGHT "Copyright 2011 Canonical Ltd.  Licensed under the Ubuntu Font Licence 1.0"
_OTF_FONTFILE "UbuntuMono-Italic.ttf"
_OTF_PSNAME "UbuntuMono-Italic"
ENDPROPERTIES
CHARS 1224
STARTCHAR 0000
ENCODING 0
SWIDTH 488 0
DWIDTH 38 0
BBX 0 0 0 0
BITMAP
ENDCHAR
STARTCHAR 0008
ENCODING 8
SWIDTH 488 0
DWIDTH 38 0
BBX 0 0 0 0
BITMAP
ENDCHAR
STARTCHAR 0009
ENCODING 9
SWIDTH 488 0
DWIDTH 38 0
BBX 0 0 0 0
BITMAP
ENDCHAR
STARTCHAR 000D
ENCODING 13
SWIDTH 488 0
DWIDTH 38 0
BBX 0 0 0 0
BITMAP
ENDCHAR
STARTCHAR 001D
ENCODING 29
SWIDTH 488 0
DWIDTH 38 0
BBX 0 0 0 0
BITMAP
ENDCHAR
STARTCHAR 0020
ENCODING 32
SWIDTH 488 0
DWIDTH 38 0
BBX 0 0 0 0
BITMAP
ENDCHAR
STARTCHAR 0021
ENCODING 33
SWIDTH 488 0
DWIDTH 38 0
BBX 19 49 13 -1
BITMAP
000FE0
000FE0
000FE0
001FC0
001FC0
001FC0
001FC0
003F80
003F80
003F80
003F80
007F00
007F00
007F00
007F00
007E00
00FE00
00FE00
00FE00
00FC00
00FC00
01FC00
01F800
01F800
01F800
01F000
01F000
03F000
03E000
03E000
03E000
03C000
000000
000000
000000
000000
000000
000000
060000
1F8000
3FC000
7FC000
7FE000
FFE000
FFE000
7FC000
7FC000
7F8000
1E0000
ENDCHAR
STARTCHAR 0022
ENCODING 34
SWIDTH 488 0
DWIDTH 38 0
BBX 22 20 17 33
BITMAP
1F80FC
1F80FC
1F80FC
1F80FC
1F01F8
3F01F8
3F01F8
3F01F0
3E03F0
3E03F0
7E03F0
7C03E0
7C03E0
7C03E0
7803C0
7807C0
7807C0
F00780
F00780
E00700
ENDCHAR
STARTCHAR 0023
ENCODING 35
SWIDTH 488 0
DWIDTH 38 0
BBX 41 48 3 0
BITMAP
000007C01F80
00000FC01F00
00000FC03F00
00001F803F00
00001F807E00
00003F007E00
00003F00FC00
00003F00FC00
00007E00FC00
00007E01F800
0000FC01F800
0000FC03F000
0000F803F000
03FFFFFFFF80
03FFFFFFFF00
07FFFFFFFF00
07FFFFFFFF00
07FFFFFFFF00
0007E01F8000
000FC01F8000
000FC03F0000
001F803F0000
001F807E0000
001F807E0000
003F007E0000
003F00FC0000
007E00FC0000
007E01F80000
00FC01F80000
00FC03F00000
3FFFFFFFF000
7FFFFFFFF000
7FFFFFFFF000
7FFFFFFFF000
7FFFFFFFE000
07E00FC00000
07E01F800000
07C01F800000
0FC01F000000
0FC03F000000
1F803F000000
1F807E000000
3F007E000000
3F00FC000000
3E00FC000000
7E00F8000000
7E01F8000000
FC01F8000000
ENDCHAR
STARTCHAR 0024
ENCODING 36
SWIDTH 488 0
DWIDTH 38 0
BBX 35 62 6 -8
BITMAP
000001F000
000001F000
000003F000
000003F000
000003E000
000003E000
000007E000
000007E000
00003FFC00
0001FFFF80
0007FFFFE0
000FFFFFE0
001FFFFFE0
003FFC3FC0
007FC00380
007F000080
00FE000000
00FC000000
00FC000000
00FC000000
00FC000000
00FC000000
00FC000000
00FE000000
00FF000000
007F800000
007FE00000
003FF80000
001FFE0000
000FFF8000
0003FFC000
0000FFE000
00003FF000
00000FF800
000007F800
000003FC00
000001FC00
000000FC00
000000FC00
000000FC00
000000FC00
000000FC00
000001FC00
000001FC00
200003F800
380007F800
7F003FF000
7FFFFFE000
FFFFFFC000
FFFFFF8000
3FFFFE0000
0FFFF80000
003F800000
003F000000
003E000000
003E000000
007E000000
007E000000
007E000000
007C000000
00FC000000
00FC000000
ENDCHAR
STARTCHAR 0025
ENCODING 37
SWIDTH 488 0
DWIDTH 38 0
BBX 45 50 1 -1
BITMAP
0003F8000000
0007FC0000F8
001FFE0001F8
001FFF0003F0
003E3F0007E0
007C1F000FC0
007C1F000F80
00F81F001F00
00F80F003E00
00F01F007E00
01F01F00FC00
01F01F01F800
01F01F03F000
01F01F03E000
01F01F07C000
01F03E0FC000
01F03E1F8000
01F07C3F0000
01F07C7E0000
01F8F8FC0000
00FFF8F80000
00FFF1F00000
007FC3F00000
001F07E00000
00000FC00000
00001F800000
00001F07E000
00003E1FF800
00007C3FF800
0000FC7FFC00
0001F8FC7C00
0003F0F87C00
0007E1F03E00
0007C1E03E00
000F83E03E00
001F03E03E00
003F03C03E00
007E07C03C00
00FC07C07C00
01F807C07C00
01F007C07C00
03E007C07C00
07E007C0F800
0FC007C0F800
1F8007C1F000
3F0007E3F000
7E0003FFE000
7C0003FFC000
F80001FF8000
0000007E0000
ENDCHAR
STARTCHAR 0026
ENCODING 38
SWIDTH 488 0
DWIDTH 38 0
BBX 34 50 4 -1
BITMAP
00001FE000
0000FFF800
0001FFFC00
0003FFFE00
0007FFFF00
000FE07F00
001FC03F00
001F803F00
003F803F00
003F003F00
003F003F00
007F003F00
007E007E00
007E007E00
007E00FC00
007E01FC00
007F03F800
003F07F000
003F0FE000
003FBFC000
001FFF8000
001FFF0000
000FFC0000
001FF00700
007FE00FC0
00FFF00FC0
01FFF80F80
03F9F81F80
07F1FC1F80
0FC0FE1F00
1FC07E3F00
1F807F3E00
3F003F7E00
3F003FFE00
7F001FFC00
7E000FFC00
7E000FF800
7E0007F000
FE0007F000
FE0007F000
FE000FF800
7F001FF800
7F003FF800
7F80FFFC00
3FFFFEFC00
3FFFFCFE00
1FFFF0FE00
0FFFE07E00
03FF007E00
0070000000
ENDCHAR
STARTCHAR 0027
ENCODING 39
SWIDTH 488 0
DWIDTH 38 0
BBX 11 21 23 32
BITMAP
0FE0
0FC0
1FC0
1FC0
1FC0
1F80
3F80
3F80
3F00
3F00
3F00
3F00
7E00
7E00
7E00
7C00
7C00
7C00
7800
F800
F000
ENDCHAR
STARTCHAR 0028
ENCODING 40
SWIDTH 488 0
DWIDTH 38 0
BBX 30 67 11 -12
BITMAP
00000070
000000F0
000001F8
000007F8
00000FFC
00001FF0
00003FE0
00007F80
0000FF00
0001FE00
0003FC00
0007F800
000FF000
001FE000
003FC000
003F8000
007F0000
00FE0000
01FE0000
01FC0000
03F80000
03F80000
07F00000
07E00000
0FE00000
0FC00000
1FC00000
1F800000
1F800000
3F800000
3F000000
3F000000
7F000000
7E000000
7E000000
7E000000
7E000000
7E000000
FE000000
FE000000
FE000000
FE000000
FE000000
FE000000
FE000000
7E000000
7E000000
7E000000
7E000000
7F000000
7F000000
3F000000
3F800000
3F800000
1F800000
1FC00000
0FC00000
0FE00000
07F00000
07F00000
03F80000
03FC0000
01FE0000
00FE0000
007C0000
00380000
00100000
ENDCHAR
STARTCHAR 0029
ENCODING 41
SWIDTH 488 0
DWIDTH 38 0
BBX 29 67 5 -12
BITMAP
00006000
0000F000
0001F800
0003FC00
0001FC00
0001FE00
0000FF00
00007F00
00003F80
00003F80
00001FC0
00001FC0
00000FE0
00000FE0
000007E0
000007E0
000007F0
000003F0
000003F0
000003F0
000003F0
000003F8
000003F8
000001F8
000001F8
000001F8
000001F8
000003F8
000003F8
000003F0
000003F0
000003F0
000003F0
000007F0
000007F0
000007E0
000007E0
00000FE0
00000FC0
00001FC0
00001FC0
00003F80
00003F80
00007F00
00007F00
0000FE00
0001FC00
0001FC00
0003F800
0007F800
000FF000
000FE000
001FC000
003FC000
007F8000
00FF0000
01FE0000
03FC0000
0FF80000
1FF00000
3FE00000
FFC00000
FF800000
FE000000
7C000000
70000000
20000000
ENDCHAR
STARTCHAR 002A
ENCODING 42
SWIDTH 488 0
DWIDTH 38 0
BBX 29 28 11 19
BITMAP
001FC000
001FC000
001FC000
000FC000
000FC000
000FC000
000FC000
200F8030
7C0F80F0
7F0F83F0
7FC78FF8
FFF7BFF8
FFFFFFF8
7FFFFFF8
0FFFFF80
001FC000
001FE000
003FF000
007DF800
00FCFC00
01F8FE00
03F8FF00
07F07F80
0FF07F80
1FE03FC0
07E01F80
03C01E00
01800C00
ENDCHAR
STARTCHAR 002B
ENCODING 43
SWIDTH 488 0
DWIDTH 38 0
BBX 32 34 7 3
BITMAP
00007E00
00007E00
00007C00
0000FC00
0000FC00
0000FC00
0000F800
0001F800
0001F800
0001F800
0001F800
0003F000
0003F000
0003F000
7FFFFFFF
7FFFFFFF
FFFFFFFF
FFFFFFFE
FFFFFFFE
000FC000
000FC000
000FC000
000FC000
001F8000
001F8000
001F8000
001F8000
003F0000
003F0000
003F0000
003F0000
003E0000
007E0000
007E0000
ENDCHAR
STARTCHAR 002C
ENCODING 44
SWIDTH 488 0
DWIDTH 38 0
BBX 17 22 8 -11
BITMAP
003800
00FE00
01FF00
03FF80
03FF80
03FF80
03FF80
03FF80
03FF80
03FF80
01FF00
007F00
007F00
007E00
00FE00
03FC00
0FF800
FFF000
FFE000
FF8000
7E0000
700000
ENDCHAR
STARTCHAR 002D
ENCODING 45
SWIDTH 488 0
DWIDTH 38 0
BBX 18 6 14 17
BITMAP
7FFFC0
7FFFC0
7FFFC0
FFFF80
FFFF80
FFFF80
ENDCHAR
STARTCHAR 002E
ENCODING 46
SWIDTH 488 0
DWIDTH 38 0
BBX 11 12 14 -1
BITMAP
1F00
3FC0
7FC0
FFE0
FFE0
FFE0
FFE0
FFE0
FFC0
FFC0
7F80
3E00
ENDCHAR
STARTCHAR 002F
ENCODING 47
SWIDTH 488 0
DWIDTH 38 0
BBX 44 67 -1 -13
BITMAP
0000000007F0
000000000FE0
000000000FC0
000000001FC0
000000001F80
000000003F80
000000003F00
000000007F00
000000007E00
00000000FC00
00000001FC00
00000001F800
00000003F800
00000003F000
00000007F000
00000007E000
0000000FE000
0000001FC000
0000001F8000
0000003F8000
0000003F0000
0000007F0000
0000007E0000
000000FE0000
000000FC0000
000001F80000
000003F80000
000003F00000
000007F00000
000007E00000
00000FE00000
00000FC00000
00001FC00000
00003F800000
00003F000000
00007F000000
00007E000000
0000FE000000
0000FC000000
0001FC000000
0001F8000000
0003F0000000
0007F0000000
0007E0000000
000FE0000000
000FC0000000
001FC0000000
001F80000000
003F80000000
007F00000000
007E00000000
00FE00000000
00FC00000000
01FC00000000
01F800000000
03F800000000
07F000000000
07E000000000
0FE000000000
0FC000000000
1FC000000000
1F8000000000
3F8000000000
3F0000000000
7F0000000000
FE0000000000
FC0000000000
ENDCHAR
STARTCHAR 0030
ENCODING 48
SWIDTH 488 0
DWIDTH 38 0
BBX 34 50 7 -1
BITMAP
00003FE000
0001FFF800
0003FFFC00
000FFFFE00
001FFFFF00
003FFBFF00
007FC07F80
00FF003F80
00FE003F80
01FC001F80
03F8001FC0
03F8001FC0
07F0001FC0
07F0001FC0
0FE0001FC0
0FE0001FC0
1FC0001FC0
1FC0001FC0
1F80001FC0
3F81E01F80
3F03F81F80
3F07F81F80
7F0FF83F80
7F0FFC3F80
7E0FF83F80
7E0FF83F00
FE0FF83F00
FE07F07F00
FE03E07F00
FC00007E00
FC0000FE00
FC0000FE00
FC0000FC00
FC0001FC00
FC0001F800
FC0003F800
FC0003F800
FC0007F000
FC000FE000
FC000FE000
FE001FC000
FE003FC000
FF007F8000
7F81FF0000
7FFFFE0000
3FFFFC0000
3FFFF80000
1FFFE00000
07FFC00000
01FE000000
ENDCHAR
STARTCHAR 0031
ENCODING 49
SWIDTH 488 0
DWIDTH 38 0
BBX 28 48 7 0
BITMAP
000001F0
000003F0
000007F0
00001FF0
00003FE0
0000FFE0
0001FFE0
0007FFE0
003FFFC0
00FFFFC0
01FFCFC0
01FF9FC0
00FE1FC0
00F81F80
00C01F80
00003F80
00003F80
00003F00
00003F00
00007F00
00007F00
00007E00
00007E00
0000FE00
0000FE00
0000FC00
0000FC00
0001FC00
0001FC00
0001F800
0001F800
0001F800
0003F800
0003F000
0003F000
0003F000
0007F000
0007F000
0007E000
0007E000
000FE000
000FE000
000FC000
7FFFFFE0
7FFFFFE0
7FFFFFE0
7FFFFFC0
FFFFFFC0
ENDCHAR
STARTCHAR 0032
ENCODING 50
SWIDTH 488 0
DWIDTH 38 0
BBX 36 49 5 0
BITMAP
00003FF000
0001FFFE00
0007FFFF00
001FFFFF80
003FFFFFC0
007FF9FFE0
003F801FE0
003E000FE0
0018000FF0
00100007F0
00000007F0
00000007F0
00000007F0
00000007F0
00000007E0
0000000FE0
0000000FE0
0000001FC0
0000003FC0
0000003F80
0000007F80
000000FF00
000001FE00
000007FC00
00000FF800
00001FF000
00007FE000
0000FFC000
0001FF0000
0007FE0000
000FFC0000
001FF00000
003FE00000
007FC00000
00FF800000
01FE000000
03FC000000
07F8000000
0FF0000000
0FE0000000
1FE0000000
1FC0000000
3F80000000
3F80000000
7FFFFFFC00
7FFFFFF800
7FFFFFF800
7FFFFFF800
FFFFFFF800
ENDCHAR
STARTCHAR 0033
ENCODING 51
SWIDTH 488 0
DWIDTH 38 0
BBX 35 50 5 -1
BITMAP
00007FF000
0003FFFC00
000FFFFF00
001FFFFF80
001FFFFF80
001FE1FFC0
000F003FC0
000C001FE0
0000000FE0
0000000FE0
0000000FE0
0000000FE0
0000000FE0
0000000FE0
0000000FC0
0000001FC0
0000003FC0
0000003F80
000000FF00
000003FE00
00001FFC00
0003FFF800
0003FFE000
0007FF8000
0007FFE000
0007FFF000
00001FF800
000003FC00
000001FE00
000000FE00
0000007E00
0000007F00
0000007F00
0000007F00
0000007F00
0000007F00
0000007F00
0000007E00
000000FE00
000000FE00
000001FC00
000003FC00
30000FF800
7C003FF800
7FFFFFF000
FFFFFFE000
FFFFFF8000
FFFFFF0000
1FFFFC0000
03FFC00000
ENDCHAR
STARTCHAR 0034
ENCODING 52
SWIDTH 488 0
DWIDTH 38 0
BBX 36 48 4 0
BITMAP
00000007F0
0000001FE0
0000003FE0
0000007FE0
000000FFE0
000001FFC0
000003FFC0
000007FFC0
00001FFFC0
00003FDF80
00007F9F80
0000FF1F80
0000FE3F80
0001FC3F00
0003F83F00
0007F03F00
000FE03F00
001FC07E00
003F807E00
007F007E00
007E007E00
00FC00FE00
01F800FC00
03F800FC00
07F000FC00
07E001FC00
0FC001F800
1FC001F800
1F8001F800
3F0003F800
7FFFFFFFC0
7FFFFFFFC0
7FFFFFFF80
FFFFFFFF80
FFFFFFFF80
FFFFFFFF80
000007E000
00000FE000
00000FC000
00000FC000
00000FC000
00001FC000
00001FC000
00001F8000
00001F8000
00001F8000
00003F8000
00003F0000
ENDCHAR
STARTCHAR 0035
ENCODING 53
SWIDTH 488 0
DWIDTH 38 0
BBX 38 49 5 -1
BITMAP
0001FFFFFC
0001FFFFFC
0001FFFFF8
0003FFFFF8
0003FFFFF8
0003F00000
0007E00000
0007E00000
0007E00000
0007E00000
000FC00000
000FC00000
000FC00000
001F800000
001F800000
001F000000
003F000000
003F000000
007F000000
007FF80000
007FFF0000
00FFFFC000
00FFFFE000
000FFFF000
00003FF800
00000FFC00
000003FC00
000001FE00
000000FE00
000000FE00
0000007E00
0000007E00
0000007E00
0000007E00
0000007E00
0000007E00
000000FE00
000000FE00
000001FC00
000003FC00
000007F800
20001FF800
78007FF000
7FFFFFE000
FFFFFFC000
FFFFFF8000
FFFFFE0000
3FFFF80000
03FF800000
ENDCHAR
STARTCHAR 0036
ENCODING 54
SWIDTH 488 0
DWIDTH 38 0
BBX 36 49 7 -1
BITMAP
0000001FF0
000001FFF0
000007FFE0
00001FFFE0
00007FFFE0
0001FFFC00
0003FFC000
0007FE0000
001FF80000
003FE00000
003FC00000
007F800000
00FE000000
01FC000000
03FC000000
03F8000000
07F0000000
07F0000000
0FE0100000
0FC7FF8000
1FFFFFE000
1FFFFFF000
1FFFFFF800
3FFFFFFC00
3FF003FC00
3F8001FE00
7F0000FE00
7F00007E00
7F00007E00
7E00007E00
7E00007E00
7E00007E00
7E00007E00
FE00007E00
FE00007E00
FE0000FE00
FE0000FE00
7E0000FC00
7E0001FC00
7E0003F800
7F0007F800
7F000FF000
3F801FE000
3FF07FE000
1FFFFFC000
0FFFFF0000
07FFFE0000
03FFF80000
007FC00000
ENDCHAR
STARTCHAR 0037
ENCODING 55
SWIDTH 488 0
DWIDTH 38 0
BBX 35 48 11 0
BITMAP
07FFFFFFE0
0FFFFFFFE0
0FFFFFFFC0
0FFFFFFFC0
0FFFFFFFC0
0000003FC0
0000007F00
000000FE00
000001FC00
000003F800
000007F800
00000FF000
00000FE000
00001FC000
00003F8000
00007F0000
0000FF0000
0000FE0000
0001FC0000
0003F80000
0003F80000
0007F00000
000FE00000
000FE00000
001FC00000
003F800000
003F800000
007F000000
007E000000
00FE000000
01FC000000
01FC000000
03F8000000
03F8000000
07F0000000
07F0000000
0FE0000000
0FE0000000
1FC0000000
1FC0000000
3F80000000
3F80000000
3F00000000
7F00000000
7F00000000
7E00000000
FE00000000
FE00000000
ENDCHAR
STARTCHAR 0038
ENCODING 56
SWIDTH 488 0
DWIDTH 38 0
BBX 36 50 6 -1
BITMAP
00003FF800
0000FFFE00
0003FFFF00
000FFFFF80
001FFFFFC0
003FF03FE0
003FC00FE0
007F000FE0
00FE0007F0
00FE0007F0
00FC0007F0
01FC0007F0
01FC0007F0
01F80007F0
01F80007E0
01F8000FE0
01F8000FE0
01FC001FC0
01FC003F80
00FE007F80
00FF00FF00
007FC3FE00
003FF7F800
001FFFF000
003FFFC000
00FFFFE000
01FF7FF000
03FC1FF800
07F007FC00
0FE003FC00
1FC001FE00
3F8000FE00
3F0000FE00
7F00007E00
7E00007E00
7E00007E00
FE00007E00
FE00007E00
FE0000FE00
FE0000FE00
FE0001FC00
FE0003FC00
7F0007F800
7F800FF000
7FE07FF000
3FFFFFE000
1FFFFF8000
0FFFFF0000
03FFFC0000
00FFC00000
ENDCHAR
STARTCHAR 0039
ENCODING 57
SWIDTH 488 0
DWIDTH 38 0
BBX 36 49 6 0
BITMAP
00007FE000
0001FFFC00
0007FFFE00
001FFFFF00
003FFFFF80
007FE07FC0
00FF801FC0
00FF000FE0
01FC000FE0
01FC0007E0
03F80007E0
03F00007E0
07F00007F0
07F00007F0
07E00007F0
07E00007F0
07E00007F0
07E00007E0
07E00007E0
07E00007E0
07E0000FE0
07F0000FE0
07F0000FE0
07F8003FC0
03FF07FFC0
03FFFFFFC0
01FFFFFFC0
00FFFFFF80
003FFFBF80
000FFC7F80
0000007F00
000000FF00
000000FE00
000001FE00
000003FC00
000003F800
000007F000
00000FF000
00003FE000
00007FC000
0001FF8000
0007FF0000
001FFE0000
0FFFF80000
7FFFF00000
FFFFC00000
FFFF000000
FFF8000000
FF80000000
ENDCHAR
STARTCHAR 003A
ENCODING 58
SWIDTH 488 0
DWIDTH 38 0
BBX 17 37 14 -1
BITMAP
007C00
00FF00
01FF00
03FF80
03FF80
03FF80
03FF80
03FF80
03FF00
03FF00
01FC00
007800
000000
000000
000000
000000
000000
000000
000000
000000
000000
000000
000000
000000
000000
1F0000
3FC000
7FC000
FFE000
FFE000
FFE000
FFE000
FFE000
FFC000
FFC000
7F8000
3E0000
ENDCHAR
STARTCHAR 003B
ENCODING 59
SWIDTH 488 0
DWIDTH 38 0
BBX 23 47 8 -11
BITMAP
0001F0
0003FC
0007FC
000FFE
000FFE
000FFE
000FFE
000FFE
000FFC
000FFC
0007F0
0001E0
000000
000000
000000
000000
000000
000000
000000
000000
000000
000000
000000
000000
000000
003800
00FE00
01FF00
03FF80
03FF80
03FF80
03FF80
03FF80
03FF80
03FF80
01FF00
007F00
007F00
007E00
00FE00
03FC00
0FF800
FFF000
FFE000
FF8000
7E0000
700000
ENDCHAR
STARTCHAR 003C
ENCODING 60
SWIDTH 488 0
DWIDTH 38 0
BBX 34 31 6 4
BITMAP
00000000C0
00000007C0
0000001FC0
000000FFC0
000003FFC0
00001FFFC0
00007FFF00
0003FFF800
001FFFC000
007FFF0000
03FFF80000
0FFFC00000
7FFF000000
7FF8000000
7FE0000000
7F00000000
FFC0000000
FFF0000000
7FFC000000
1FFF000000
07FFC00000
01FFF80000
007FFE0000
001FFF8000
0003FFE000
0000FFF800
00003FF800
00000FF000
000003F000
000000E000
0000002000
ENDCHAR
STARTCHAR 003D
ENCODING 61
SWIDTH 488 0
DWIDTH 38 0
BBX 36 21 5 10
BITMAP
07FFFFFFF0
07FFFFFFF0
0FFFFFFFF0
0FFFFFFFE0
0FFFFFFFE0
0FFFFFFFE0
0000000000
0000000000
0000000000
0000000000
0000000000
0000000000
0000000000
0000000000
0000000000
7FFFFFFF00
7FFFFFFF00
7FFFFFFF00
FFFFFFFF00
FFFFFFFE00
FFFFFFFE00
ENDCHAR
STARTCHAR 003E
ENCODING 62
SWIDTH 488 0
DWIDTH 38 0
BBX 34 31 5 4
BITMAP
0180000000
03E0000000
03F8000000
07FE000000
07FFC00000
03FFF00000
00FFFC0000
003FFF0000
000FFFC000
0001FFF000
00007FFC00
00001FFF00
000007FFC0
000001FFC0
0000007F80
000000FF80
000003FF80
00001FFF80
00007FFE00
0003FFF800
001FFFC000
007FFF0000
03FFF80000
0FFFC00000
7FFF000000
FFF8000000
FFE0000000
FF00000000
FC00000000
E000000000
8000000000
ENDCHAR
STARTCHAR 003F
ENCODING 63
SWIDTH 488 0
DWIDTH 38 0
BBX 27 50 13 -1
BITMAP
003FF800
01FFFE00
07FFFF80
07FFFFC0
07FFFFC0
03E03FE0
02001FE0
00000FE0
000007E0
000007E0
000007E0
000007E0
00000FE0
00000FC0
00001FC0
00001F80
00003F80
00007F00
0000FE00
0003FC00
0007F800
000FF000
001FC000
003F8000
007F0000
00FE0000
01FC0000
03F80000
03F00000
07E00000
07E00000
07C00000
07C00000
00000000
00000000
00000000
00000000
00000000
00000000
0C000000
3F000000
7F800000
FFC00000
FFC00000
FFC00000
FFC00000
FF800000
FF800000
7F000000
3C000000
ENDCHAR
STARTCHAR 0040
ENCODING 64
SWIDTH 488 0
DWIDTH 38 0
BBX 38 59 5 -10
BITMAP
000007FF00
00003FFFC0
00007FFFE0
0001FFFFF0
0003FFFFF8
0007FE0FF8
000FF001FC
001FE001FC
003FC000FC
007F8000FC
00FF0000FC
00FE00007C
01FC00007C
03F80000FC
03F80000FC
07F00000FC
07E001FFFC
0FE007FFFC
0FC01FFFF8
0FC03FFFF8
1FC07FFFF8
1F80FF01F8
1F81FE03F8
3F81F803F0
3F03F803F0
3F03F003F0
3F07E007F0
7E07E007E0
7E07E007E0
7E0FC007E0
7E0FC007E0
7E0FC00FC0
7E0FC00FC0
FE0FC00FC0
FC0FC00FC0
FC0FC01F80
FC0FC01F80
FC0FE01F80
FC07E01F80
FC07F03F00
FE03FE7F00
7E03FFFF00
7E01FFFF00
7E00FFFE00
7E003FFC00
7F00078000
7F00000000
3F00000000
3F80000000
1F80000000
1FC0000000
0FE0000000
0FF8000000
07FE010000
03FFFF0000
01FFFF0000
00FFFF0000
007FFF0000
000FFE0000
ENDCHAR
STARTCHAR 0041
ENCODING 65
SWIDTH 488 0
DWIDTH 38 0
BBX 37 48 -1 0
BITMAP
0000003FC0
0000007FC0
0000007FC0
000000FFE0
000000FFE0
000001FFE0
000003F7E0
000003F7E0
000007E7E0
000007C7E0
00000FC7E0
00001F87E0
00001F83F0
00003F03F0
00003F03F0
00007E03F0
00007C03F0
0000FC03F0
0001F803F0
0001F803F0
0003F003F0
0003F003F0
0007E003F0
0007E003F0
000FC003F0
000F8003F8
001F8001F8
001F0001F8
003F0001F8
003E0001F8
007FFFFFF8
00FFFFFFF8
00FFFFFFF8
01FFFFFFF8
01FFFFFFF8
03F00001F8
03F00001F8
07E00001F8
07E00001F8
0FC00001F8
0FC00001F8
1FC00001F8
1F800001F8
3F800001F8
3F000001F8
7F000001F8
7E000001F8
FE000001F8
ENDCHAR
STARTCHAR 0042
ENCODING 66
SWIDTH 488 0
DWIDTH 38 0
BBX 37 49 4 0
BITMAP
00001F8000
001FFFFC00
003FFFFF00
003FFFFFC0
003FFFFFE0
003FFFFFF0
007F003FF0
007F000FF0
007E0007F8
007E0003F8
00FE0003F8
00FE0003F8
00FC0003F8
00FC0003F0
00FC0003F0
01FC0003F0
01F80007E0
01F8000FE0
01F8001FC0
03F8003F80
03F001FF00
03FFFFFE00
03FFFFFC00
07FFFFE000
07FFFFF800
07FFFFFE00
07FFFFFF00
0FE000FF00
0FE0003F80
0FC0003F80
0FC0001FC0
1FC0001FC0
1FC0001FC0
1F80001FC0
1F80001FC0
1F80001FC0
3F80001F80
3F00001F80
3F00003F80
3F00007F00
7F0000FF00
7E0001FE00
7E0007FE00
7E003FFC00
FFFFFFF800
FFFFFFE000
FFFFFF8000
FFFFFE0000
7FFFF00000
ENDCHAR
STARTCHAR 0043
ENCODING 67
SWIDTH 488 0
DWIDTH 38 0
BBX 38 50 7 -1
BITMAP
00000FFF00
00007FFFE0
0001FFFFF0
0003FFFFFC
000FFFFFF8
001FFFBFF0
003FF001F0
007FC00060
00FF000000
01FE000000
01FC000000
03F8000000
07F0000000
07F0000000
0FE0000000
0FE0000000
1FC0000000
1FC0000000
1F80000000
3F80000000
3F00000000
3F00000000
7F00000000
7E00000000
7E00000000
7E00000000
FE00000000
FE00000000
FE00000000
FC00000000
FC00000000
FC00000000
FC00000000
FC00000000
FC00000000
FE00000000
FE00000000
FE00000000
FE00000000
7F00000000
7F00000000
7F80000000
3FC0006000
3FF003E000
1FFFFFE000
0FFFFFE000
07FFFFF000
03FFFFE000
00FFFF0000
003FF00000
ENDCHAR
STARTCHAR 0044
ENCODING 68
SWIDTH 488 0
DWIDTH 38 0
BBX 38 49 3 0
BITMAP
00001C0000
001FFFF000
001FFFFC00
003FFFFF00
003FFFFF80
003FFFFFC0
003F00FFE0
007F001FE0
007F000FF0
007E0007F0
007E0007F8
007E0003F8
00FE0003F8
00FC0001F8
00FC0001F8
00FC0001FC
01FC0001FC
01F80001FC
01F80001FC
01F80001FC
03F80001FC
03F80001F8
03F00001F8
03F00001F8
07F00001F8
07F00003F8
07E00003F8
07E00003F8
0FE00003F0
0FE00007F0
0FC00007F0
0FC00007E0
0FC0000FE0
1FC0000FE0
1F80001FC0
1F80003FC0
1F80003F80
3F80007F00
3F0000FF00
3F0001FE00
3F0003FC00
7F000FF800
7F003FF000
7E03FFE000
7FFFFFC000
FFFFFF0000
FFFFFE0000
FFFFF00000
FFFFC00000
ENDCHAR
STARTCHAR 0045
ENCODING 69
SWIDTH 488 0
DWIDTH 38 0
BBX 38 48 6 0
BITMAP
001FFFFFFC
001FFFFFFC
001FFFFFF8
003FFFFFF8
003FFFFFF8
003F000000
003F000000
007F000000
007E000000
007E000000
007E000000
00FE000000
00FE000000
00FC000000
00FC000000
01FC000000
01FC000000
01F8000000
01F8000000
03F8000000
03FFFFFE00
03FFFFFC00
03FFFFFC00
07FFFFFC00
07FFFFFC00
07FFFFF800
07E0000000
0FE0000000
0FE0000000
0FC0000000
0FC0000000
0FC0000000
1FC0000000
1F80000000
1F80000000
1F80000000
3F80000000
3F80000000
3F00000000
3F00000000
7F00000000
7F00000000
7E00000000
7FFFFFF800
FFFFFFF800
FFFFFFF800
FFFFFFF800
FFFFFFF000
ENDCHAR
STARTCHAR 0046
ENCODING 70
SWIDTH 488 0
DWIDTH 38 0
BBX 38 48 6 0
BITMAP
001FFFFFFC
001FFFFFFC
001FFFFFFC
003FFFFFFC
003FFFFFF8
003F000000
003F000000
007F000000
007E000000
007E000000
007E000000
00FE000000
00FE000000
00FC000000
00FC000000
01FC000000
01FC000000
01F8000000
01F8000000
03F8000000
03FFFFFE00
03FFFFFE00
03FFFFFE00
07FFFFFC00
07FFFFFC00
07FFFFFC00
07E0000000
0FE0000000
0FE0000000
0FC0000000
0FC0000000
0FC0000000
1FC0000000
1F80000000
1F80000000
1F80000000
3F80000000
3F00000000
3F00000000
3F00000000
7F00000000
7F00000000
7E00000000
7E00000000
FE00000000
FE00000000
FC00000000
FC00000000
ENDCHAR
STARTCHAR 0047
ENCODING 71
SWIDTH 488 0
DWIDTH 38 0
BBX 37 50 6 -1
BITMAP
000007FF00
00003FFFE0
0000FFFFF0
0003FFFFF8
0007FFFFF8
000FFF1FF0
003FF001F0
007FC00060
007F800000
00FE000000
01FC000000
03F8000000
03F8000000
07F0000000
07E0000000
0FE0000000
0FC0000000
1FC0000000
1F80000000
3F80000000
3F80000000
3F00000000
3F00000000
7F00000000
7F00000000
7E00003F80
7E00003F80
7E00003F00
FE00003F00
FE00007F00
FE00007F00
FE00007E00
FE00007E00
FE0000FE00
FE0000FE00
FE0000FC00
FE0000FC00
7E0000FC00
7F0001FC00
7F0001F800
7F8001F800
3F8001F800
3FC003F800
1FF003F800
1FFFFFF000
0FFFFFF000
07FFFFF000
03FFFFF000
00FFFFC000
001FF80000
ENDCHAR
STARTCHAR 0048
ENCODING 72
SWIDTH 488 0
DWIDTH 38 0
BBX 42 48 3 0
BITMAP
001FC0001FC0
001F80001F80
001F80001F80
003F80001F80
003F80003F80
003F00003F80
003F00003F00
007F00003F00
007F00007F00
007E00007F00
007E00007E00
007E00007E00
00FE0000FE00
00FC0000FE00
00FC0000FC00
00FC0000FC00
01FC0001FC00
01FC0001FC00
01F80001F800
01F80001F800
03FFFFFFF800
03FFFFFFF800
03FFFFFFF000
03FFFFFFF000
07FFFFFFF000
07FFFFFFF000
07E00007E000
07E00007E000
0FE00007E000
0FE0000FE000
0FC0000FE000
0FC0000FC000
1FC0000FC000
1FC0001FC000
1F80001FC000
1F80001F8000
1F80001F8000
3F80003F8000
3F00003F8000
3F00003F0000
3F00003F0000
7F00007F0000
7E00007F0000
7E00007E0000
7E00007E0000
FE0000FE0000
FC0000FE0000
FC0000FC0000
ENDCHAR
STARTCHAR 0049
ENCODING 73
SWIDTH 488 0
DWIDTH 38 0
BBX 36 48 6 0
BITMAP
001FFFFFF0
001FFFFFF0
003FFFFFE0
003FFFFFE0
003FFFFFE0
00001F8000
00001F8000
00001F8000
00003F8000
00003F8000
00003F0000
00003F0000
00007F0000
00007F0000
00007E0000
00007E0000
0000FE0000
0000FE0000
0000FC0000
0000FC0000
0001FC0000
0001FC0000
0001F80000
0001F80000
0003F80000
0003F80000
0003F00000
0003F00000
0007F00000
0007F00000
0007E00000
0007E00000
000FE00000
000FE00000
000FC00000
000FC00000
000FC00000
001FC00000
001F800000
001F800000
001F800000
003F800000
003F800000
7FFFFFC000
FFFFFF8000
FFFFFF8000
FFFFFF8000
FFFFFF8000
ENDCHAR
STARTCHAR 004A
ENCODING 74
SWIDTH 488 0
DWIDTH 38 0
BBX 38 49 5 -1
BITMAP
0001FFFFFC
0001FFFFFC
0001FFFFF8
0003FFFFF8
0003FFFFF8
00000003F8
00000003F8
00000003F0
00000003F0
00000007F0
00000007F0
00000007E0
00000007E0
0000000FE0
0000000FE0
0000000FC0
0000000FC0
0000001FC0
0000001FC0
0000001F80
0000001F80
0000003F80
0000003F80
0000003F00
0000003F00
0000003F00
0000007F00
0000007F00
0000007E00
0000007E00
000000FE00
000000FE00
000000FC00
000000FC00
000001FC00
000001F800
000001F800
000003F800
000003F000
000007F000
18000FF000
3C001FE000
3F007FE000
7FFFFFC000
FFFFFF8000
7FFFFF0000
1FFFFC0000
07FFF80000
00FFC00000
ENDCHAR
STARTCHAR 004B
ENCODING 75
SWIDTH 488 0
DWIDTH 38 0
BBX 41 48 4 0
BITMAP
001F80007F80
001F8000FF00
003F8001FE00
003F8003FC00
003F0007F800
003F0007F000
007F000FE000
007F001FC000
007E003F8000
007E007F0000
00FE00FE0000
00FE01FC0000
00FC07F80000
00FC0FF00000
00FC1FE00000
01FC3FC00000
01F87F800000
01F8FF000000
01F9FE000000
03FBFC000000
03F7F8000000
03FFF0000000
03FFE0000000
07FFE0000000
07FFE0000000
07EFF0000000
07E7F8000000
0FE3FC000000
0FE1FC000000
0FC0FE000000
0FC0FF000000
1FC07F000000
1FC03F800000
1F801FC00000
1F801FC00000
3F800FE00000
3F800FE00000
3F0007F00000
3F0007F00000
3F0003F80000
7F0003F80000
7E0001FC0000
7E0001FC0000
7E0000FE0000
FE0000FE0000
FC0000FE0000
FC00007F0000
FC00007F0000
ENDCHAR
STARTCHAR 004C
ENCODING 76
SWIDTH 488 0
DWIDTH 38 0
BBX 29 48 4 0
BITMAP
000FC000
001FC000
001FC000
001F8000
001F8000
003F8000
003F8000
003F0000
003F0000
007F0000
007F0000
007E0000
007E0000
007E0000
00FE0000
00FC0000
00FC0000
00FC0000
01FC0000
01F80000
01F80000
01F80000
03F80000
03F80000
03F00000
03F00000
07F00000
07F00000
07E00000
07E00000
0FE00000
0FE00000
0FC00000
0FC00000
1FC00000
1FC00000
1F800000
1F800000
3F800000
3F800000
3F000000
3F000000
3F000000
7FFFFFF8
7FFFFFF0
7FFFFFF0
7FFFFFF0
FFFFFFF0
ENDCHAR
STARTCHAR 004D
ENCODING 77
SWIDTH 488 0
DWIDTH 38 0
BBX 41 48 2 0
BITMAP
0003F0001F80
0003F8003F80
0007F8003F80
0007F8007F80
0007F8007F80
000FF800FF80
000FF800FF80
000FF801FF00
001FF801EF00
001FF803FF00
001EF803DF00
003EF807DF00
003E780F9F00
003E780F9F00
007C781F3E00
007C7C1E3E00
007C7C3E3E00
00FC7C3C3E00
00F87C7C3E00
00F87C787E00
01F87CF87C00
01F87DF07C00
01F07DF07C00
03F03FE0FC00
03F03FC0FC00
03E03FC0FC00
03E03F80F800
07E03F80F800
07E03F01F800
07C03F01F800
0FC00001F800
0FC00001F800
0FC00003F000
1F800003F000
1F800003F000
1F800003F000
1F800003F000
3F000007E000
3F000007E000
3F000007E000
7E000007E000
7E00000FE000
7E00000FC000
7E00000FC000
FC00000FC000
FC00000FC000
FC00001FC000
FC00001F8000
ENDCHAR
STARTCHAR 004E
ENCODING 78
SWIDTH 488 0
DWIDTH 38 0
BBX 42 48 3 0
BITMAP
000FC0000FC0
001FC0000FC0
001FE0000F80
001FE0001F80
001FE0001F80
003FF0001F80
003FF0001F00
003FF0003F00
003FF8003F00
007FF8003F00
007EF8003E00
007EF8007E00
007CFC007E00
00FCFC007E00
00FC7C007E00
00FC7E00FC00
00F87E00FC00
01F83E00FC00
01F83E00FC00
01F83F00F800
01F03F01F800
03F01F01F800
03F01F01F800
03F01F81F000
03F01F83F000
03E00F83F000
07E00F83F000
07E00F83E000
07E00FC7E000
07C007C7E000
0FC007C7E000
0FC007C7C000
0FC007CFC000
0F8007EFC000
1F8003EFC000
1F8003EF8000
1F8003FF8000
1F0003FF8000
3F0003FF8000
3F0001FF8000
3F0001FF0000
3E0001FF0000
7E0001FF0000
7E0001FF0000
7E0000FE0000
7E0000FE0000
FC0000FE0000
FC0000FE0000
ENDCHAR
STARTCHAR 004F
ENCODING 79
SWIDTH 488 0
DWIDTH 38 0
BBX 36 50 6 -1
BITMAP
00003FF000
0000FFFC00
0003FFFF00
0007FFFF80
000FFFFF80
001FF8FFC0
003FC01FE0
007F800FE0
00FF000FE0
01FE0007F0
01FC0007F0
03F80007F0
03F00007F0
07F00003F0
07E00003F0
0FE00003F0
0FC00003F0
1FC00003F0
1FC00007F0
1F800007F0
3F800007F0
3F800007F0
3F000007E0
3F000007E0
7F000007E0
7F00000FE0
7E00000FE0
7E00000FC0
7E00000FC0
7E00001FC0
FE00001F80
FE00001F80
FE00003F80
FE00003F00
FE00007F00
FE00007E00
FE0000FE00
FE0000FC00
FE0001FC00
7E0003F800
7F0003F800
7F0007F000
7F800FE000
3FC03FC000
3FFFFFC000
1FFFFF0000
0FFFFE0000
07FFFC0000
01FFF00000
007F800000
ENDCHAR
STARTCHAR 0050
ENCODING 80
SWIDTH 488 0
DWIDTH 38 0
BBX 38 49 4 0
BITMAP
00000FC000
000FFFFE00
001FFFFF80
001FFFFFC0
001FFFFFE0
001FFFFFF0
003F801FF8
003F8007F8
003F0003FC
003F0001FC
007F0001FC
007F0000FC
007E0000FC
007E0000FC
00FE0000FC
00FE0001FC
00FC0001FC
00FC0001F8
01FC0001F8
01FC0003F8
01F80003F0
01F80007F0
03F8000FE0
03F8003FC0
03F000FFC0
03F01FFF00
03FFFFFE00
07FFFFFC00
07FFFFF000
07FFFFC000
07FFFC0000
0FE0000000
0FE0000000
0FC0000000
0FC0000000
1FC0000000
1FC0000000
1F80000000
1F80000000
3F80000000
3F80000000
3F00000000
3F00000000
3F00000000
7F00000000
7E00000000
7E00000000
7E00000000
FE00000000
ENDCHAR
STARTCHAR 0051
ENCODING 81
SWIDTH 488 0
DWIDTH 38 0
BBX 36 62 6 -13
BITMAP
00003FF000
0000FFFC00
0003FFFF00
0007FFFF80
000FFFFF80
001FF8FFC0
003FC01FE0
007F800FE0
00FF000FE0
01FE0007F0
01FC0007F0
03F80007F0
03F00007F0
07F00003F0
07E00003F0
0FE00003F0
0FC00003F0
1FC00003F0
1FC00007F0
1F800007F0
3F800007F0
3F800007F0
3F000007E0
3F000007E0
7F000007E0
7F00000FE0
7E00000FE0
7E00000FC0
7E00000FC0
7E00001FC0
FE00001FC0
FE00001F80
FE00003F80
FE00003F00
FE00007F00
FE00007F00
FE0000FE00
FE0000FE00
FE0001FC00
7E0003F800
7F0003F800
7F0007F000
7F800FE000
3FC03FE000
3FFFFFC000
1FFFFF0000
0FFFFE0000
07FFFC0000
03FFF00000
007F800000
007E000000
007F000000
007F000000
007F800000
003FC00000
003FF80000
001FFF8000
000FFFC000
0007FF8000
0001FF8000
00003F0000
0000030000
ENDCHAR
STARTCHAR 0052
ENCODING 82
SWIDTH 488 0
DWIDTH 38 0
BBX 37 49 4 0
BITMAP
00001F8000
001FFFFC00
001FFFFF00
003FFFFFC0
003FFFFFE0
003FFFFFE0
003F003FF0
007F000FF0
007F0007F8
007E0003F8
007E0003F8
00FE0001F8
00FE0001F8
00FC0001F8
00FC0001F8
01FC0003F8
01FC0003F8
01F80003F0
01F80003F0
01F80007F0
03F8000FE0
03F0001FC0
03F0003FC0
03F000FF80
07F01FFF00
07FFFFFE00
07FFFFF800
07FFFFF000
0FFFFF8000
0FFFFF8000
0FC03F8000
0FC01FC000
1FC01FC000
1FC00FC000
1F800FE000
1F8007E000
3F8007F000
3F8007F000
3F0003F000
3F0003F800
3F0003F800
7F0001F800
7E0001F800
7E0001FC00
7E0000FC00
FE0000FC00
FC0000FC00
FC0000FE00
FC0000FE00
ENDCHAR
STARTCHAR 0053
ENCODING 83
SWIDTH 488 0
DWIDTH 38 0
BBX 38 50 4 -1
BITMAP
00000FFF80
00007FFFF0
0001FFFFFC
0003FFFFFC
0007FFFFF8
000FFF0FF8
001FF00070
003FC00010
003F800000
003F000000
007F000000
007F000000
007E000000
007E000000
007E000000
007F000000
007F000000
007F800000
003F800000
003FC00000
001FF00000
001FFC0000
000FFF0000
0007FF8000
0001FFE000
0000FFF000
00003FFC00
00000FFC00
000003FE00
000001FE00
000000FF00
0000007F00
0000007F00
0000003F00
0000003F00
0000003F00
0000003F00
0000003F00
0000007F00
0000007F00
000000FE00
100000FE00
380003FC00
3F000FFC00
7FFFFFF800
7FFFFFF000
FFFFFFE000
3FFFFF8000
0FFFFE0000
00FFF00000
ENDCHAR
STARTCHAR 0054
ENCODING 84
SWIDTH 488 0
DWIDTH 38 0
BBX 34 48 12 0
BITMAP
7FFFFFFFC0
7FFFFFFF80
FFFFFFFF80
FFFFFFFF80
FFFFFFFF80
0007E00000
0007E00000
000FE00000
000FE00000
000FC00000
000FC00000
001FC00000
001FC00000
001F800000
001F800000
003F800000
003F800000
003F000000
003F000000
003F000000
007F000000
007E000000
007E000000
007E000000
00FE000000
00FE000000
00FC000000
00FC000000
01FC000000
01FC000000
01F8000000
01F8000000
03F8000000
03F8000000
03F0000000
03F0000000
07F0000000
07F0000000
07E0000000
07E0000000
0FE0000000
0FE0000000
0FC0000000
0FC0000000
1FC0000000
1FC0000000
1F80000000
1F80000000
ENDCHAR
STARTCHAR 0055
ENCODING 85
SWIDTH 488 0
DWIDTH 38 0
BBX 39 49 6 -1
BITMAP
00FE0000FE
00FC0000FC
00FC0000FC
01FC0000FC
01FC0001FC
01F80001F8
01F80001F8
03F80001F8
03F80003F8
03F00003F8
03F00003F0
03F00003F0
07F00007F0
07E00007F0
07E00007E0
07E00007E0
0FE0000FE0
0FC0000FE0
0FC0000FC0
0FC0000FC0
1FC0001FC0
1FC0001FC0
1F80001F80
1F80001F80
3F80003F80
3F80003F80
3F00003F00
3F00003F00
7F00003F00
7F00007F00
7E00007E00
7E00007E00
7E00007E00
FE0000FE00
FE0000FC00
FE0000FC00
FE0001FC00
FE0001FC00
FE0003F800
7E0003F800
7F0007F000
7F000FF000
3FC03FE000
3FFFFFC000
1FFFFF8000
0FFFFF0000
07FFFE0000
03FFF80000
007FC00000
ENDCHAR
STARTCHAR 0056
ENCODING 86
SWIDTH 488 0
DWIDTH 38 0
BBX 36 48 11 0
BITMAP
FC000007F0
FC000007F0
FC00000FE0
FC00000FE0
FC00000FC0
FC00001FC0
FC00001F80
FC00003F80
FC00003F00
FC00007F00
FC00007E00
FC0000FE00
FC0000FC00
FC0001FC00
FC0001F800
FE0003F800
FE0003F000
FE0007F000
FE0007E000
FE000FE000
FE000FC000
FE001FC000
7E001F8000
7E003F0000
7E003F0000
7E007E0000
7E00FE0000
7E00FC0000
7E01FC0000
7E01F80000
7E03F80000
7E03F00000
7E07F00000
7E07E00000
7E0FC00000
7F0FC00000
3F1F800000
3F1F800000
3F3F000000
3F3F000000
3F7E000000
3FFC000000
3FFC000000
3FF8000000
3FF8000000
3FF0000000
1FF0000000
1FE0000000
ENDCHAR
STARTCHAR 0057
ENCODING 87
SWIDTH 488 0
DWIDTH 38 0
BBX 42 48 5 0
BITMAP
00FC00001FC0
01FC00001F80
01F800001F80
01F800001F80
01F800003F00
01F800003F00
03F000003F00
03F000003F00
03F000007E00
03F000007E00
03F000007E00
07E00000FC00
07E00000FC00
07E00000FC00
07E00000F800
07C00001F800
0FC00001F800
0FC00001F800
0FC07E01F000
0FC0FE03F000
0F80FE03F000
0F81FE03E000
1F81FE03E000
1F83FE07E000
1F03FE07C000
1F07DE07C000
1F079E0FC000
3F0F9E0F8000
3F1F1F0F8000
3E1F1F0F8000
3E3E1F1F8000
3E3E1F1F0000
3E7C1F1F0000
7C7C0F3F0000
7CF80F3E0000
7CF00F3E0000
7DF00F3E0000
7FE00F7C0000
7BE00F7C0000
7FC00FFC0000
FFC00FF80000
FF800FF80000
FF800FF00000
FF000FF00000
FF000FF00000
FE000FE00000
FC000FE00000
FC0007E00000
ENDCHAR
STARTCHAR 0058
ENCODING 88
SWIDTH 488 0
DWIDTH 38 0
BBX 46 48 1 0
BITMAP
0007F00001FC
0007F00003F8
0003F80007F0
0003F8000FF0
0003F8000FE0
0001FC001FC0
0001FC003F80
0001FC007F80
0000FE007F00
0000FE00FE00
00007E01FC00
00007F03FC00
00007F03F800
00003F07F000
00003F8FE000
00003F9FC000
00001FBF8000
00001FFF8000
00001FFF0000
00000FFE0000
00000FFC0000
000007F80000
000007F00000
00000FF00000
00001FF80000
00003FF80000
00007FFC0000
00007FFC0000
0000FEFC0000
0001FCFE0000
0003FCFE0000
0007F87E0000
000FF07F0000
000FE07F0000
001FC03F0000
003F803F8000
007F803F8000
00FF001F8000
00FE001F8000
01FC001FC000
03F8001FC000
07F8000FC000
0FF0000FE000
1FE0000FE000
1FC0000FE000
3F800007E000
7F800007F000
FF000007F000
ENDCHAR
STARTCHAR 0059
ENCODING 89
SWIDTH 488 0
DWIDTH 38 0
BBX 36 48 12 0
BITMAP
FC000007F0
FC00000FE0
FC00000FE0
FC00001FC0
FC00003F80
FE00003F80
7E00007F00
7E0000FE00
7E0000FE00
7E0001FC00
7F0003F800
3F0003F800
3F0007F000
3F000FE000
3F800FC000
1F801FC000
1F803F8000
1F807F0000
0FC07E0000
0FC0FC0000
0FC1FC0000
07E1F80000
07E3F00000
07E7E00000
03EFC00000
03FFC00000
03FF800000
01FF000000
01FE000000
01FC000000
01FC000000
01FC000000
01F8000000
01F8000000
03F8000000
03F8000000
03F0000000
03F0000000
03F0000000
07F0000000
07E0000000
07E0000000
07E0000000
0FE0000000
0FC0000000
0FC0000000
0FC0000000
1FC0000000
ENDCHAR
STARTCHAR 005A
ENCODING 90
SWIDTH 488 0
DWIDTH 38 0
BBX 41 48 3 0
BITMAP
000FFFFFFF80
000FFFFFFF80
000FFFFFFF80
001FFFFFFF80
001FFFFFFF00
000000007F00
00000000FE00
00000001FC00
00000003F800
00000007F000
0000000FE000
0000001FC000
0000003F8000
0000007F8000
000000FF0000
000001FE0000
000001FC0000
000003F80000
000007F00000
00000FE00000
00001FC00000
00003F800000
00007F800000
00007F000000
0000FE000000
0001FC000000
0003F8000000
0007F0000000
000FE0000000
000FE0000000
001FC0000000
003F80000000
007F00000000
00FE00000000
00FE00000000
01FC00000000
03F800000000
07F000000000
0FE000000000
0FE000000000
1FC000000000
3F8000000000
7F0000000000
7FFFFFFF0000
7FFFFFFF0000
FFFFFFFE0000
FFFFFFFE0000
FFFFFFFE0000
ENDCHAR
STARTCHAR 005B
ENCODING 91
SWIDTH 488 0
DWIDTH 38 0
BBX 34 67 8 -13
BITMAP
0000FFFFC0
0001FFFFC0
0001FFFFC0
0001FFFFC0
0001FFFF80
0003F80000
0003F00000
0003F00000
0003F00000
0007F00000
0007E00000
0007E00000
0007E00000
000FE00000
000FC00000
000FC00000
000FC00000
001FC00000
001F800000
001F800000
001F800000
001F800000
003F000000
003F000000
003F000000
003F000000
007E000000
007E000000
007E000000
007E000000
00FC000000
00FC000000
00FC000000
00FC000000
01FC000000
01F8000000
01F8000000
01F8000000
03F8000000
03F0000000
03F0000000
03F0000000
07F0000000
07E0000000
07E0000000
07E0000000
07E0000000
0FC0000000
0FC0000000
0FC0000000
0FC0000000
1F80000000
1F80000000
1F80000000
1F80000000
3F00000000
3F00000000
3F00000000
3F00000000
7E00000000
7E00000000
7E00000000
7FFFE00000
FFFFE00000
FFFFE00000
FFFFE00000
FFFFC00000
ENDCHAR
STARTCHAR 005C
ENCODING 92
SWIDTH 488 0
DWIDTH 38 0
BBX 12 67 17 -13
BITMAP
FE00
FE00
FE00
FE00
FE00
FE00
7E00
7E00
7E00
7E00
7E00
7E00
7F00
7F00
7F00
7F00
7F00
7F00
3F00
3F00
3F00
3F00
3F00
3F00
3F00
3F80
3F80
3F80
3F80
3F80
3F80
1F80
1F80
1F80
1F80
1F80
1F80
1FC0
1FC0
1FC0
1FC0
1FC0
1FC0
1FC0
0FC0
0FC0
0FC0
0FC0
0FC0
0FC0
0FE0
0FE0
0FE0
0FE0
0FE0
0FE0
07E0
07E0
07E0
07E0
07E0
07E0
07F0
07F0
07F0
07F0
07F0
ENDCHAR
STARTCHAR 005D
ENCODING 93
SWIDTH 488 0
DWIDTH 38 0
BBX 35 67 2 -13
BITMAP
0000FFFFE0
0000FFFFC0
0001FFFFC0
0001FFFFC0
0001FFFFC0
0000001F80
0000001F80
0000001F80
0000001F80
0000003F00
0000003F00
0000003F00
0000003F00
0000007E00
0000007E00
0000007E00
0000007E00
000000FE00
000000FC00
000000FC00
000000FC00
000001FC00
000001F800
000001F800
000001F800
000001F800
000003F000
000003F000
000003F000
000003F000
000007E000
000007E000
000007E000
000007E000
00000FC000
00000FC000
00000FC000
00000FC000
00001F8000
00001F8000
00001F8000
00001F8000
00003F0000
00003F0000
00003F0000
00003F0000
00007F0000
00007E0000
00007E0000
00007E0000
0000FE0000
0000FC0000
0000FC0000
0000FC0000
0000FC0000
0001F80000
0001F80000
0001F80000
0001F80000
0003F00000
0003F00000
0003F00000
7FFFF00000
7FFFE00000
FFFFE00000
FFFFE00000
FFFFE00000
ENDCHAR
STARTCHAR 005E
ENCODING 94
SWIDTH 488 0
DWIDTH 38 0
BBX 31 26 9 22
BITMAP
00003F00
00007F00
0000FF00
0001FF80
0003FF80
0003FF80
0007FFC0
000FEFC0
001FCFC0
003F87E0
003F87E0
007F07E0
00FE03F0
01FC03F0
03F803F0
03F801F8
07F001F8
0FE001F8
1FC001FC
3F8000FC
7F8000FC
7F0000FC
FE00007E
FC00007E
38000078
08000020
ENDCHAR
STARTCHAR 005F
ENCODING 95
SWIDTH 488 0
DWIDTH 38 0
BBX 36 6 -2 -13
BITMAP
7FFFFFFFF0
7FFFFFFFF0
7FFFFFFFE0
FFFFFFFFE0
FFFFFFFFE0
FFFFFFFFE0
ENDCHAR
STARTCHAR 0060
ENCODING 96
SWIDTH 488 0
DWIDTH 38 0
BBX 13 13 21 41
BITMAP
3800
7C00
FE00
FE00
7F00
3F80
1FC0
0FE0
07E0
03F0
03F8
01F0
00C0
ENDCHAR
STARTCHAR 0061
ENCODING 97
SWIDTH 488 0
DWIDTH 38 0
BBX 34 38 6 -1
BITMAP
00000FF800
0000FFFF80
0007FFFFC0
001FFFFFC0
003FFFFF80
00FFFFFF80
01FFC01F80
03FF003F80
07FC003F00
0FF8003F00
0FF0003F00
1FE0007F00
1FC0007E00
3F80007E00
3F00007E00
7F0000FE00
7F0000FC00
7E0000FC00
FE0000FC00
FE0001FC00
FC0001F800
FC0001F800
FC0001F800
FC0003F800
FC0003F000
FC0003F000
FC0003F000
FC0003F000
FE0003F000
FE000FF000
FF001FF000
7F807FF000
7FF7FFF000
3FFFFFF000
1FFFFBF000
0FFFF3F800
07FFC1F800
00FE000000
ENDCHAR
STARTCHAR 0062
ENCODING 98
SWIDTH 488 0
DWIDTH 38 0
BBX 34 55 5 -1
BITMAP
0000E00000
000FE00000
000FC00000
000FC00000
001FC00000
001FC00000
001F800000
001F800000
003F800000
003F800000
003F000000
003F000000
007F000000
007F000000
007E000000
007E000000
007E000000
00FE1FC000
00FEFFF800
00FFFFFC00
00FFFFFE00
01FFFFFF00
01FFFFFF80
01FF007F80
01FC003F80
03F8001FC0
03F0001FC0
03F0000FC0
03F0000FC0
07F0000FC0
07E0000FC0
07E0000FC0
07E0000FC0
0FE0000FC0
0FE0001FC0
0FC0001FC0
0FC0001FC0
1FC0001F80
1FC0003F80
1F80003F80
1F80007F00
1F80007F00
3F8000FE00
3F0001FE00
3F0003FC00
3F0007F800
7F000FF800
7E003FF000
7E01FFE000
7FFFFFC000
FFFFFF0000
FFFFFE0000
FFFFF80000
3FFFC00000
03F8000000
ENDCHAR
STARTCHAR 0063
ENCODING 99
SWIDTH 488 0
DWIDTH 38 0
BBX 33 38 6 -1
BITMAP
00003FFC00
0003FFFF80
000FFFFF80
003FFFFF80
007FFFFF80
00FFFC7F00
01FF800300
03FE000000
07F8000000
0FF0000000
1FE0000000
1FC0000000
3F80000000
3F80000000
7F00000000
7F00000000
7E00000000
FE00000000
FE00000000
FC00000000
FC00000000
FC00000000
FC00000000
FC00000000
FC00000000
FC00000000
FC00000000
FE00000000
FE00000000
FF00000000
7F80002000
7FE001F000
3FFFFFF000
1FFFFFF000
0FFFFFF000
07FFFFF000
01FFFF8000
001FFC0000
ENDCHAR
STARTCHAR 0064
ENCODING 100
SWIDTH 488 0
DWIDTH 38 0
BBX 39 55 6 -1
BITMAP
0000000006
00000000FE
00000000FE
00000000FC
00000000FC
00000001FC
00000001FC
00000001F8
00000001F8
00000003F8
00000003F8
00000003F0
00000003F0
00000003F0
00000007F0
00000007E0
00000007E0
00000FFFE0
0000FFFFE0
0003FFFFC0
000FFFFFC0
003FFFFFC0
007FFFFFC0
00FFC01F80
01FF001F80
03FE001F80
07F8001F80
0FF0003F80
0FE0003F00
1FC0003F00
1FC0003F00
3F80007F00
3F80007E00
3F00007E00
7F00007E00
7E0000FE00
7E0000FC00
7E0000FC00
FE0000FC00
FE0001FC00
FE0001F800
FE0001F800
FE0001F800
FE0001F800
FE0003F800
7E0003F000
7F0007F000
7F000FF000
7F803FF000
3FFBFFF800
1FFFFFF800
1FFFFDF800
0FFFF1F800
03FFE0FC00
007F000000
ENDCHAR
STARTCHAR 0065
ENCODING 101
SWIDTH 488 0
DWIDTH 38 0
BBX 33 38 6 -1
BITMAP
00007FC000
0003FFF800
001FFFFC00
003FFFFE00
00FFFFFF00
01FFF7FF00
03FF007F80
07FC003F80
0FF8001F80
0FF0001F80
1FE0001F80
1FC0003F80
3F80003F80
3F00007F00
7F00007F00
7E0001FE00
7E0007FE00
FE00FFFC00
FFFFFFF000
FFFFFFE000
FFFFFF8000
FFFFFC0000
FFFE000000
FC00000000
FC00000000
FC00000000
FC00000000
FC00000000
FE00000000
FF00000000
7F80002000
7FE001F000
3FFFFFF000
1FFFFFF000
0FFFFFF000
07FFFFF000
01FFFF8000
003FF80000
ENDCHAR
STARTCHAR 0066
ENCODING 102
SWIDTH 488 0
DWIDTH 38 0
BBX 45 67 1 -13
BITMAP
000000007FC0
00000003FFF8
0000000FFFF8
0000001FFFF8
0000003FFFF0
0000007FFFF0
000000FF8020
000000FE0000
000001FC0000
000001F80000
000003F80000
000003F80000
000003F00000
000007F00000
000007F00000
000007E00000
000007E00000
000007E00000
0007FFFFFF80
000FFFFFFF80
000FFFFFFF80
000FFFFFFF80
000FFFFFFF00
00001FC00000
00001FC00000
00001F800000
00001F800000
00003F800000
00003F800000
00003F000000
00003F000000
00003F000000
00007F000000
00007F000000
00007E000000
00007E000000
0000FE000000
0000FE000000
0000FC000000
0000FC000000
0000FC000000
0001FC000000
0001FC000000
0001F8000000
0001F8000000
0001F8000000
0003F8000000
0003F8000000
0003F0000000
0003F0000000
0003F0000000
0007F0000000
0007E0000000
0007E0000000
0007E0000000
000FE0000000
000FC0000000
001FC0000000
001FC0000000
003F80000000
007F80000000
7FFF00000000
7FFF00000000
FFFE00000000
FFFC00000000
FFF000000000
7FC000000000
ENDCHAR
STARTCHAR 0067
ENCODING 103
SWIDTH 488 0
DWIDTH 38 0
BBX 39 50 2 -13
BITMAP
0000007FE0
000007FFFC
00003FFFFE
0000FFFFFE
0001FFFFFE
0007FFFFFC
000FFE00FC
001FF001FC
003FE001FC
007FC001F8
007F8001F8
00FF0003F8
00FE0003F8
01FC0003F0
01F80003F0
03F80003F0
03F80007F0
03F00007E0
07F00007E0
07F00007E0
07E0000FE0
07E0000FC0
07E0000FC0
07E0000FC0
07E0001FC0
07E0001F80
07E0001F80
07F0003F80
07F0007F80
07FC03FF00
03FFFFFF00
01FFFFFF00
01FFFFFF00
007FFFFE00
003FFC7E00
0000807E00
000000FE00
000000FC00
000000FC00
000001FC00
000003F800
000007F800
20000FF000
78003FE000
7FC3FFE000
FFFFFFC000
FFFFFF8000
FFFFFE0000
3FFFF80000
07FF800000
ENDCHAR
STARTCHAR 0068
ENCODING 104
SWIDTH 488 0
DWIDTH 38 0
BBX 33 54 4 0
BITMAP
0000E00000
000FC00000
000FC00000
000FC00000
001FC00000
001FC00000
001F800000
001F800000
003F800000
003F800000
003F000000
003F000000
007F000000
007F000000
007E000000
007E000000
00FE000000
00FE3F8000
00FFFFF000
00FFFFF800
01FFFFFC00
01FFFFFE00
01FFFFFF00
01FC00FF00
01F8007F80
03F8003F80
03F8003F80
03F0003F80
03F0001F80
07F0001F80
07F0001F80
07E0003F80
07E0003F80
0FE0003F00
0FE0003F00
0FC0003F00
0FC0007F00
1FC0007F00
1FC0007E00
1F80007E00
1F8000FE00
3F8000FE00
3F8000FC00
3F0000FC00
3F0001FC00
3F0001FC00
7F0001F800
7E0001F800
7E0003F800
7E0003F800
FE0003F000
FC0003F000
FC0007F000
FC0007F000
ENDCHAR
STARTCHAR 0069
ENCODING 105
SWIDTH 488 0
DWIDTH 38 0
BBX 22 52 11 0
BITMAP
0007C0
000FE0
001FF0
003FF0
003FF0
003FF0
003FF0
003FE0
001FE0
000F80
000000
000000
000000
000000
000000
000000
7FFF80
FFFF80
FFFF80
FFFF80
FFFF00
003F00
003F00
007F00
007E00
007E00
007E00
00FE00
00FE00
00FC00
00FC00
01FC00
01FC00
01F800
01F800
03F800
03F800
03F000
03F000
03F000
07F000
07F000
07F000
07F000
03F000
03F800
03FE0C
03FFFC
01FFFC
00FFFC
007FFC
001FFC
ENDCHAR
STARTCHAR 006A
ENCODING 106
SWIDTH 488 0
DWIDTH 38 0
BBX 37 65 2 -13
BITMAP
00000003E0
0000000FF0
0000001FF0
0000001FF8
0000001FF8
0000001FF8
0000001FF8
0000001FF0
0000001FE0
0000000FC0
0000000000
0000000000
0000000000
0000000000
0000000000
0000000000
0003FFFFE0
0003FFFFE0
0007FFFFE0
0007FFFFC0
0007FFFFC0
0000001FC0
0000001FC0
0000001F80
0000001F80
0000003F80
0000003F80
0000003F00
0000003F00
0000007F00
0000007F00
0000007E00
0000007E00
0000007E00
000000FE00
000000FC00
000000FC00
000000FC00
000001FC00
000001F800
000001F800
000001F800
000003F800
000003F000
000003F000
000003F000
000007F000
000007F000
000007E000
000007E000
00000FE000
00000FE000
00000FC000
00000FC000
00001FC000
00001F8000
00003F8000
20007F0000
7800FF0000
7FDFFE0000
FFFFFC0000
FFFFF80000
FFFFF00000
3FFFC00000
07FE000000
ENDCHAR
STARTCHAR 006B
ENCODING 107
SWIDTH 488 0
DWIDTH 38 0
BBX 37 54 5 0
BITMAP
0000600000
000FE00000
000FE00000
000FC00000
000FC00000
000FC00000
001FC00000
001F800000
001F800000
001F800000
003F800000
003F800000
003F000000
003F000000
007F000000
007F000000
007E000000
007E000000
00FE0007F8
00FE000FF0
00FC001FE0
00FC003FC0
01FC00FF00
01FC01FE00
01F803FC00
01F807F800
03F81FF000
03F83FC000
03F07F8000
03F1FF0000
03F3FE0000
07F7F80000
07FFF00000
07FFE00000
07FFC00000
0FFFE00000
0FFFF00000
0FCFF00000
0FC7F80000
1FC3FC0000
1FC1FE0000
1F80FF0000
1F807F0000
3F803F8000
3F803FC000
3F001FC000
3F000FE000
7F000FE000
7F0007F000
7E0007F800
7E0003F800
FE0003F800
FE0001FC00
FC0001FC00
ENDCHAR
STARTCHAR 006C
ENCODING 108
SWIDTH 488 0
DWIDTH 38 0
BBX 20 55 14 -1
BITMAP
7FFFC0
7FFFC0
7FFFC0
7FFF80
FFFF80
FFFF80
003F80
003F00
003F00
007F00
007F00
007E00
007E00
007E00
00FE00
00FC00
00FC00
00FC00
01FC00
01F800
01F800
01F800
03F800
03F800
03F000
03F000
07F000
07F000
07E000
07E000
0FE000
0FE000
0FC000
0FC000
1FC000
1FC000
1F8000
1F8000
1F8000
3F8000
3F0000
3F0000
3F0000
3F0000
3F0000
7F0000
7F0000
3F0000
3F8030
3FFFF0
3FFFF0
1FFFF0
0FFFF0
07FFE0
00FF00
ENDCHAR
STARTCHAR 006D
ENCODING 109
SWIDTH 488 0
DWIDTH 38 0
BBX 37 37 3 0
BITMAP
0007F00F80
007FFC7FE0
00FFFEFFF0
01FFFFFFF8
01FFFFFFF8
01FEFFF7F8
01F83FC1F8
03F01F81F8
03F01F80F8
03F01F81F8
03F01F01F8
03E03F01F8
07E03F01F8
07E03F01F0
07E03E03F0
07C07E03F0
0FC07E03F0
0FC07E03F0
0FC07C07E0
0F80FC07E0
1F80FC07E0
1F80FC07E0
1F80F807C0
1F00000FC0
3F00000FC0
3F00000FC0
3F00000F80
3E00001F80
7E00001F80
7E00001F80
7E00001F00
7E00003F00
FC00003F00
FC00003F00
FC00003F00
FC00007E00
F800007E00
ENDCHAR
STARTCHAR 006E
ENCODING 110
SWIDTH 488 0
DWIDTH 38 0
BBX 33 37 5 0
BITMAP
00007F8000
001FFFF000
00FFFFFC00
00FFFFFE00
00FFFFFF00
01FFFFFF00
01FC00FF80
01F8007F80
01F8003F80
03F8001F80
03F8001F80
03F0001F80
03F0001F80
03F0001F80
07F0001F80
07E0001F80
07E0003F80
07E0003F80
0FE0003F00
0FC0003F00
0FC0007F00
0FC0007F00
1FC0007E00
1FC0007E00
1F80007E00
1F8000FE00
3F8000FC00
3F8000FC00
3F0000FC00
3F0001FC00
7F0001F800
7F0001F800
7E0001F800
7E0003F800
FE0003F800
FE0003F000
FC0003F000
ENDCHAR
STARTCHAR 006F
ENCODING 111
SWIDTH 488 0
DWIDTH 38 0
BBX 33 38 6 -1
BITMAP
00007F8000
0007FFF000
001FFFF800
003FFFFC00
007FFFFE00
00FFFFFF00
01FF00FF00
03FC007F80
07F8003F80
0FF0003F80
0FE0001F80
1FE0001F80
1FC0001F80
3F80001F80
3F80001F80
3F00001F80
7F00001F80
7F00003F80
7E00003F80
7E00003F80
7E00003F00
FE00007F00
FE00007F00
FE00007E00
FE0000FE00
FE0000FE00
FE0001FC00
FE0003FC00
FE0007F800
7F000FF000
7F801FF000
7FC07FE000
3FFFFFC000
1FFFFF8000
1FFFFE0000
07FFFC0000
03FFF00000
007F000000
ENDCHAR
STARTCHAR 0070
ENCODING 112
SWIDTH 488 0
DWIDTH 38 0
BBX 38 50 1 -13
BITMAP
00001FF800
0003FFFF00
000FFFFFC0
001FFFFFE0
001FFFFFF0
001FFFFFF8
001F800FF8
001F8003F8
003F8001FC
003F8001FC
003F0000FC
003F0000FC
007F0000FC
007F0000FC
007E0000FC
007E0000FC
00FE0000FC
00FE0000FC
00FC0001FC
00FC0001FC
01FC0001F8
01FC0003F8
01F80003F8
01F80007F0
03F80007F0
03F8000FE0
03F0001FE0
03F0003FC0
07F0007FC0
07F000FF80
07E003FF00
07E01FFE00
07FFFFFC00
0FFFFFF800
0FFFFFE000
0FFFFF8000
0FFFFE0000
1FDFC00000
1F80000000
1F80000000
1F80000000
3F80000000
3F80000000
3F00000000
3F00000000
7F00000000
7F00000000
7E00000000
7E00000000
FE00000000
ENDCHAR
STARTCHAR 0071
ENCODING 113
SWIDTH 488 0
DWIDTH 38 0
BBX 35 50 6 -13
BITMAP
000007FC00
0000FFFFC0
0003FFFFE0
000FFFFFE0
003FFFFFC0
007FFFFFC0
00FFC01FC0
01FF001FC0
03FC001F80
07F8003F80
0FF0003F80
0FE0003F80
1FC0003F00
1FC0007F00
3F80007F00
3F80007F00
3F00007E00
7F00007E00
7E0000FE00
7E0000FE00
7E0000FC00
FE0000FC00
FE0001FC00
FE0001FC00
FE0001F800
FE0001F800
FE0003F800
FE0003F800
7E0003F000
7F0003F000
7F000FF000
7FC03FF000
3FFBFFE000
1FFFFFE000
1FFFFFE000
0FFFFFE000
03FFEFC000
007F0FC000
00001FC000
00001FC000
00001F8000
00001F8000
00003F8000
00003F8000
00003F0000
00003F0000
00007F0000
00007F0000
00007E0000
00007E0000
ENDCHAR
STARTCHAR 0072
ENCODING 114
SWIDTH 488 0
DWIDTH 38 0
BBX 33 37 7 0
BITMAP
00001FFC00
0007FFFF80
007FFFFF80
00FFFFFF80
00FFFFFF00
00FFFFFF00
01FF000200
01F8000000
01F8000000
01F8000000
03F8000000
03F0000000
03F0000000
03F0000000
07F0000000
07E0000000
07E0000000
07E0000000
0FE0000000
0FC0000000
0FC0000000
0FC0000000
1FC0000000
1FC0000000
1F80000000
1F80000000
3F80000000
3F80000000
3F00000000
3F00000000
7F00000000
7F00000000
7E00000000
7E00000000
7E00000000
FE00000000
FC00000000
ENDCHAR
STARTCHAR 0073
ENCODING 115
SWIDTH 488 0
DWIDTH 38 0
BBX 33 38 6 -1
BITMAP
00007FF000
0003FFFF00
000FFFFF80
001FFFFF00
003FFFFF00
007FFFFE00
00FF000E00
00FE000000
01FC000000
01F8000000
01F8000000
01F8000000
01FC000000
01FE000000
00FF000000
00FFC00000
007FF00000
003FFC0000
001FFF0000
0007FF8000
0001FFC000
00007FE000
00001FF000
00000FF000
000007F000
000003F000
000003F000
000003F000
000003F000
000007F000
30000FF000
3E001FE000
7FFFFFE000
7FFFFFC000
FFFFFF8000
7FFFFE0000
1FFFF80000
01FFC00000
ENDCHAR
STARTCHAR 0074
ENCODING 116
SWIDTH 488 0
DWIDTH 38 0
BBX 29 48 11 -1
BITMAP
0007C000
001F8000
001F8000
003F8000
003F8000
003F0000
003F0000
007F0000
007F0000
007E0000
007E0000
7FFFFFF8
7FFFFFF8
FFFFFFF0
FFFFFFF0
FFFFFFF0
01FC0000
01F80000
01F80000
01F80000
03F80000
03F80000
03F00000
03F00000
07F00000
07F00000
07E00000
07E00000
0FE00000
0FE00000
0FC00000
0FC00000
1FC00000
1FC00000
1F800000
1F800000
1F800000
1F800000
1F800000
1F800000
1FC00000
1FE00E00
1FFFFE00
0FFFFE00
0FFFFE00
07FFFE00
01FFFC00
007F8000
ENDCHAR
STARTCHAR 0075
ENCODING 117
SWIDTH 488 0
DWIDTH 38 0
BBX 33 37 7 -1
BITMAP
07E0001F80
07E0003F80
0FE0003F00
0FE0003F00
0FC0003F00
0FC0007F00
1FC0007F00
1FC0007E00
1F80007E00
1F8000FE00
3F8000FE00
3F8000FC00
3F0000FC00
3F0001FC00
7F0001FC00
7F0001F800
7E0001F800
7E0003F800
FE0003F800
FE0003F000
FC0003F000
FC0007F000
FC0007F000
FC0007E000
FC0007E000
FC0007E000
FC0007E000
FC000FE000
FC001FE000
FE003FE000
FF00FFE000
7FFFFFE000
7FFFFFE000
3FFFF7E000
1FFFC3F000
0FFF83F000
01F8000000
ENDCHAR
STARTCHAR 0076
ENCODING 118
SWIDTH 488 0
DWIDTH 38 0
BBX 31 36 10 0
BITMAP
FE00007E
FE0000FE
FE0000FE
7E0000FC
7E0001FC
7E0001F8
7E0003F8
7E0003F8
7E0003F0
7E0007F0
7E0007E0
7F000FE0
7F000FC0
7F001FC0
7F001F80
7F003F80
3F003F00
3F007E00
3F00FE00
3F00FC00
3F81FC00
3F81F800
3F83F800
1F87F000
1F87E000
1F8FE000
1F9FC000
1FDF8000
1FFF8000
0FFF0000
0FFE0000
0FFC0000
0FFC0000
0FF80000
07F00000
07E00000
ENDCHAR
STARTCHAR 0077
ENCODING 119
SWIDTH 488 0
DWIDTH 38 0
BBX 39 36 6 0
BITMAP
1F8000007E
1F800000FC
1F800000FC
1F000000FC
3F000001F8
3F000001F8
3F000001F8
3F000001F0
3F000003F0
3F00F803F0
3F00F803E0
3E01F807E0
3E01FC07C0
7E03FC0FC0
7E03FC0FC0
7E07FC0F80
7E07FC1F80
7E0FFC1F80
7E1F7C1F00
7E1F7C3F00
7C3E7C3E00
7C3E3C7E00
7C7C3C7E00
7CF83E7C00
7CF83EFC00
7DF03EF800
7DF03FF800
FFE03FF000
FFC03FF000
FFC03FF000
FF801FE000
FF801FE000
FF001FC000
FE001FC000
FE001F8000
FC001F8000
ENDCHAR
STARTCHAR 0078
ENCODING 120
SWIDTH 488 0
DWIDTH 38 0
BBX 40 36 2 0
BITMAP
007F00007F
007F8000FE
003F8001FC
003F8003F8
001FC007F0
001FC007E0
000FE00FE0
000FE01FC0
0007F03F80
0007F07F00
0003F8FE00
0003F9FC00
0001FFF800
0000FFF000
0000FFF000
00007FE000
00007FC000
00007F8000
0000FF8000
0001FFC000
0003FFC000
0003FFE000
0007FFE000
000FE7F000
001FC7F000
003F83F800
007F03F800
00FE01FC00
01FC01FC00
03F800FC00
07F000FE00
0FE000FE00
1FC0007F00
3F80007F00
7F00003F00
FE00003F80
ENDCHAR
STARTCHAR 0079
ENCODING 121
SWIDTH 488 0
DWIDTH 38 0
BBX 43 49 -1 -13
BITMAP
000FC0000FE0
000FC0000FC0
000FC0001FC0
000FC0001FC0
000FC0001F80
000FE0003F80
000FE0003F80
000FE0003F00
000FE0007F00
000FE0007E00
0007E000FE00
0007E000FE00
0007E000FC00
0007F001FC00
0007F001F800
0007F003F800
0003F003F000
0003F003F000
0003F007F000
0003F807E000
0003F80FE000
0001F80FC000
0001F81FC000
0001F81F8000
0001FC3F8000
0001FC3F0000
0000FC7E0000
0000FC7E0000
0000FEFC0000
00007FFC0000
00007FF80000
00007FF80000
00007FF00000
00003FE00000
00003FE00000
00003FC00000
00003F800000
00003F000000
00007F000000
0000FE000000
0001FC000000
0003F8000000
000FF0000000
7DFFE0000000
7FFFC0000000
FFFF80000000
FFFE00000000
FFF800000000
3FC000000000
ENDCHAR
STARTCHAR 007A
ENCODING 122
SWIDTH 488 0
DWIDTH 38 0
BBX 34 36 5 0
BITMAP
007FFFFFC0
007FFFFFC0
007FFFFFC0
00FFFFFFC0
00FFFFFF80
0000007F00
000000FE00
000001FC00
000007F800
00000FF000
00001FE000
00003FC000
00007F8000
0000FF0000
0001FE0000
0003FC0000
0007F80000
0007F00000
000FE00000
001FC00000
003F800000
007F000000
00FE000000
01FC000000
03FC000000
07F8000000
07F0000000
0FE0000000
1FC0000000
3F80000000
7F00000000
7FFFFFF000
FFFFFFE000
FFFFFFE000
FFFFFFE000
FFFFFFE000
ENDCHAR
STARTCHAR 007B
ENCODING 123
SWIDTH 488 0
DWIDTH 38 0
BBX 37 67 7 -13
BITMAP
000000FFF8
000007FFF8
00000FFFF8
00001FFFF0
00003FFFF0
00007F8000
00007E0000
0000FE0000
0000FC0000
0000FC0000
0001F80000
0001F80000
0001F80000
0001F80000
0003F00000
0003F00000
0003F00000
0003F00000
0007E00000
0007E00000
0007E00000
0007E00000
000FC00000
000FC00000
000FC00000
000F800000
001F800000
003F800000
003F000000
00FF000000
03FE000000
7FFC000000
7FF8000000
FFE0000000
FFF0000000
FFF8000000
03F8000000
01FC000000
00FC000000
00FC000000
00FC000000
00FC000000
00FC000000
01F8000000
01F8000000
01F8000000
01F8000000
01F0000000
03F0000000
03F0000000
03F0000000
03E0000000
07E0000000
07E0000000
07E0000000
07E0000000
0FC0000000
0FC0000000
0FC0000000
0FC0000000
0FE0000000
0FF8000000
07FFFE0000
07FFFC0000
03FFFC0000
00FFFC0000
001FF80000
ENDCHAR
STARTCHAR 007C
ENCODING 124
SWIDTH 488 0
DWIDTH 38 0
BBX 22 67 12 -13
BITMAP
0000FC
0000FC
0001F8
0001F8
0001F8
0001F8
0003F8
0003F0
0003F0
0003F0
0007F0
0007E0
0007E0
0007E0
000FE0
000FC0
000FC0
000FC0
000FC0
001F80
001F80
001F80
001F80
003F00
003F00
003F00
003F00
007E00
007E00
007E00
007E00
00FC00
00FC00
00FC00
00FC00
01FC00
01F800
01F800
01F800
03F800
03F000
03F000
03F000
03F000
07E000
07E000
07E000
07E000
0FC000
0FC000
0FC000
0FC000
1F8000
1F8000
1F8000
1F8000
3F0000
3F0000
3F0000
3F0000
7F0000
7E0000
7E0000
7E0000
FE0000
FC0000
FC0000
ENDCHAR
STARTCHAR 007D
ENCODING 125
SWIDTH 488 0
DWIDTH 38 0
BBX 37 67 0 -13
BITMAP
0000FFF800
0000FFFE00
0001FFFF00
0001FFFF80
0001FFFF80
0000003F80
0000001F80
0000001F80
0000001F80
0000001F80
0000001F80
0000001F80
0000001F80
0000003F00
0000003F00
0000003F00
0000003F00
0000007E00
0000007E00
0000007E00
0000007E00
000000FC00
000000FC00
000000FC00
000000FC00
000000FC00
000000FC00
000000FC00
000000FC00
000000FE00
000000FF80
0000007FF8
0000003FF8
0000003FF8
000000FFF8
000001FFF0
000003FC00
000007F000
000007E000
000007E000
00000FC000
00000FC000
00001F8000
00001F8000
00001F8000
00001F8000
00003F0000
00003F0000
00003F0000
00003F0000
00003E0000
00007E0000
00007E0000
00007E0000
00007E0000
0000FC0000
0000FC0000
0000FC0000
0001F80000
0001F80000
0007F00000
001FF00000
7FFFE00000
7FFFC00000
7FFF800000
FFFE000000
FFE0000000
ENDCHAR
STARTCHAR 007E
ENCODING 126
SWIDTH 488 0
DWIDTH 38 0
BBX 34 11 6 15
BITMAP
01FE000200
03FF0007C0
0FFFC007C0
1FFFE00F80
3FFFF81F80
3FFFFE7F00
7E03FFFF00
7C01FFFE00
FC00FFFC00
F8003FF800
10001FE000
ENDCHAR
STARTCHAR 00A0
ENCODING 160
SWIDTH 488 0
DWIDTH 38 0
BBX 0 0 0 0
BITMAP
ENDCHAR
STARTCHAR 00A1
ENCODING 161
SWIDTH 488 0
DWIDTH 38 0
BBX 19 49 11 -13
BITMAP
000F80
003FC0
003FE0
007FE0
007FE0
007FE0
007FE0
007FC0
003FC0
001F80
000000
000000
000000
000000
000000
000000
000000
007800
007800
00F800
00F800
00F800
01F800
01F800
01F800
03F000
03F000
03F000
07F000
07F000
07E000
0FE000
0FE000
0FE000
0FE000
1FC000
1FC000
1FC000
1FC000
3F8000
3F8000
3F8000
3F8000
3F0000
7F0000
7F0000
7F0000
7F0000
FE0000
ENDCHAR
STARTCHAR 00A2
ENCODING 162
SWIDTH 488 0
DWIDTH 38 0
BBX 33 56 7 -8
BITMAP
000007E000
000007E000
000007E000
000007C000
000007C000
00000FC000
00000FC000
00000F8000
00000F8000
00001F8000
00007FFE00
0003FFFF80
000FFFFF00
003FFFFF00
007FFFFE00
00FFE00E00
01FF800000
03FE000000
07F8000000
0FF0000000
0FE0000000
1FC0000000
1FC0000000
3F80000000
3F00000000
7F00000000
7F00000000
7E00000000
7E00000000
7E00000000
FE00000000
FE00000000
FE00000000
FE00000000
FE00000000
7E00000000
7F00000000
7F00000000
7FC0000000
3FE001C000
3FFFFFC000
1FFFFFE000
0FFFFFE000
03FFFFE000
01FFFF0000
003FF00000
003F000000
003F000000
003E000000
003E000000
007E000000
007E000000
007E000000
007C000000
00FC000000
00FC000000
ENDCHAR
STARTCHAR 00A3
ENCODING 163
SWIDTH 488 0
DWIDTH 38 0
BBX 37 49 7 0
BITMAP
000003FF80
00001FFFF0
00007FFFF8
0000FFFFF0
0001FFFFF0
0003FFFFE0
0003FC00E0
0007F80000
000FF00000
000FE00000
000FC00000
001FC00000
001F800000
003F800000
003F800000
003F000000
003F000000
007F000000
007F000000
007E000000
007E000000
00FE000000
00FE000000
7FFFFFF000
7FFFFFE000
7FFFFFE000
7FFFFFE000
FFFFFFE000
01F8000000
03F8000000
03F8000000
03F0000000
03F0000000
07F0000000
07F0000000
07E0000000
0FE0000000
0FE0000000
0FC0000000
1FC0000000
1FC0000000
1F80000000
3F80000000
3FFFFFF800
3FFFFFF000
7FFFFFF000
7FFFFFF000
FFFFFFF000
FFFFFFE000
ENDCHAR
STARTCHAR 00A4
ENCODING 164
SWIDTH 488 0
DWIDTH 38 0
BBX 33 32 7 9
BITMAP
1800000C00
3C00001E00
7E00003F00
FF0FFC7F80
7FFFFFFF00
3FFFFFFE00
1FFFFFFC00
0FFE1FF800
07F007F000
07E003F800
0FC001F800
0F8000F800
0F8000FC00
1F80007C00
1F00007C00
1F00007C00
1F00007C00
1F80007C00
1F8000FC00
0F8000FC00
0FC000F800
0FC001F800
07E003F000
07F807F000
0FFF7FF800
1FFFFFFC00
3FFFFFFE00
7FBFFFFF00
FF0FF87F80
7E00003F00
3C00001E00
1800000C00
ENDCHAR
STARTCHAR 00A5
ENCODING 165
SWIDTH 488 0
DWIDTH 38 0
BBX 41 48 6 0
BITMAP
03F000003F80
03F800003F80
03F800007F00
03F80000FE00
01F80001FE00
01F80001FC00
01FC0003F800
00FC0007F000
00FC0007F000
00FE000FE000
007E001FC000
007E003F8000
007F003F0000
007F007F0000
003F00FE0000
003F81FC0000
003F83F80000
001F83F00000
001FC7E00000
000FCFE00000
000FDFC00000
000FFF800000
0007FF000000
0007FE000000
0FFFFFFF0000
1FFFFFFF0000
1FFFFFFF0000
1FFFFFFF0000
1FFFFFFE0000
0003F0000000
0007F0000000
0007F0000000
0007E0000000
0007E0000000
000FE0000000
000FE0000000
7FFFFFFC0000
FFFFFFF80000
FFFFFFF80000
FFFFFFF80000
FFFFFFF80000
001F80000000
001F80000000
003F80000000
003F00000000
003F00000000
003F00000000
007F00000000
ENDCHAR
STARTCHAR 00A6
ENCODING 166
SWIDTH 488 0
DWIDTH 38 0
BBX 22 67 12 -13
BITMAP
0000FC
0000FC
0001F8
0001F8
0001F8
0001F8
0003F0
0003F0
0003F0
0003F0
0007F0
0007E0
0007E0
0007E0
000FE0
000FC0
000FC0
000FC0
000FC0
001F80
001F80
001F80
001F80
003F00
003F00
003F00
000000
000000
000000
000000
000000
000000
000000
000000
000000
000000
000000
000000
000000
000000
03F000
03F000
03F000
07F000
07E000
07E000
07E000
07E000
0FC000
0FC000
0FC000
0FC000
1F8000
1F8000
1F8000
1F8000
3F0000
3F0000
3F0000
3F0000
7F0000
7E0000
7E0000
7E0000
FE0000
FC0000
FC0000
ENDCHAR
STARTCHAR 00A7
ENCODING 167
SWIDTH 488 0
DWIDTH 38 0
BBX 37 57 4 -8
BITMAP
000007FF80
00003FFFF0
0000FFFFF8
0001FFFFF0
0003FFFFF0
0007FC01E0
0007F00060
000FE00000
000FC00000
000FC00000
000FC00000
000FC00000
000FC00000
000FE00000
000FF00000
000FFC0000
0007FF8000
0007FFE000
000FFFF800
003FFFFC00
007F9FFE00
00FE07FF00
01FC01FF00
01F8007F80
03F0003F80
03F0001F80
07E0001F80
07E0001F80
07E0001F80
07E0003F80
07F0003F00
07F0003F00
07F8007E00
03FE00FC00
03FFC3FC00
01FFF7F800
00FFFFE000
003FFFC000
000FFF8000
0003FFC000
00007FC000
00001FE000
00000FE000
00000FE000
000007E000
000007E000
000007E000
00000FE000
00000FE000
20001FC000
7C007FC000
7FFFFF8000
FFFFFF0000
FFFFFE0000
FFFFF80000
1FFFE00000
0030000000
ENDCHAR
STARTCHAR 00A8
ENCODING 168
SWIDTH 488 0
DWIDTH 38 0
BBX 21 8 19 43
BITMAP
3C01E0
7E03F0
FF07F8
FF07F8
FF07F8
FE07F8
FE07F0
7C03E0
ENDCHAR
STARTCHAR 00A9
ENCODING 169
SWIDTH 488 0
DWIDTH 38 0
BBX 33 38 6 -1
BITMAP
0007F00000
003FFE0000
00FFFF8000
03FFFFE000
07FC1FF000
0FE003F800
1FC001F800
1F0000FC00
3E00007E00
3E01F03E00
7C0FFC1F00
7C1FFC1F00
F83FF80F00
F87FF80F80
F07E000F80
F0FC000F80
F0F8000780
F0F8000780
F0F8000780
F0F8000780
F0F8000780
F0F8000780
F0FC000F80
F07E000F80
F87FF80F80
F83FFC0F00
7C1FFC1F00
7C0FFC1F00
7E03F03E00
3E00007E00
1F0000FC00
1FC001F800
0FE007F000
07FE3FE000
03FFFFC000
00FFFF8000
003FFE0000
0007F00000
ENDCHAR
STARTCHAR 00AA
ENCODING 170
SWIDTH 488 0
DWIDTH 38 0
BBX 24 26 14 23
BITMAP
000FFC
003FFF
00FFFF
03FFFF
07FC3E
0FE03E
1FC03E
1F807C
3F007C
7E007C
7C007C
7C00F8
FC00F8
F800F8
F800F8
F801F0
F801F0
F801F0
F801F0
FC03F0
FC07F0
7F0FF0
7FFFF0
3FFFF0
1FFDF8
07F0E0
ENDCHAR
STARTCHAR 00AB
ENCODING 171
SWIDTH 488 0
DWIDTH 38 0
BBX 30 27 8 6
BITMAP
000C0030
001E0078
001F007C
003F00FC
007E01F8
00FC03F0
01F807E0
03F80FE0
07F01FC0
0FE03F80
0FC03F00
1F807E00
3F80FE00
7F01FC00
FE03F800
7E01F800
7F01FC00
3F00FC00
3F00FC00
1F807E00
1F807E00
0F803E00
0FC03F00
07C01F00
07C01F00
03E00F80
03800E00
ENDCHAR
STARTCHAR 00AC
ENCODING 172
SWIDTH 488 0
DWIDTH 38 0
BBX 33 24 7 3
BITMAP
7FFFFFFF80
7FFFFFFF80
7FFFFFFF80
7FFFFFFF00
FFFFFFFF00
0000003F00
0000003F00
0000003F00
0000003E00
0000007E00
0000007E00
0000007E00
0000007C00
0000007C00
000000FC00
000000FC00
000000F800
000000F800
000001F800
000001F800
000001F000
000001F000
000003F000
000003F000
ENDCHAR
STARTCHAR 00AD
ENCODING 173
SWIDTH 488 0
DWIDTH 38 0
BBX 18 6 14 17
BITMAP
7FFFC0
7FFFC0
7FFFC0
FFFF80
FFFF80
FFFF80
ENDCHAR
STARTCHAR 00AE
ENCODING 174
SWIDTH 488 0
DWIDTH 38 0
BBX 33 38 6 -1
BITMAP
0007F00000
003FFE0000
00FFFF8000
03FFFFE000
07FC1FF000
0FE003F800
1FC001F800
1F0000FC00
3E00007E00
3E0F803E00
7C3FF81F00
7C3FFC1F00
F83FFE0F00
F83C3E0F80
F03C1F0F80
F03C0F0F80
F03C0F0780
F03C1F0780
F03CFE0780
F03FFE0780
F03FFC0780
F03FF80780
F03C780F80
F03C7C0F80
F83C3E0F80
F83C1E0F00
7C3C1F1F00
7C3C0F1F00
7E00003E00
3E00007E00
1F0000FC00
1FC001F800
0FE007F000
07FE3FE000
03FFFFC000
00FFFF8000
003FFE0000
0007F00000
ENDCHAR
STARTCHAR 00AF
ENCODING 175
SWIDTH 488 0
DWIDTH 38 0
BBX 21 5 18 44
BITMAP
7FFFF8
7FFFF0
7FFFF0
7FFFF0
FFFFF0
ENDCHAR
STARTCHAR 00B0
ENCODING 176
SWIDTH 488 0
DWIDTH 38 0
BBX 20 19 17 35
BITMAP
01F800
07FE00
1FFF80
3FFFC0
3FFFC0
7E07E0
7C03E0
7801F0
F801F0
F801F0
F801F0
F801F0
7C03E0
7C03E0
7F0FE0
3FFFC0
1FFF80
0FFF00
03FC00
ENDCHAR
STARTCHAR 00B1
ENCODING 177
SWIDTH 488 0
DWIDTH 38 0
BBX 38 43 3 0
BITMAP
000001F000
000003F000
000003F000
000003F000
000003E000
000007E000
000007E000
000007E000
000007E000
00000FC000
00000FC000
00000FC000
00000FC000
00001F8000
03FFFFFFFC
03FFFFFFF8
03FFFFFFF8
03FFFFFFF8
03FFFFFFF8
00003F0000
00003F0000
00007E0000
00007E0000
00007E0000
00007E0000
00007C0000
0000FC0000
0000FC0000
0000FC0000
0000F80000
0001F80000
0001F80000
0001F80000
0000000000
0000000000
0000000000
0000000000
7FFFFFFF00
7FFFFFFF00
FFFFFFFF00
FFFFFFFE00
FFFFFFFE00
FFFFFFFE00
ENDCHAR
STARTCHAR 00B2
ENCODING 178
SWIDTH 488 0
DWIDTH 38 0
BBX 22 27 14 22
BITMAP
003FC0
01FFF0
03FFF8
07FFF8
07C0FC
03007C
02007C
00007C
00007C
0000F8
0001F8
0003F0
0007E0
001FC0
003F80
00FF00
01FC00
03F800
0FE000
1FC000
1F0000
3E0000
3E0000
7FFFE0
7FFFE0
7FFFE0
FFFFE0
ENDCHAR
STARTCHAR 00B3
ENCODING 179
SWIDTH 488 0
DWIDTH 38 0
BBX 22 28 14 21
BITMAP
003FE0
01FFF8
03FFFC
01FFFC
01C0FC
01007C
00003C
00003C
00007C
0000F8
0003F0
007FE0
007FC0
00FFE0
00FFF0
0003F0
0001F8
0000F8
0000F8
0000F8
0000F8
0001F0
2007F0
7FFFE0
7FFFC0
FFFF80
3FFE00
07F000
ENDCHAR
STARTCHAR 00B4
ENCODING 180
SWIDTH 488 0
DWIDTH 38 0
BBX 14 14 24 40
BITMAP
0020
0070
00F0
01F8
03FC
07FC
0FF8
1FE0
3FC0
7F80
FE00
FC00
7800
2000
ENDCHAR
STARTCHAR 00B5
ENCODING 181
SWIDTH 488 0
DWIDTH 38 0
BBX 40 49 0 -13
BITMAP
000FC0007F
000FC0007E
001FC0007E
001FC0007E
001F8000FE
001F8000FE
003F8000FC
003F8000FC
003F0001FC
003F0001FC
007F0001F8
007F0001F8
007E0003F8
007E0003F8
00FE0003F0
00FE0003F0
00FC0007F0
00FC0007F0
00FC0007E0
01FC0007E0
01F8000FE0
01F8000FE0
01F8000FC0
03F8000FC0
03F8000FC0
03F8000FC0
03F8000FC0
07F8000FC0
07F8001FC0
07FC007FC0
07FF01FFE0
0FFFFFFFFC
0FFFFFFFF8
0FFFFFF7F8
0FDFFFC3F8
1FCFFF81F8
1F83F80010
1F80000000
1F80000000
1F80000000
3F80000000
3F00000000
3F00000000
3F00000000
7F00000000
7E00000000
7E00000000
7E00000000
FE00000000
ENDCHAR
STARTCHAR 00B6
ENCODING 182
SWIDTH 488 0
DWIDTH 38 0
BBX 37 62 7 -13
BITMAP
000000F000
0000FFFFF8
0007FFFFF8
001FFFFFF0
007FFFFFF0
01FFFFFFF0
03FFFF03F0
07FFFF03E0
0FFFFE03E0
1FFFFE07E0
1FFFFE07E0
3FFFFE07C0
3FFFFC07C0
7FFFFC07C0
7FFFFC0FC0
7FFFFC0F80
FFFFF80F80
FFFFF80F80
FFFFF81F80
FFFFF81F00
FFFFF81F00
FFFFF01F00
7FFFF03F00
7FFFF03F00
7FFFF03E00
3FFFE03E00
3FFFE07E00
1FFFE07E00
0FFFE07C00
03FFC07C00
003FC0FC00
000FC0FC00
000FC0F800
000F80F800
000F81F800
001F81F800
001F81F000
001F01F000
001F03F000
003F03F000
003F03E000
003E03E000
003E03E000
003E07E000
007E07C000
007E07C000
007C07C000
007C0FC000
00FC0FC000
00FC0F8000
00F80F8000
00F81F8000
01F81F8000
01F81F0000
01F01F0000
01F03F0000
03F03F0000
03F03E0000
03E03E0000
03E07E0000
07E07E0000
07E07C0000
ENDCHAR
STARTCHAR 00B7
ENCODING 183
SWIDTH 488 0
DWIDTH 38 0
BBX 11 12 17 14
BITMAP
1F80
3FC0
7FE0
7FE0
FFE0
FFE0
FFE0
FFE0
FFE0
7FC0
3F80
0C00
ENDCHAR
STARTCHAR 00B8
ENCODING 184
SWIDTH 488 0
DWIDTH 38 0
BBX 13 14 10 -13
BITMAP
00F8
01F0
01E0
03C0
07F0
07F0
03F8
01F8
01F8
41F8
FFF0
FFF0
FFE0
FF80
ENDCHAR
STARTCHAR 00B9
ENCODING 185
SWIDTH 488 0
DWIDTH 38 0
BBX 19 27 14 22
BITMAP
0001E0
0003C0
000FC0
003FC0
00FFC0
03FF80
07FF80
07EF80
078F80
040F00
001F00
001F00
001F00
001E00
003E00
003E00
003E00
003C00
007C00
007C00
007C00
007800
00F800
7FFFE0
7FFFE0
7FFFE0
FFFFE0
ENDCHAR
STARTCHAR 00BA
ENCODING 186
SWIDTH 488 0
DWIDTH 38 0
BBX 25 26 14 23
BITMAP
001FF000
007FFC00
01FFFE00
03FFFF00
07F07F00
0FE01F00
1FC01F80
1F801F80
3F000F80
3F000F80
3E000F80
7E001F80
7C001F80
7C001F00
7C001F00
7C003F00
FC003E00
FC007E00
7C007E00
7C00FC00
7E01F800
7F07F000
3FFFE000
3FFFC000
0FFF8000
07FC0000
ENDCHAR
STARTCHAR 00BB
ENCODING 187
SWIDTH 488 0
DWIDTH 38 0
BBX 29 27 8 6
BITMAP
00C00200
03C00F00
07E01F00
03E00F80
03E00F80
03F00FC0
01F007C0
01F807E0
01F807E0
00FC03F0
00FC03F0
00FE03F8
007E01F8
00FE03F8
00FC07F0
01F807E0
03F80FE0
07F01FC0
0FE03F80
0FC07F00
1F807E00
3F00FC00
7E01F800
FC03F000
FC03F000
F803E000
3000C000
ENDCHAR
STARTCHAR 00BC
ENCODING 188
SWIDTH 488 0
DWIDTH 38 0
BBX 42 49 3 0
BITMAP
000070000000
0000F0000FC0
0003F0001F80
000FF0001F80
003FE0003F00
00FFE0007E00
00FFE000FC00
00F3E001FC00
0083C001F800
0003C003F000
0007C007E000
0007C00FC000
0007800FC000
0007801F8000
000F803F0000
000F807E0000
000F00FE0000
000F00FC0000
001F01F80000
001F03F00000
000007E00000
000007E00000
00000FC00000
00001F800000
00003F000000
00007E000000
00007E000000
0000FC000000
0001F8000000
0003F0000000
0003F003E000
0007E00FE000
000FC01FE000
001F803FE000
003F007FC000
003F00FBC000
007E01F7C000
00FC03E7C000
01F807C78000
01F80F878000
03F01F0F8000
07E03FFFE000
0FC03FFFE000
1F803FFFE000
1F807FFFE000
3F00001F0000
7E00001F0000
FC00001E0000
FC00003E0000
ENDCHAR
STARTCHAR 00BD
ENCODING 189
SWIDTH 488 0
DWIDTH 38 0
BBX 43 49 2 0
BITMAP
000038000000
000078000FE0
0001F8000FC0
0007F8001F80
001FF0003F00
007FF0007E00
007FF0007E00
0079F000FC00
0041E001F800
0001E003F000
0003E007F000
0003E007E000
0003C00FC000
0003C01F8000
0007C03F0000
0007C03F0000
0007807E0000
000780FC0000
000F81F80000
000F83F00000
000003F00000
000007E00000
00000FC00000
00001F800000
00001F800000
00003F000000
00007E000000
0000FC000000
0001F8000000
0001F81F8000
0003F07FE000
0007E1FFF000
000FC1FFF000
000FC1E1F000
001F8080F000
003F0000F000
007E0000F000
00FC0001E000
00FC0007E000
01F8000FC000
03F0003F8000
07E000FE0000
07C001F80000
0FC003E00000
1F8007C00000
3F000FFFE000
7E000FFFE000
7E000FFFC000
FC001FFFC000
ENDCHAR
STARTCHAR 00BE
ENCODING 190
SWIDTH 488 0
DWIDTH 38 0
BBX 42 49 3 0
BITMAP
003FC0000000
00FFF0000FC0
00FFF0001F80
00FFF8001F80
0080F8003F00
0000F0007E00
0000F000FC00
0003E001FC00
007FC001F800
007F8003F000
007FC007E000
007FE00FC000
0003E00FC000
0001E01F8000
0001E03F0000
0003E07E0000
079FC0FE0000
0FFFC0FC0000
0FFF01F80000
0FFE03F00000
000007E00000
000007E00000
00000FC00000
00001F800000
00003F000000
00007E000000
00007E000000
0000FC000000
0001F8000000
0003F0000000
0003F003E000
0007E00FE000
000FC01FE000
001F803FE000
003F007FC000
003F00FBC000
007E01F7C000
00FC03E7C000
01F807C78000
01F80F878000
03F01F0F8000
07E03FFFE000
0FC03FFFE000
1F803FFFE000
1F807FFFE000
3F00001F0000
7E00001F0000
FC00001E0000
FC00003E0000
ENDCHAR
STARTCHAR 00BF
ENCODING 191
SWIDTH 488 0
DWIDTH 38 0
BBX 28 49 6 -13
BITMAP
00000FC0
00001FE0
00003FE0
00003FE0
00007FF0
00007FE0
00007FE0
00003FE0
00003FC0
00001F80
00000000
00000000
00000000
00000000
00000000
00000000
00000000
00007E00
00007E00
0000FC00
0000FC00
0001FC00
0003F800
0007F000
000FE000
001FC000
007F8000
00FF0000
01FE0000
03F80000
0FF00000
1FE00000
1FC00000
3F800000
7F000000
7E000000
FE000000
FE000000
FC000000
FC000000
FE000000
FE000000
FF000C00
7F807C00
7FFFFC00
3FFFFC00
1FFFFC00
0FFFF800
03FF8000
ENDCHAR
STARTCHAR 00C0
ENCODING 192
SWIDTH 488 0
DWIDTH 38 0
BBX 37 64 -1 1
BITMAP
0000001800
0000003C00
0000007E00
000000FF00
0000007F80
0000003F80
0000001FC0
0000000FE0
00000007F0
00000003F8
00000001F8
00000000F0
0000000060
0000000000
0000000000
0000000000
0000003FC0
0000007FC0
0000007FC0
000000FFE0
000000FFE0
000001FFE0
000003F7E0
000003F7E0
000007E7E0
000007C7E0
00000FC7E0
00001F87E0
00001F83F0
00003F03F0
00003F03F0
00007E03F0
00007C03F0
0000FC03F0
0001F803F0
0001F803F0
0003F003F0
0003F003F0
0007E003F0
0007E003F0
000FC003F0
000F8003F8
001F8001F8
001F0001F8
003F0001F8
003E0001F8
007FFFFFF8
00FFFFFFF8
00FFFFFFF8
01FFFFFFF8
01FFFFFFF8
03F00001F8
03F00001F8
07E00001F8
07E00001F8
0FC00001F8
0FC00001F8
1FC00001F8
1F800001F8
3F800001F8
3F000001F8
7F000001F8
7E000001F8
FE000001F8
ENDCHAR
STARTCHAR 00C1
ENCODING 193
SWIDTH 488 0
DWIDTH 38 0
BBX 42 64 -1 1
BITMAP
000000000600
000000000F00
000000001F00
000000003F80
000000007FC0
00000000FF80
00000001FE00
00000003FC00
00000007F800
0000000FE000
0000000FC000
000000078000
000000060000
000000000000
000000000000
000000000000
0000003FC000
0000007FC000
0000007FC000
000000FFE000
000000FFE000
000001FFE000
000003F7E000
000003F7E000
000007E7E000
000007C7E000
00000FC7E000
00001F87E000
00001F83F000
00003F03F000
00003F03F000
00007E03F000
00007C03F000
0000FC03F000
0001F803F000
0001F803F000
0003F003F000
0003F003F000
0007E003F000
0007E003F000
000FC003F000
000F8003F800
001F8001F800
001F0001F800
003F0001F800
003E0001F800
007FFFFFF800
00FFFFFFF800
00FFFFFFF800
01FFFFFFF800
01FFFFFFF800
03F00001F800
03F00001F800
07E00001F800
07E00001F800
0FC00001F800
0FC00001F800
1FC00001F800
1F800001F800
3F800001F800
3F000001F800
7F000001F800
7E000001F800
FE000001F800
ENDCHAR
STARTCHAR 00C2
ENCODING 194
SWIDTH 488 0
DWIDTH 38 0
BBX 41 64 -1 0
BITMAP
000000004000
00000000E000
00000001F000
00000007F000
0000000FF800
0000001FFC00
0000003FFE00
0000007F7E00
000000FC3F00
000001F81F80
000001F00F80
000000C00700
000000000200
000000000000
000000000000
000000000000
0000003FC000
0000007FC000
0000007FC000
000000FFE000
000000FFE000
000001FFE000
000003F7E000
000003F7E000
000007E7E000
000007C7E000
00000FC7E000
00001F87E000
00001F83F000
00003F03F000
00003F03F000
00007E03F000
00007C03F000
0000FC03F000
0001F803F000
0001F803F000
0003F003F000
0003F003F000
0007E003F000
0007E003F000
000FC003F000
000F8003F800
001F8001F800
001F0001F800
003F0001F800
003E0001F800
007FFFFFF800
00FFFFFFF800
00FFFFFFF800
01FFFFFFF800
01FFFFFFF800
03F00001F800
03F00001F800
07E00001F800
07E00001F800
0FC00001F800
0FC00001F800
1FC00001F800
1F800001F800
3F800001F800
3F000001F800
7F000001F800
7E000001F800
FE000001F800
ENDCHAR
STARTCHAR 00C3
ENCODING 195
SWIDTH 488 0
DWIDTH 38 0
BBX 44 62 -1 0
BITMAP
000000000080
000000FF00E0
000001FFC1F0
000003FFFFE0
000007FFFFC0
000007C7FFC0
00000F81FF80
000003007E00
000000000000
000000000000
000000000000
000000000000
000000000000
000000000000
0000003FC000
0000007FC000
0000007FC000
000000FFE000
000000FFE000
000001FFE000
000003F7E000
000003F7E000
000007E7E000
000007C7E000
00000FC7E000
00001F87E000
00001F83F000
00003F03F000
00003F03F000
00007E03F000
00007C03F000
0000FC03F000
0001F803F000
0001F803F000
0003F003F000
0003F003F000
0007E003F000
0007E003F000
000FC003F000
000F8003F800
001F8001F800
001F0001F800
003F0001F800
003E0001F800
007FFFFFF800
00FFFFFFF800
00FFFFFFF800
01FFFFFFF800
01FFFFFFF800
03F00001F800
03F00001F800
07E00001F800
07E00001F800
0FC00001F800
0FC00001F800
1FC00001F800
1F800001F800
3F800001F800
3F000001F800
7F000001F800
7E000001F800
FE000001F800
ENDCHAR
STARTCHAR 00C4
ENCODING 196
SWIDTH 488 0
DWIDTH 38 0
BBX 44 62 -1 0
BITMAP
000000700380
000000FC07E0
000001FC0FE0
000003FC0FF0
000003FC0FF0
000003FC0FE0
000001FC0FE0
000001F807C0
000000000000
000000000000
000000000000
000000000000
000000000000
000000000000
0000003FC000
0000007FC000
0000007FC000
000000FFE000
000000FFE000
000001FFE000
000003F7E000
000003F7E000
000007E7E000
000007C7E000
00000FC7E000
00001F87E000
00001F83F000
00003F03F000
00003F03F000
00007E03F000
00007C03F000
0000FC03F000
0001F803F000
0001F803F000
0003F003F000
0003F003F000
0007E003F000
0007E003F000
000FC003F000
000F8003F800
001F8001F800
001F0001F800
003F0001F800
003E0001F800
007FFFFFF800
00FFFFFFF800
00FFFFFFF800
01FFFFFFF800
01FFFFFFF800
03F00001F800
03F00001F800
07E00001F800
07E00001F800
0FC00001F800
0FC00001F800
1FC00001F800
1F800001F800
3F800001F800
3F000001F800
7F000001F800
7E000001F800
FE000001F800
ENDCHAR
STARTCHAR 00C5
ENCODING 197
SWIDTH 488 0
DWIDTH 38 0
BBX 38 58 -1 0
BITMAP
0000001FC0
0000003FE0
0000007FF0
000000F8F8
000000E078
000001E038
000001E03C
000001E03C
000001E038
000000F078
000000FDF8
0000007FF0
0000007FE0
000000FFE0
000000FFE0
000001FFE0
000003F7E0
000003F7E0
000007E7E0
000007C7E0
00000FC7E0
00001F87E0
00001F83E0
00003F03E0
00003F03F0
00007E03F0
00007C03F0
0000FC03F0
0001F803F0
0001F803F0
0003F003F0
0003F003F0
0007E003F0
0007E003F0
000FC003F0
000F8003F0
001F8001F0
001F0001F8
003F0001F8
007E0001F8
007FFFFFF8
00FFFFFFF8
00FFFFFFF8
01FFFFFFF8
01FFFFFFF8
03F00001F8
03F00001F8
07E00001F8
07E00001F8
0FC00001F8
0FC00001F8
1FC00001F8
1F800001F8
3F800001F8
3F000001F8
7F000001F8
7E000001F8
FE000001F8
ENDCHAR
STARTCHAR 00C6
ENCODING 198
SWIDTH 488 0
DWIDTH 38 0
BBX 46 48 1 0
BITMAP
0000003FFFFC
0000007FFFF8
000000FFFFF8
000000FFFFF8
000001F7FFF8
000001FFC000
000003EFC000
000007EFC000
000007CFC000
00000FDF8000
00000F9F8000
00001F9F8000
00003F1F8000
00003E3F8000
00007E3F0000
00007C3F0000
0000FC3F0000
0001F87F0000
0001F87E0000
0003F07E0000
0003F07FFE00
0007E0FFFE00
0007C0FFFC00
000FC0FFFC00
000F80FFFC00
001F81FFFC00
001F01F80000
003F01F80000
003E01F80000
007E01F80000
00FFFFF00000
00FFFFF00000
01FFFFF00000
01FFFFF00000
03FFFFE00000
03F007E00000
07E007E00000
07E007E00000
0FC00FE00000
0FC00FC00000
1F800FC00000
1F800FC00000
3F001FC00000
3F001FFFF000
7E001FFFF000
7E001FFFF000
FE003FFFF000
FC003FFFE000
ENDCHAR
STARTCHAR 00C7
ENCODING 199
SWIDTH 488 0
DWIDTH 38 0
BBX 38 62 7 -13
BITMAP
00000FFF00
00007FFFE0
0001FFFFF0
0003FFFFFC
000FFFFFF8
001FFFBFF0
003FF001F0
007FC00060
00FF000000
01FE000000
01FC000000
03F8000000
07F0000000
07F0000000
0FE0000000
0FE0000000
1FC0000000
1FC0000000
1F80000000
3F80000000
3F00000000
3F00000000
7F00000000
7E00000000
7E00000000
7E00000000
FE00000000
FE00000000
FE00000000
FC00000000
FC00000000
FC00000000
FC00000000
FC00000000
FC00000000
FE00000000
FE00000000
FE00000000
FE00000000
7F00000000
7F00000000
7F80000000
3FC0006000
3FF003E000
1FFFFFE000
0FFFFFE000
07FFFFF000
03FFFFE000
00FFFF0000
001FF80000
001F000000
003E000000
003F000000
007F800000
001F800000
000FC00000
000FC00000
041F800000
07FF800000
07FF000000
0FFE000000
07FC000000
ENDCHAR
STARTCHAR 00C8
ENCODING 200
SWIDTH 488 0
DWIDTH 38 0
BBX 38 64 6 1
BITMAP
0000018000
000007C000
00000FC000
00001FE000
00000FF000
000007F800
000003F800
000001FC00
000000FE00
0000007F00
0000003F80
0000001F00
0000000E00
0000000000
0000000000
0000000000
001FFFFFFC
001FFFFFFC
001FFFFFF8
003FFFFFF8
003FFFFFF8
003F000000
003F000000
007F000000
007E000000
007E000000
007E000000
00FE000000
00FE000000
00FC000000
00FC000000
01FC000000
01FC000000
01F8000000
01F8000000
03F8000000
03FFFFFE00
03FFFFFC00
03FFFFFC00
07FFFFFC00
07FFFFFC00
07FFFFF800
07E0000000
0FE0000000
0FE0000000
0FC0000000
0FC0000000
0FC0000000
1FC0000000
1F80000000
1F80000000
1F80000000
3F80000000
3F80000000
3F00000000
3F00000000
7F00000000
7F00000000
7E00000000
7FFFFFF800
FFFFFFF800
FFFFFFF800
FFFFFFF800
FFFFFFF000
ENDCHAR
STARTCHAR 00C9
ENCODING 201
SWIDTH 488 0
DWIDTH 38 0
BBX 38 64 6 1
BITMAP
0000000300
0000000780
0000000FC0
0000001FC0
0000003FE0
0000007FC0
000000FF00
000001FE00
000003FC00
000007F000
000007E000
000003C000
0000030000
0000000000
0000000000
0000000000
001FFFFFFC
001FFFFFFC
001FFFFFF8
003FFFFFF8
003FFFFFF8
003F000000
003F000000
007F000000
007E000000
007E000000
007E000000
00FE000000
00FE000000
00FC000000
00FC000000
01FC000000
01FC000000
01F8000000
01F8000000
03F8000000
03FFFFFE00
03FFFFFC00
03FFFFFC00
07FFFFFC00
07FFFFFC00
07FFFFF800
07E0000000
0FE0000000
0FE0000000
0FC0000000
0FC0000000
0FC0000000
1FC0000000
1F80000000
1F80000000
1F80000000
3F80000000
3F80000000
3F00000000
3F00000000
7F00000000
7F00000000
7E00000000
7FFFFFF800
FFFFFFF800
FFFFFFF800
FFFFFFF800
FFFFFFF000
ENDCHAR
STARTCHAR 00CA
ENCODING 202
SWIDTH 488 0
DWIDTH 38 0
BBX 38 64 6 0
BITMAP
0000001800
0000003C00
0000007C00
000000FE00
000001FF00
000003FF00
00000FFF80
00001FCFC0
00003F87E0
00007F03E0
00003C03E0
00001801C0
0000000080
0000000000
0000000000
0000000000
001FFFFFFC
001FFFFFFC
001FFFFFF8
003FFFFFF8
003FFFFFF8
003F000000
003F000000
007F000000
007E000000
007E000000
007E000000
00FE000000
00FE000000
00FC000000
00FC000000
01FC000000
01FC000000
01F8000000
01F8000000
03F8000000
03FFFFFE00
03FFFFFC00
03FFFFFC00
07FFFFFC00
07FFFFFC00
07FFFFF800
07E0000000
0FE0000000
0FE0000000
0FC0000000
0FC0000000
0FC0000000
1FC0000000
1F80000000
1F80000000
1F80000000
3F80000000
3F80000000
3F00000000
3F00000000
7F00000000
7F00000000
7E00000000
7FFFFFF800
FFFFFFF800
FFFFFFF800
FFFFFFF800
FFFFFFF000
ENDCHAR
STARTCHAR 00CB
ENCODING 203
SWIDTH 488 0
DWIDTH 38 0
BBX 38 62 6 0
BITMAP
00003800C0
00007E03F0
0000FE07F0
0000FE07F8
0001FE07F8
0001FE07F0
0000FE07F0
0000FC03E0
0000000000
0000000000
0000000000
0000000000
0000000000
0000000000
001FFFFFFC
001FFFFFFC
001FFFFFF8
003FFFFFF8
003FFFFFF8
003F000000
003F000000
007F000000
007E000000
007E000000
007E000000
00FE000000
00FE000000
00FC000000
00FC000000
01FC000000
01FC000000
01F8000000
01F8000000
03F8000000
03FFFFFE00
03FFFFFC00
03FFFFFC00
07FFFFFC00
07FFFFFC00
07FFFFF800
07E0000000
0FE0000000
0FE0000000
0FC0000000
0FC0000000
0FC0000000
1FC0000000
1F80000000
1F80000000
1F80000000
3F80000000
3F80000000
3F00000000
3F00000000
7F00000000
7F00000000
7E00000000
7FFFFFF800
FFFFFFF800
FFFFFFF800
FFFFFFF800
FFFFFFF000
ENDCHAR
STARTCHAR 00CC
ENCODING 204
SWIDTH 488 0
DWIDTH 38 0
BBX 36 64 6 1
BITMAP
00000E0000
00001E0000
00003F0000
00007F8000
00003FC000
00001FE000
00000FE000
000007F000
000003F800
000001FC00
000000FE00
0000007C00
0000003000
0000000000
0000000000
0000000000
001FFFFFF0
001FFFFFF0
003FFFFFE0
003FFFFFE0
003FFFFFE0
00001F8000
00001F8000
00001F8000
00003F8000
00003F8000
00003F0000
00003F0000
00007F0000
00007F0000
00007E0000
00007E0000
0000FE0000
0000FE0000
0000FC0000
0000FC0000
0001FC0000
0001FC0000
0001F80000
0001F80000
0003F80000
0003F80000
0003F00000
0003F00000
0007F00000
0007F00000
0007E00000
0007E00000
000FE00000
000FE00000
000FC00000
000FC00000
000FC00000
001FC00000
001F800000
001F800000
001F800000
003F800000
003F800000
7FFFFFC000
FFFFFF8000
FFFFFF8000
FFFFFF8000
FFFFFF8000
ENDCHAR
STARTCHAR 00CD
ENCODING 205
SWIDTH 488 0
DWIDTH 38 0
BBX 36 64 6 1
BITMAP
0000000600
0000000F00
0000001F00
0000003F80
0000007FC0
000000FF00
000001FE00
000003FC00
000007F000
00000FE000
00000FC000
0000070000
0000060000
0000000000
0000000000
0000000000
001FFFFFF0
001FFFFFF0
003FFFFFE0
003FFFFFE0
003FFFFFE0
00001F8000
00001F8000
00001F8000
00003F8000
00003F8000
00003F0000
00003F0000
00007F0000
00007F0000
00007E0000
00007E0000
0000FE0000
0000FE0000
0000FC0000
0000FC0000
0001FC0000
0001FC0000
0001F80000
0001F80000
0003F80000
0003F80000
0003F00000
0003F00000
0007F00000
0007F00000
0007E00000
0007E00000
000FE00000
000FE00000
000FC00000
000FC00000
000FC00000
001FC00000
001F800000
001F800000
001F800000
003F800000
003F800000
7FFFFFC000
FFFFFF8000
FFFFFF8000
FFFFFF8000
FFFFFF8000
ENDCHAR
STARTCHAR 00CE
ENCODING 206
SWIDTH 488 0
DWIDTH 38 0
BBX 36 64 6 0
BITMAP
0000003000
0000007000
000000F800
000001FC00
000007FC00
00000FFE00
00001FFF00
00003FBF00
00007E1F80
0000FC0FC0
0000F807C0
0000600380
0000000100
0000000000
0000000000
0000000000
001FFFFFF0
001FFFFFF0
003FFFFFE0
003FFFFFE0
003FFFFFE0
00001F8000
00001F8000
00001F8000
00003F8000
00003F8000
00003F0000
00003F0000
00007F0000
00007F0000
00007E0000
00007E0000
0000FE0000
0000FE0000
0000FC0000
0000FC0000
0001FC0000
0001FC0000
0001F80000
0001F80000
0003F80000
0003F80000
0003F00000
0003F00000
0007F00000
0007F00000
0007E00000
0007E00000
000FE00000
000FE00000
000FC00000
000FC00000
000FC00000
001FC00000
001F800000
001F800000
001F800000
003F800000
003F800000
7FFFFFC000
FFFFFF8000
FFFFFF8000
FFFFFF8000
FFFFFF8000
ENDCHAR
STARTCHAR 00CF
ENCODING 207
SWIDTH 488 0
DWIDTH 38 0
BBX 37 62 6 0
BITMAP
00003800E0
00007E03F0
0000FE07F0
0000FF07F8
0001FF07F8
0000FE07F0
0000FE07F0
00007C03E0
0000000000
0000000000
0000000000
0000000000
0000000000
0000000000
001FFFFFF0
001FFFFFF0
003FFFFFE0
003FFFFFE0
003FFFFFE0
00001F8000
00001F8000
00001F8000
00003F8000
00003F8000
00003F0000
00003F0000
00007F0000
00007F0000
00007E0000
00007E0000
0000FE0000
0000FE0000
0000FC0000
0000FC0000
0001FC0000
0001FC0000
0001F80000
0001F80000
0003F80000
0003F80000
0003F00000
0003F00000
0007F00000
0007F00000
0007E00000
0007E00000
000FE00000
000FE00000
000FC00000
000FC00000
000FC00000
001FC00000
001F800000
001F800000
001F800000
003F800000
003F800000
7FFFFFC000
FFFFFF8000
FFFFFF8000
FFFFFF8000
FFFFFF8000
ENDCHAR
STARTCHAR 00D0
ENCODING 208
SWIDTH 488 0
DWIDTH 38 0
BBX 36 49 5 0
BITMAP
00001C0000
000FFFE000
001FFFF800
001FFFFC00
001FFFFE00
001FFFFF00
003F81FF80
003F807F80
003F003FC0
003F001FC0
007F000FE0
007F000FE0
007E000FE0
007E0007E0
00FE0007E0
00FE0007F0
00FC0007F0
00FC0007F0
00FC0007F0
01FC0007F0
01F80007F0
7FFFE007E0
7FFFE007E0
7FFFE007E0
7FFFE007E0
FFFFC00FE0
FFFFC00FE0
07F0000FE0
07F0000FC0
07E0001FC0
07E0001FC0
0FE0001F80
0FE0003F80
0FC0003F80
0FC0007F00
1FC0007F00
1FC000FE00
1F8001FE00
1F8003FC00
3F8007F800
3F800FF800
3F001FF000
3F007FE000
3F03FFC000
7FFFFF8000
7FFFFE0000
7FFFFC0000
7FFFF00000
7FFF800000
ENDCHAR
STARTCHAR 00D1
ENCODING 209
SWIDTH 488 0
DWIDTH 38 0
BBX 42 62 3 0
BITMAP
000000000400
000007F00E00
00001FFC1F00
00003FFFFE00
00003FFFFE00
00007E7FFC00
0000F81FF800
00003007E000
000010000000
000000000000
000000000000
000000000000
000000000000
000000000000
000FC0000FC0
001FC0000FC0
001FE0000F80
001FE0001F80
001FE0001F80
003FF0001F80
003FF0001F00
003FF0003F00
003FF8003F00
007FF8003F00
007EF8003E00
007EF8007E00
007CFC007E00
00FCFC007E00
00FC7C007E00
00FC7E00FC00
00F87E00FC00
01F83E00FC00
01F83E00FC00
01F83F00F800
01F03F01F800
03F01F01F800
03F01F01F800
03F01F81F000
03F01F83F000
03E00F83F000
07E00F83F000
07E00F83E000
07E00FC7E000
07C007C7E000
0FC007C7E000
0FC007C7C000
0FC007CFC000
0F8007EFC000
1F8003EFC000
1F8003EF8000
1F8003FF8000
1F0003FF8000
3F0003FF8000
3F0001FF8000
3F0001FF0000
3E0001FF0000
7E0001FF0000
7E0001FF0000
7E0000FE0000
7E0000FE0000
FC0000FE0000
FC0000FE0000
ENDCHAR
STARTCHAR 00D2
ENCODING 210
SWIDTH 488 0
DWIDTH 38 0
BBX 36 65 6 0
BITMAP
0000060000
00000F0000
00001F8000
00003F8000
00001FC000
00000FE000
000007F000
000003F800
000001F800
000000FC00
0000007E00
0000007C00
0000003800
0000001000
0000000000
00003FF000
0000FFFC00
0003FFFF00
0007FFFF80
000FFFFF80
001FF8FFC0
003FC01FE0
007F800FE0
00FF000FE0
01FE0007F0
01FC0007F0
03F80007F0
03F00007F0
07F00003F0
07E00003F0
0FE00003F0
0FC00003F0
1FC00003F0
1FC00007F0
1F800007F0
3F800007F0
3F800007F0
3F000007E0
3F000007E0
7F000007E0
7F00000FE0
7E00000FE0
7E00000FC0
7E00000FC0
7E00001FC0
FE00001F80
FE00001F80
FE00003F80
FE00003F00
FE00007F00
FE00007E00
FE0000FE00
FE0000FC00
FE0001FC00
7E0003F800
7F0003F800
7F0007F000
7F800FE000
3FC03FC000
3FFFFFC000
1FFFFF0000
0FFFFE0000
07FFFC0000
01FFF00000
007F800000
ENDCHAR
STARTCHAR 00D3
ENCODING 211
SWIDTH 488 0
DWIDTH 38 0
BBX 36 65 6 0
BITMAP
0000000300
0000000780
0000000F80
0000001FC0
0000003FE0
0000007F80
000000FF00
000001FE00
000003F800
000007F000
000007E000
0000078000
0000030000
0000000000
0000000000
00003FF000
0000FFFC00
0003FFFF00
0007FFFF80
000FFFFF80
001FF8FFC0
003FC01FE0
007F800FE0
00FF000FE0
01FE0007F0
01FC0007F0
03F80007F0
03F00007F0
07F00003F0
07E00003F0
0FE00003F0
0FC00003F0
1FC00003F0
1FC00007F0
1F800007F0
3F800007F0
3F800007F0
3F000007E0
3F000007E0
7F000007E0
7F00000FE0
7E00000FE0
7E00000FC0
7E00000FC0
7E00001FC0
FE00001F80
FE00001F80
FE00003F80
FE00003F00
FE00007F00
FE00007E00
FE0000FE00
FE0000FC00
FE0001FC00
7E0003F800
7F0003F800
7F0007F000
7F800FE000
3FC03FC000
3FFFFFC000
1FFFFF0000
0FFFFE0000
07FFFC0000
01FFF00000
007F800000
ENDCHAR
STARTCHAR 00D4
ENCODING 212
SWIDTH 488 0
DWIDTH 38 0
BBX 36 65 6 -1
BITMAP
0000003000
0000007800
000000F800
000001FC00
000003FE00
000007FE00
00001FFF00
00003F9F80
00007F0FC0
0000FC0FC0
00007807C0
0000700380
0000000100
0000000000
0000000000
00003FF000
0000FFFC00
0003FFFF00
0007FFFF80
000FFFFF80
001FF8FFC0
003FC01FE0
007F800FE0
00FF000FE0
01FE0007F0
01FC0007F0
03F80007F0
03F00007F0
07F00003F0
07E00003F0
0FE00003F0
0FC00003F0
1FC00003F0
1FC00007F0
1F800007F0
3F800007F0
3F800007F0
3F000007E0
3F000007E0
7F000007E0
7F00000FE0
7E00000FE0
7E00000FC0
7E00000FC0
7E00001FC0
FE00001F80
FE00001F80
FE00003F80
FE00003F00
FE00007F00
FE00007E00
FE0000FE00
FE0000FC00
FE0001FC00
7E0003F800
7F0003F800
7F0007F000
7F800FE000
3FC03FC000
3FFFFFC000
1FFFFF0000
0FFFFE0000
07FFFC0000
01FFF00000
007F800000
ENDCHAR
STARTCHAR 00D5
ENCODING 213
SWIDTH 488 0
DWIDTH 38 0
BBX 37 63 6 -1
BITMAP
0000000020
00003F8078
00007FE0F8
0000FFFFF8
0001FFFFF0
0003F3FFE0
0003E07FC0
0001C03F00
0000000000
0000000000
0000000000
0000000000
0000000000
00003FF000
0000FFFC00
0003FFFF00
0007FFFF80
000FFFFF80
001FF8FFC0
003FC01FE0
007F800FE0
00FF000FE0
01FE0007F0
01FC0007F0
03F80007F0
03F00007F0
07F00003F0
07E00003F0
0FE00003F0
0FC00003F0
1FC00003F0
1FC00007F0
1F800007F0
3F800007F0
3F800007F0
3F000007E0
3F000007E0
7F000007E0
7F00000FE0
7E00000FE0
7E00000FC0
7E00000FC0
7E00001FC0
FE00001F80
FE00001F80
FE00003F80
FE00003F00
FE00007F00
FE00007E00
FE0000FE00
FE0000FC00
FE0001FC00
7E0003F800
7F0003F800
7F0007F000
7F800FE000
3FC03FC000
3FFFFFC000
1FFFFF0000
0FFFFE0000
07FFFC0000
01FFF00000
007F800000
ENDCHAR
STARTCHAR 00D6
ENCODING 214
SWIDTH 488 0
DWIDTH 38 0
BBX 37 63 6 -1
BITMAP
00001C00E0
00007E03F0
0000FF03F8
0000FF07F8
0000FF07F8
0000FF07F8
0000FE07F0
00007C03E0
0000000000
0000000000
0000000000
0000000000
0000000000
00003FF000
0000FFFC00
0003FFFF00
0007FFFF80
000FFFFF80
001FF8FFC0
003FC01FE0
007F800FE0
00FF000FE0
01FE0007F0
01FC0007F0
03F80007F0
03F00007F0
07F00003F0
07E00003F0
0FE00003F0
0FC00003F0
1FC00003F0
1FC00007F0
1F800007F0
3F800007F0
3F800007F0
3F000007E0
3F000007E0
7F000007E0
7F00000FE0
7E00000FE0
7E00000FC0
7E00000FC0
7E00001FC0
FE00001F80
FE00001F80
FE00003F80
FE00003F00
FE00007F00
FE00007E00
FE0000FE00
FE0000FC00
FE0001FC00
7E0003F800
7F0003F800
7F0007F000
7F800FE000
3FC03FC000
3FFFFFC000
1FFFFF0000
0FFFFE0000
07FFFC0000
01FFF00000
007F800000
ENDCHAR
STARTCHAR 00D7
ENCODING 215
SWIDTH 488 0
DWIDTH 38 0
BBX 32 27 7 7
BITMAP
00C0000C
01E0001E
03E0003F
07F000FF
03F801FF
01FC03FC
01FC07F8
00FE1FF0
007F3FE0
003FFF80
003FFF00
001FFE00
000FFC00
000FF000
001FF000
003FF800
00FFFC00
01FEFE00
03FCFE00
07F87F00
1FF03F80
3FE01FC0
7F801FC0
FF000FE0
7E0007E0
7C0003C0
30000300
ENDCHAR
STARTCHAR 00D8
ENCODING 216
SWIDTH 488 0
DWIDTH 38 0
BBX 40 52 3 -2
BITMAP
000000000C
000007FC1F
00003FFF3F
00007FFFFF
0001FFFFFE
0003FFFFFC
0007FE1FFC
000FF007F8
001FE003F8
003FC007FC
003F8007FC
007F000FFC
007E001FFC
00FE003FFC
01FC003FFC
01F8007EFC
01F800FCFC
03F800FCFC
03F001F8FC
07F003F0FC
07E007E0FC
07E007E0FC
0FE00FC0FC
0FC01F80FC
0FC03F01FC
0FC03F01F8
1FC07E01F8
1FC0FC01F8
1F80FC01F8
1F81F803F0
1F83F003F0
1F87E003F0
1F87E007E0
1F8FC007E0
1F9F800FE0
1F9F000FC0
1FBF001FC0
1FFE001F80
1FFC003F80
1FFC003F00
1FF8007F00
1FF000FE00
1FE001FC00
0FE003FC00
0FF00FF800
1FFFFFF000
1FFFFFE000
3FFFFFC000
7FFFFF0000
FC7FFC0000
7C1FF00000
1800000000
ENDCHAR
STARTCHAR 00D9
ENCODING 217
SWIDTH 488 0
DWIDTH 38 0
BBX 39 65 6 0
BITMAP
0000380000
0000780000
0000FC0000
0001FE0000
0000FF0000
00007F8000
00003F8000
00001FC000
00000FE000
000007F000
000003F800
000001F000
000000C000
0000000000
0000000000
0000000000
00FE0000FE
00FC0000FC
00FC0000FC
01FC0000FC
01FC0001FC
01F80001F8
01F80001F8
03F80001F8
03F80003F8
03F00003F8
03F00003F0
03F00003F0
07F00007F0
07E00007F0
07E00007E0
07E00007E0
0FE0000FE0
0FC0000FE0
0FC0000FC0
0FC0000FC0
1FC0001FC0
1FC0001FC0
1F80001F80
1F80001F80
3F80003F80
3F80003F80
3F00003F00
3F00003F00
7F00003F00
7F00007F00
7E00007E00
7E00007E00
7E00007E00
FE0000FE00
FE0000FC00
FE0000FC00
FE0001FC00
FE0001FC00
FE0003F800
7E0003F800
7F0007F000
7F000FF000
3FC03FE000
3FFFFFC000
1FFFFF8000
0FFFFF0000
07FFFE0000
03FFF80000
007FC00000
ENDCHAR
STARTCHAR 00DA
ENCODING 218
SWIDTH 488 0
DWIDTH 38 0
BBX 39 66 6 -1
BITMAP
0000000100
0000000300
0000000780
0000000FC0
0000001FC0
0000003FE0
0000007FC0
000000FF00
000001FE00
000003FC00
000007F000
000007E000
000003C000
0000010000
0000000000
0000000000
0000000000
00FE0000FE
00FC0000FC
00FC0000FC
01FC0000FC
01FC0001FC
01F80001F8
01F80001F8
03F80001F8
03F80003F8
03F00003F8
03F00003F0
03F00003F0
07F00007F0
07E00007F0
07E00007E0
07E00007E0
0FE0000FE0
0FC0000FE0
0FC0000FC0
0FC0000FC0
1FC0001FC0
1FC0001FC0
1F80001F80
1F80001F80
3F80003F80
3F80003F80
3F00003F00
3F00003F00
7F00003F00
7F00007F00
7E00007E00
7E00007E00
7E00007E00
FE0000FE00
FE0000FC00
FE0000FC00
FE0001FC00
FE0001FC00
FE0003F800
7E0003F800
7F0007F000
7F000FF000
3FC03FE000
3FFFFFC000
1FFFFF8000
0FFFFF0000
07FFFE0000
03FFF80000
007FC00000
ENDCHAR
STARTCHAR 00DB
ENCODING 219
SWIDTH 488 0
DWIDTH 38 0
BBX 39 65 6 -1
BITMAP
0000003000
0000007000
000000F800
000001FC00
000007FC00
00000FFE00
00001FFF00
00003FBF00
00007E1F80
0000FC0FC0
0000F807C0
0000600380
0000000100
0000000000
0000000000
0000000000
00FE0000FE
00FC0000FC
00FC0000FC
01FC0000FC
01FC0001FC
01F80001F8
01F80001F8
03F80001F8
03F80003F8
03F00003F8
03F00003F0
03F00003F0
07F00007F0
07E00007F0
07E00007E0
07E00007E0
0FE0000FE0
0FC0000FE0
0FC0000FC0
0FC0000FC0
1FC0001FC0
1FC0001FC0
1F80001F80
1F80001F80
3F80003F80
3F80003F80
3F00003F00
3F00003F00
7F00003F00
7F00007F00
7E00007E00
7E00007E00
7E00007E00
FE0000FE00
FE0000FC00
FE0000FC00
FE0001FC00
FE0001FC00
FE0003F800
7E0003F800
7F0007F000
7F000FF000
3FC03FE000
3FFFFFC000
1FFFFF8000
0FFFFF0000
07FFFE0000
03FFF80000
007FC00000
ENDCHAR
STARTCHAR 00DC
ENCODING 220
SWIDTH 488 0
DWIDTH 38 0
BBX 39 63 6 -1
BITMAP
00003800E0
00007E03F0
0000FE07F0
0000FF07F8
0001FF07F8
0000FE07F0
0000FE07F0
00007C03E0
0000000000
0000000000
0000000000
0000000000
0000000000
0000000000
00FE0000FE
00FC0000FC
00FC0000FC
01FC0000FC
01FC0001FC
01F80001F8
01F80001F8
03F80001F8
03F80003F8
03F00003F8
03F00003F0
03F00003F0
07F00007F0
07E00007F0
07E00007E0
07E00007E0
0FE0000FE0
0FC0000FE0
0FC0000FC0
0FC0000FC0
1FC0001FC0
1FC0001FC0
1F80001F80
1F80001F80
3F80003F80
3F80003F80
3F00003F00
3F00003F00
7F00003F00
7F00007F00
7E00007E00
7E00007E00
7E00007E00
FE0000FE00
FE0000FC00
FE0000FC00
FE0001FC00
FE0001FC00
FE0003F800
7E0003F800
7F0007F000
7F000FF000
3FC03FE000
3FFFFFC000
1FFFFF8000
0FFFFF0000
07FFFE0000
03FFF80000
007FC00000
ENDCHAR
STARTCHAR 00DD
ENCODING 221
SWIDTH 488 0
DWIDTH 38 0
BBX 36 64 12 1
BITMAP
0000006000
000000F000
000001F000
000003F800
000007FC00
00000FF000
00001FE000
00003FC000
00007F0000
0000FE0000
0000FC0000
0000F00000
0000600000
0000000000
0000000000
0000000000
FC000007F0
FC00000FE0
FC00000FE0
FC00001FC0
FC00003F80
FE00003F80
7E00007F00
7E0000FE00
7E0000FE00
7E0001FC00
7F0003F800
3F0003F800
3F0007F000
3F000FE000
3F800FC000
1F801FC000
1F803F8000
1F807F0000
0FC07E0000
0FC0FC0000
0FC1FC0000
07E1F80000
07E3F00000
07E7E00000
03EFC00000
03FFC00000
03FF800000
01FF000000
01FE000000
01FC000000
01FC000000
01FC000000
01F8000000
01F8000000
03F8000000
03F8000000
03F0000000
03F0000000
03F0000000
07F0000000
07E0000000
07E0000000
07E0000000
0FE0000000
0FC0000000
0FC0000000
0FC0000000
1FC0000000
ENDCHAR
STARTCHAR 00DE
ENCODING 222
SWIDTH 488 0
DWIDTH 38 0
BBX 36 48 4 0
BITMAP
000FC00000
001FC00000
001F800000
001F800000
001F800000
003F800000
003F800000
003F000000
003FFFF000
007FFFFC00
007FFFFF00
007FFFFF80
007FFFFFC0
00FF03FFE0
00FE007FE0
00FC001FF0
00FC000FF0
01FC0007F0
01FC0007F0
01F80007F0
01F80007F0
03F80007F0
03F80007F0
03F00007F0
03F00007F0
03F0000FF0
07F0000FE0
07E0001FE0
07E0003FC0
07E0007FC0
0FE001FF80
0FC007FF00
0FC3FFFE00
0FFFFFFC00
1FFFFFF000
1FFFFFC000
1FFFFF0000
1FFFF00000
3F80000000
3F80000000
3F00000000
3F00000000
7F00000000
7F00000000
7E00000000
7E00000000
FE00000000
FE00000000
ENDCHAR
STARTCHAR 00DF
ENCODING 223
SWIDTH 488 0
DWIDTH 38 0
BBX 47 67 -7 -13
BITMAP
000000007F00
00000003FFE0
0000000FFFF0
0000001FFFF8
0000003FFFFC
0000007FFFFC
0000007F81FE
000000FE00FE
000000FE007E
000001FC007E
000001FC007E
000003F8007E
000003F800FE
000003F000FC
000007F001FC
000007F003FC
000007E007F8
000007E00FF0
00000FE01FE0
00000FE03FC0
00000FC07F80
00000FC0FF00
00000FC1FE00
00001FC3F800
00001FC3F000
00001F87F000
00001F87E000
00001F87E000
00003F87E000
00003F87F000
00003F07F800
00003F07FC00
00007F03FE00
00007F01FF80
00007E00FFC0
00007E007FE0
00007E001FF0
0000FE000FF0
0000FE0007F8
0000FC0003F8
0000FC0001F8
0000FC0001FC
0001FC0001FC
0001FC0001FC
0001F80001FC
0001F80001F8
0003F80003F8
0003F80007F8
0003F0600FF0
0003F0FFFFE0
0003F0FFFFE0
0007F1FFFFC0
0007F1FFFF00
0007E0FFFC00
0007E01FE000
000FE0000000
000FE0000000
000FC0000000
001FC0000000
003FC0000000
007F80000000
7FFF00000000
7FFF00000000
FFFE00000000
FFFC00000000
FFF000000000
7FC000000000
ENDCHAR
STARTCHAR 00E0
ENCODING 224
SWIDTH 488 0
DWIDTH 38 0
BBX 34 55 6 -1
BITMAP
0000080000
00001C0000
00003C0000
00007E0000
0000FF0000
00007F8000
00003FC000
00001FC000
00000FE000
000007F000
000003F800
000001F800
000000F000
0000006000
0000000000
0000000000
0000000000
00000FF800
0000FFFF80
0007FFFFC0
001FFFFFC0
003FFFFF80
00FFFFFF80
01FFC01F80
03FF003F80
07FC003F00
0FF8003F00
0FF0003F00
1FE0007F00
1FC0007E00
3F80007E00
3F00007E00
7F0000FE00
7F0000FC00
7E0000FC00
FE0000FC00
FE0001FC00
FC0001F800
FC0001F800
FC0001F800
FC0003F800
FC0003F000
FC0003F000
FC0003F000
FC0003F000
FE0003F000
FE000FF000
FF001FF000
7F807FF000
7FF7FFF000
3FFFFFF000
1FFFFBF000
0FFFF3F800
07FFC1F800
00FE000000
ENDCHAR
STARTCHAR 00E1
ENCODING 225
SWIDTH 488 0
DWIDTH 38 0
BBX 34 54 6 0
BITMAP
0000000600
0000000F00
0000001F80
0000003F80
0000007FC0
000000FF00
000001FE00
000003FC00
000007F000
00000FE000
00000FC000
0000070000
0000060000
0000000000
0000000000
0000000000
00000FF800
0000FFFF80
0007FFFFC0
001FFFFFC0
003FFFFF80
00FFFFFF80
01FFC01F80
03FF003F80
07FC003F00
0FF8003F00
0FF0003F00
1FE0007F00
1FC0007E00
3F80007E00
3F00007E00
7F0000FE00
7F0000FC00
7E0000FC00
FE0000FC00
FE0001FC00
FC0001F800
FC0001F800
FC0001F800
FC0003F800
FC0003F000
FC0003F000
FC0003F000
FC0003F000
FE0003F000
FE000FF000
FF001FF000
7F807FF000
7FF7FFF000
3FFFFFF000
1FFFFBF000
0FFFF3F800
07FFC1F800
00FE000000
ENDCHAR
STARTCHAR 00E2
ENCODING 226
SWIDTH 488 0
DWIDTH 38 0
BBX 34 54 6 -1
BITMAP
0000004000
000001E000
000003F000
000007F800
00000FF800
00001FFC00
00003FFE00
0000FE7E00
0001FC3F00
0001F81F80
0001E00F00
0000C00600
0000000000
0000000000
0000000000
0000000000
00000FF800
0000FFFF80
0007FFFFC0
001FFFFFC0
003FFFFF80
00FFFFFF80
01FFC01F80
03FF003F80
07FC003F00
0FF8003F00
0FF0003F00
1FE0007F00
1FC0007E00
3F80007E00
3F00007E00
7F0000FE00
7F0000FC00
7E0000FC00
FE0000FC00
FE0001FC00
FC0001F800
FC0001F800
FC0001F800
FC0003F800
FC0003F000
FC0003F000
FC0003F000
FC0003F000
FE0003F000
FE000FF000
FF001FF000
7F807FF000
7FF7FFF000
3FFFFFF000
1FFFFBF000
0FFFF3F800
07FFC1F800
00FE000000
ENDCHAR
STARTCHAR 00E3
ENCODING 227
SWIDTH 488 0
DWIDTH 38 0
BBX 36 52 6 -1
BITMAP
00000C0040
00007F80F0
0001FFE1F0
0001FFFFF0
0003FFFFE0
0007E3FFC0
000780FF80
0003803E00
0000000000
0000000000
0000000000
0000000000
0000000000
0000000000
00000FF800
0000FFFF80
0007FFFFC0
001FFFFFC0
003FFFFF80
00FFFFFF80
01FFC01F80
03FF003F80
07FC003F00
0FF8003F00
0FF0003F00
1FE0007F00
1FC0007E00
3F80007E00
3F00007E00
7F0000FE00
7F0000FC00
7E0000FC00
FE0000FC00
FE0001FC00
FC0001F800
FC0001F800
FC0001F800
FC0003F800
FC0003F000
FC0003F000
FC0003F000
FC0003F000
FE0003F000
FE000FF000
FF001FF000
7F807FF000
7FF7FFF000
3FFFFFF000
1FFFFBF000
0FFFF3F800
07FFC1F800
00FE000000
ENDCHAR
STARTCHAR 00E4
ENCODING 228
SWIDTH 488 0
DWIDTH 38 0
BBX 36 52 6 -1
BITMAP
00007801C0
0000FC07F0
0001FE07F0
0001FE0FF0
0001FE0FF0
0001FE0FF0
0001FC07E0
0000F807C0
0000000000
0000000000
0000000000
0000000000
0000000000
0000000000
00000FF800
0000FFFF80
0007FFFFC0
001FFFFFC0
003FFFFF80
00FFFFFF80
01FFC01F80
03FF003F80
07FC003F00
0FF8003F00
0FF0003F00
1FE0007F00
1FC0007E00
3F80007E00
3F00007E00
7F0000FE00
7F0000FC00
7E0000FC00
FE0000FC00
FE0001FC00
FC0001F800
FC0001F800
FC0001F800
FC0003F800
FC0003F000
FC0003F000
FC0003F000
FC0003F000
FE0003F000
FE000FF000
FF001FF000
7F807FF000
7FF7FFF000
3FFFFFF000
1FFFFBF000
0FFFF3F800
07FFC1F800
00FE000000
ENDCHAR
STARTCHAR 00E5
ENCODING 229
SWIDTH 488 0
DWIDTH 38 0
BBX 34 55 6 -1
BITMAP
000003F000
00000FF800
00001FFE00
00003E3E00
00003C0F00
0000380F00
0000380F00
0000380F00
0000380F00
00003C0F00
00003E3E00
00001FFC00
00000FF800
000003F000
0000000000
0000000000
0000000000
00000FF800
0000FFFF80
0007FFFFC0
001FFFFFC0
003FFFFF80
00FFFFFF80
01FFC01F80
03FF003F80
07FC003F00
0FF8003F00
0FF0003F00
1FE0007F00
1FC0007E00
3F80007E00
3F00007E00
7F0000FE00
7F0000FC00
7E0000FC00
FE0000FC00
FE0001FC00
FC0001F800
FC0001F800
FC0001F800
FC0003F800
FC0003F000
FC0003F000
FC0003F000
FC0003F000
FE0003F000
FE000FF000
FF001FF000
7F807FF000
7FF7FFF000
3FFFFFF000
1FFFFBF000
0FFFF3F800
07FFC1F800
00FE000000
ENDCHAR
STARTCHAR 00E6
ENCODING 230
SWIDTH 488 0
DWIDTH 38 0
BBX 38 38 4 -1
BITMAP
003F0007C0
01FFC01FF0
03FFE07FF8
03FFF0FFF8
03FFF9FFFC
03FFF9FFFC
0303FFF0FC
0001FFC0FC
0000FFC0FC
0000FF80FC
0000FF00FC
0000FF00FC
00007E00FC
00007E01F8
0000FE03F8
000FFE07F0
007FFC1FE0
01FFFDFFE0
07FFFFFFC0
0FFFFFFF00
1FFCFFFE00
3FC0FFF800
3F81FF8000
7F01F80000
7E01F80000
FC03F80000
FC03F80000
FC03FC0000
FC07FC0000
FC0FFC0000
FC1FFE0000
FC3F7F0300
FFFF7FFF00
FFFE7FFF00
FFFC3FFF00
7FF81FFF00
3FE00FFE00
0F0001F000
ENDCHAR
STARTCHAR 00E7
ENCODING 231
SWIDTH 488 0
DWIDTH 38 0
BBX 33 50 6 -13
BITMAP
00003FFC00
0003FFFF80
000FFFFF80
003FFFFF80
007FFFFF80
00FFFC7F00
01FF800300
03FE000000
07F8000000
0FF0000000
1FE0000000
1FC0000000
3F80000000
3F80000000
7F00000000
7F00000000
7E00000000
FE00000000
FE00000000
FC00000000
FC00000000
FC00000000
FC00000000
FC00000000
FC00000000
FC00000000
FC00000000
FE00000000
FE00000000
FF00000000
7F80002000
7FE001F000
3FFFFFF000
1FFFFFF000
0FFFFFF000
07FFFFF000
00FFFF8000
001FFC0000
001E000000
003C000000
007F000000
007F000000
003F800000
001F800000
001F800000
041F800000
0FFF000000
0FFF000000
0FFE000000
0FF8000000
ENDCHAR
STARTCHAR 00E8
ENCODING 232
SWIDTH 488 0
DWIDTH 38 0
BBX 33 55 6 -1
BITMAP
0000080000
00001C0000
00003C0000
00007E0000
0000FF0000
00007F8000
00003FC000
00001FC000
00000FE000
000007F000
000003F800
000001F800
000000F000
0000006000
0000000000
0000000000
0000000000
00007FC000
0003FFF800
001FFFFC00
003FFFFE00
00FFFFFF00
01FFF7FF00
03FF007F80
07FC003F80
0FF8001F80
0FF0001F80
1FE0001F80
1FC0003F80
3F80003F80
3F00007F00
7F00007F00
7E0001FE00
7E0007FE00
FE00FFFC00
FFFFFFF000
FFFFFFE000
FFFFFF8000
FFFFFC0000
FFFE000000
FC00000000
FC00000000
FC00000000
FC00000000
FC00000000
FE00000000
FF00000000
7F80002000
7FE001F000
3FFFFFF000
1FFFFFF000
0FFFFFF000
07FFFFF000
01FFFF8000
003FF80000
ENDCHAR
STARTCHAR 00E9
ENCODING 233
SWIDTH 488 0
DWIDTH 38 0
BBX 33 55 6 -1
BITMAP
0000000800
0000001C00
0000003C00
0000007E00
000000FF00
000001FF00
000003FE00
000007F800
00000FF000
00001FE000
00003F8000
00003F0000
00001E0000
0000080000
0000000000
0000000000
0000000000
00007FC000
0003FFF800
001FFFFC00
003FFFFE00
00FFFFFF00
01FFF7FF00
03FF007F80
07FC003F80
0FF8001F80
0FF0001F80
1FE0001F80
1FC0003F80
3F80003F80
3F00007F00
7F00007F00
7E0001FE00
7E0007FE00
FE00FFFC00
FFFFFFF000
FFFFFFE000
FFFFFF8000
FFFFFC0000
FFFE000000
FC00000000
FC00000000
FC00000000
FC00000000
FC00000000
FE00000000
FF00000000
7F80002000
7FE001F000
3FFFFFF000
1FFFFFF000
0FFFFFF000
07FFFFF000
01FFFF8000
003FF80000
ENDCHAR
STARTCHAR 00EA
ENCODING 234
SWIDTH 488 0
DWIDTH 38 0
BBX 33 54 6 -1
BITMAP
000000C000
000001C000
000003E000
00000FF000
00001FF000
00003FF800
00007FFC00
0000FEFE00
0001F87E00
0003F03F00
0001E01F00
0001800E00
0000000000
0000000000
0000000000
0000000000
00007FC000
0003FFF800
001FFFFC00
003FFFFE00
00FFFFFF00
01FFF7FF00
03FF007F80
07FC003F80
0FF8001F80
0FF0001F80
1FE0001F80
1FC0003F80
3F80003F80
3F00007F00
7F00007F00
7E0001FE00
7E0007FE00
FE00FFFC00
FFFFFFF000
FFFFFFE000
FFFFFF8000
FFFFFC0000
FFFE000000
FC00000000
FC00000000
FC00000000
FC00000000
FC00000000
FE00000000
FF00000000
7F80002000
7FE001F000
3FFFFFF000
1FFFFFF000
0FFFFFF000
07FFFFF000
01FFFF8000
003FF80000
ENDCHAR
STARTCHAR 00EB
ENCODING 235
SWIDTH 488 0
DWIDTH 38 0
BBX 36 52 6 -1
BITMAP
00007803C0
0000FC07E0
0001FC0FE0
0003FC0FF0
0003FC0FE0
0003FC0FE0
0001F80FE0
0000F00780
0000000000
0000000000
0000000000
0000000000
0000000000
0000000000
00007FC000
0003FFF800
001FFFFC00
003FFFFE00
00FFFFFF00
01FFF7FF00
03FF007F80
07FC003F80
0FF8001F80
0FF0001F80
1FE0001F80
1FC0003F80
3F80003F80
3F00007F00
7F00007F00
7E0001FE00
7E0007FE00
FE00FFFC00
FFFFFFF000
FFFFFFE000
FFFFFF8000
FFFFFC0000
FFFE000000
FC00000000
FC00000000
FC00000000
FC00000000
FC00000000
FE00000000
FF00000000
7F80002000
7FE001F000
3FFFFFF000
1FFFFFF000
0FFFFFF000
07FFFFF000
01FFFF8000
003FF80000
ENDCHAR
STARTCHAR 00EC
ENCODING 236
SWIDTH 488 0
DWIDTH 38 0
BBX 22 54 11 0
BITMAP
001000
003000
007800
01FC00
01FE00
00FF00
007F00
003F80
001FC0
000FE0
0007F0
0003F0
0001E0
0000C0
000000
000000
000000
000000
7FFF80
FFFF80
FFFF80
FFFF80
FFFF00
003F00
003F00
007F00
007E00
007E00
007E00
00FE00
00FE00
00FC00
00FC00
01FC00
01FC00
01F800
01F800
03F800
03F800
03F000
03F000
03F000
07F000
07F000
07F000
07F000
03F000
03F800
03FE0C
03FFFC
01FFFC
00FFFC
007FFC
001FFC
ENDCHAR
STARTCHAR 00ED
ENCODING 237
SWIDTH 488 0
DWIDTH 38 0
BBX 24 53 11 1
BITMAP
00000C
00001E
00003E
00007F
0000FF
0001FE
0007FC
000FF0
001FE0
003FC0
001F00
001E00
000C00
000000
000000
000000
000000
7FFF80
FFFF80
FFFF80
FFFF80
FFFF00
003F00
003F00
007F00
007E00
007E00
007E00
00FE00
00FE00
00FC00
00FC00
01FC00
01FC00
01F800
01F800
03F800
03F800
03F000
03F000
03F000
07F000
07F000
07F000
07F000
03F000
03F800
03FE0C
03FFFC
01FFFC
00FFFC
007FFC
001FFC
ENDCHAR
STARTCHAR 00EE
ENCODING 238
SWIDTH 488 0
DWIDTH 38 0
BBX 24 53 11 0
BITMAP
000180
0003C0
0007E0
000FE0
001FF0
003FF8
00FFF8
01FCFC
03F87E
07E03F
03C01E
01800C
000000
000000
000000
000000
000000
7FFF80
FFFF80
FFFF80
FFFF80
FFFF00
003F00
003F00
007F00
007E00
007E00
007E00
00FE00
00FE00
00FC00
00FC00
01FC00
01FC00
01F800
01F800
03F800
03F800
03F000
03F000
03F000
07F000
07F000
07F000
07F000
03F000
03F800
03FE0C
03FFFC
01FFFC
00FFFC
007FFC
001FFC
ENDCHAR
STARTCHAR 00EF
ENCODING 239
SWIDTH 488 0
DWIDTH 38 0
BBX 26 51 11 0
BITMAP
00E00700
03F01FC0
03F81FC0
07F83FC0
07F83FC0
07F83FC0
07F01F80
03E00F00
00000000
00000000
00000000
00000000
00000000
00000000
00000000
7FFF8000
FFFF8000
FFFF8000
FFFF8000
FFFF0000
003F0000
003F0000
007F0000
007E0000
007E0000
007E0000
00FE0000
00FE0000
00FC0000
00FC0000
01FC0000
01FC0000
01F80000
01F80000
03F80000
03F80000
03F00000
03F00000
03F00000
07F00000
07F00000
07F00000
07F00000
03F00000
03F80000
03FE0C00
03FFFC00
01FFFC00
00FFFC00
007FFC00
001FFC00
ENDCHAR
STARTCHAR 00F0
ENCODING 240
SWIDTH 488 0
DWIDTH 38 0
BBX 38 55 6 -1
BITMAP
0000020000
00000F0000
00001F8000
00003FC000
00001FE008
00000FE07C
000007F3FC
000007FFFC
000003FFFC
00000FFFE0
00007FFF00
0001FFFE00
0001FFFE00
0001FC7E00
0001E07F00
0001007F00
0000007F00
0000003F00
0000003F00
0000003F80
0003FE3F80
001FFFBF80
007FFFFF80
00FFFFFF80
01FFFFFF80
03FFCFFF80
07FC00FF80
0FF0007F80
0FE0003F80
1FC0003F80
3F80003F00
3F80003F00
3F00003F00
7F00007F00
7F00007F00
7E00007F00
7E00007E00
FE00007E00
FE0000FE00
FE0000FC00
FE0001FC00
FE0001FC00
FE0001F800
FE0003F800
FE0007F000
7E0007F000
7F000FE000
7F801FE000
3FC07FC000
3FFFFF8000
1FFFFF0000
0FFFFE0000
07FFF80000
01FFE00000
007F000000
ENDCHAR
STARTCHAR 00F1
ENCODING 241
SWIDTH 488 0
DWIDTH 38 0
BBX 35 51 5 0
BITMAP
0000180080
0001FF01E0
0003FFC3E0
0007FFFFC0
0007FFFFC0
000F87FF80
000F01FF00
0006007800
0000000000
0000000000
0000000000
0000000000
0000000000
0000000000
00007F8000
001FFFF000
00FFFFFC00
00FFFFFE00
00FFFFFF00
01FFFFFF00
01FC00FF80
01F8007F80
01F8003F80
03F8001F80
03F8001F80
03F0001F80
03F0001F80
03F0001F80
07F0001F80
07E0001F80
07E0003F80
07E0003F80
0FE0003F00
0FC0003F00
0FC0007F00
0FC0007F00
1FC0007E00
1FC0007E00
1F80007E00
1F8000FE00
3F8000FC00
3F8000FC00
3F0000FC00
3F0001FC00
7F0001F800
7F0001F800
7E0001F800
7E0003F800
FE0003F800
FE0003F000
FC0003F000
ENDCHAR
STARTCHAR 00F2
ENCODING 242
SWIDTH 488 0
DWIDTH 38 0
BBX 33 55 6 -1
BITMAP
0000100000
0000380000
00007C0000
0000FC0000
0001FE0000
0000FF0000
00007F8000
00003FC000
00001FC000
00000FE000
000007F000
000003F000
000001E000
000000C000
0000000000
0000000000
0000000000
00007F8000
0007FFF000
001FFFF800
003FFFFC00
007FFFFE00
00FFFFFF00
01FF00FF00
03FC007F80
07F8003F80
0FF0003F80
0FE0001F80
1FE0001F80
1FC0001F80
3F80001F80
3F80001F80
3F00001F80
7F00001F80
7F00003F80
7E00003F80
7E00003F80
7E00003F00
FE00007F00
FE00007F00
FE00007E00
FE0000FE00
FE0000FE00
FE0001FC00
FE0003FC00
FE0007F800
7F000FF000
7F801FF000
7FC07FE000
3FFFFFC000
1FFFFF8000
1FFFFE0000
07FFFC0000
03FFF00000
007F000000
ENDCHAR
STARTCHAR 00F3
ENCODING 243
SWIDTH 488 0
DWIDTH 38 0
BBX 33 55 6 -1
BITMAP
0000000800
0000001C00
0000003C00
0000007E00
000000FF00
000001FF00
000003FE00
000007F800
00000FF000
00001FE000
00003F8000
00003F0000
00001E0000
0000080000
0000000000
0000000000
0000000000
00007F8000
0007FFF000
001FFFF800
003FFFFC00
007FFFFE00
00FFFFFF00
01FF00FF00
03FC007F80
07F8003F80
0FF0003F80
0FE0001F80
1FE0001F80
1FC0001F80
3F80001F80
3F80001F80
3F00001F80
7F00001F80
7F00003F80
7E00003F80
7E00003F80
7E00003F00
FE00007F00
FE00007F00
FE00007E00
FE0000FE00
FE0000FE00
FE0001FC00
FE0003FC00
FE0007F800
7F000FF000
7F801FF000
7FC07FE000
3FFFFFC000
1FFFFF8000
1FFFFE0000
07FFFC0000
03FFF00000
007F000000
ENDCHAR
STARTCHAR 00F4
ENCODING 244
SWIDTH 488 0
DWIDTH 38 0
BBX 33 54 6 -1
BITMAP
000000C000
000001C000
000007E000
00000FF000
00001FF000
00003FF800
00007FFC00
0000FCFE00
0003F87E00
0003F03F00
0001C01E00
0001800C00
0000000000
0000000000
0000000000
0000000000
00007F8000
0007FFF000
001FFFF800
003FFFFC00
007FFFFE00
00FFFFFF00
01FF00FF00
03FC007F80
07F8003F80
0FF0003F80
0FE0001F80
1FE0001F80
1FC0001F80
3F80001F80
3F80001F80
3F00001F80
7F00001F80
7F00003F80
7E00003F80
7E00003F80
7E00003F00
FE00007F00
FE00007F00
FE00007E00
FE0000FE00
FE0000FE00
FE0001FC00
FE0003FC00
FE0007F800
7F000FF000
7F801FF000
7FC07FE000
3FFFFFC000
1FFFFF8000
1FFFFE0000
07FFFC0000
03FFF00000
007F000000
ENDCHAR
STARTCHAR 00F5
ENCODING 245
SWIDTH 488 0
DWIDTH 38 0
BBX 35 52 6 -1
BITMAP
0000100180
0001FE03C0
0003FF83E0
0007FFFFC0
000FFFFF80
000F8FFF00
001F03FE00
0006007800
0000000000
0000000000
0000000000
0000000000
0000000000
0000000000
00007F8000
0007FFF000
001FFFF800
003FFFFC00
007FFFFE00
00FFFFFF00
01FF00FF00
03FC007F80
07F8003F80
0FF0003F80
0FE0001F80
1FE0001F80
1FC0001F80
3F80001F80
3F80001F80
3F00001F80
7F00001F80
7F00003F80
7E00003F80
7E00003F80
7E00003F00
FE00007F00
FE00007F00
FE00007E00
FE0000FE00
FE0000FE00
FE0001FC00
FE0003FC00
FE0007F800
7F000FF000
7F801FF000
7FC07FE000
3FFFFFC000
1FFFFF8000
1FFFFE0000
07FFFC0000
03FFF00000
007F000000
ENDCHAR
STARTCHAR 00F6
ENCODING 246
SWIDTH 488 0
DWIDTH 38 0
BBX 34 52 6 -1
BITMAP
0000E00780
0003F80FC0
0003F81FC0
0007F81FC0
0007F83FC0
0007F81FC0
0003F01FC0
0001E00F00
0000000000
0000000000
0000000000
0000000000
0000000000
0000000000
00007F8000
0007FFF000
001FFFF800
003FFFFC00
007FFFFE00
00FFFFFF00
01FF00FF00
03FC007F80
07F8003F80
0FF0003F80
0FE0001F80
1FE0001F80
1FC0001F80
3F80001F80
3F80001F80
3F00001F80
7F00001F80
7F00003F80
7E00003F80
7E00003F80
7E00003F00
FE00007F00
FE00007F00
FE00007E00
FE0000FE00
FE0000FE00
FE0001FC00
FE0003FC00
FE0007F800
7F000FF000
7F801FF000
7FC07FE000
3FFFFFC000
1FFFFF8000
1FFFFE0000
07FFFC0000
03FFF00000
007F000000
ENDCHAR
STARTCHAR 00F7
ENCODING 247
SWIDTH 488 0
DWIDTH 38 0
BBX 32 35 7 3
BITMAP
00007800
0001FC00
0001FE00
0003FE00
0003FE00
0003FE00
0003FC00
0003FC00
0001F800
00000000
00000000
00000000
00000000
00000000
00000000
7FFFFFFF
7FFFFFFF
FFFFFFFF
FFFFFFFE
FFFFFFFE
00000000
00000000
00000000
00000000
00000000
00000000
000F8000
001FC000
003FC000
007FE000
007FC000
007FC000
007FC000
003F8000
001F0000
ENDCHAR
STARTCHAR 00F8
ENCODING 248
SWIDTH 488 0
DWIDTH 38 0
BBX 41 40 2 -1
BITMAP
000000000600
000007F80F00
00007FFE1F80
0001FFFFBF00
0003FFFFFE00
0007FFFFFC00
000FFFFFF800
001FF00FF000
003FC007F000
007F800FF800
00FF001FF800
00FE003FF800
01FC007FF800
01FC00FDF800
03F801F9F800
03F803F1F800
03F007E1F800
07F00FC1F800
07F01F81F800
07E03F03F800
07E07E03F800
07E0FC03F000
0FE1F803F000
0FC3F007F000
0FC7E007E000
0FCFC00FE000
0FDF800FE000
0FFF001FC000
0FFE003FC000
07FC007F8000
07F800FF0000
07F001FF0000
07FC07FE0000
0FFFFFFC0000
1FFFFFF80000
3FFFFFE00000
7E7FFFC00000
FC3FFF000000
7807F0000000
300000000000
ENDCHAR
STARTCHAR 00F9
ENCODING 249
SWIDTH 488 0
DWIDTH 38 0
BBX 33 55 7 -1
BITMAP
0000800000
0001C00000
0003E00000
0007E00000
000FF00000
0007F80000
0003FC0000
0001FE0000
0000FE0000
00007F0000
00003F8000
00001F8000
00000F0000
0000060000
0000000000
0000000000
0000000000
0000000000
07E0001F80
07E0003F80
0FE0003F00
0FE0003F00
0FC0003F00
0FC0007F00
1FC0007F00
1FC0007E00
1F80007E00
1F8000FE00
3F8000FE00
3F8000FC00
3F0000FC00
3F0001FC00
7F0001FC00
7F0001F800
7E0001F800
7E0003F800
FE0003F800
FE0003F000
FC0003F000
FC0007F000
FC0007F000
FC0007E000
FC0007E000
FC0007E000
FC0007E000
FC000FE000
FC001FE000
FE003FE000
FF00FFE000
7FFFFFE000
7FFFFFE000
3FFFF7E000
1FFFC3F000
0FFF83F000
01F8000000
ENDCHAR
STARTCHAR 00FA
ENCODING 250
SWIDTH 488 0
DWIDTH 38 0
BBX 33 55 7 -1
BITMAP
0000002000
0000006000
000000F000
000001F800
000003F800
000007FC00
00000FF000
00001FE000
00003FC000
00007F0000
0000FE0000
0000FC0000
0000700000
0000200000
0000000000
0000000000
0000000000
0000000000
07E0001F80
07E0003F80
0FE0003F00
0FE0003F00
0FC0003F00
0FC0007F00
1FC0007F00
1FC0007E00
1F80007E00
1F8000FE00
3F8000FE00
3F8000FC00
3F0000FC00
3F0001FC00
7F0001FC00
7F0001F800
7E0001F800
7E0003F800
FE0003F800
FE0003F000
FC0003F000
FC0007F000
FC0007F000
FC0007E000
FC0007E000
FC0007E000
FC0007E000
FC000FE000
FC001FE000
FE003FE000
FF00FFE000
7FFFFFE000
7FFFFFE000
3FFFF7E000
1FFFC3F000
0FFF83F000
01F8000000
ENDCHAR
STARTCHAR 00FB
ENCODING 251
SWIDTH 488 0
DWIDTH 38 0
BBX 33 54 7 -1
BITMAP
0000020000
00000F0000
00001F8000
00003F8000
00007FC000
0000FFE000
0001FFF000
0007F3F000
000FE1F800
000FC0FC00
000F007800
0006003000
0000000000
0000000000
0000000000
0000000000
0000000000
07E0001F80
07E0003F80
0FE0003F00
0FE0003F00
0FC0003F00
0FC0007F00
1FC0007F00
1FC0007E00
1F80007E00
1F8000FE00
3F8000FE00
3F8000FC00
3F0000FC00
3F0001FC00
7F0001FC00
7F0001F800
7E0001F800
7E0003F800
FE0003F800
FE0003F000
FC0003F000
FC0007F000
FC0007F000
FC0007E000
FC0007E000
FC0007E000
FC0007E000
FC000FE000
FC001FE000
FE003FE000
FF00FFE000
7FFFFFE000
7FFFFFE000
3FFFF7E000
1FFFC3F000
0FFF83F000
01F8000000
ENDCHAR
STARTCHAR 00FC
ENCODING 252
SWIDTH 488 0
DWIDTH 38 0
BBX 33 52 7 -1
BITMAP
0007803C00
000FC07E00
001FC0FE00
001FC0FF00
003FC0FF00
003FC0FE00
001FC0FE00
000F007C00
0000000000
0000000000
0000000000
0000000000
0000000000
0000000000
0000000000
07E0001F80
07E0003F80
0FE0003F00
0FE0003F00
0FC0003F00
0FC0007F00
1FC0007F00
1FC0007E00
1F80007E00
1F8000FE00
3F8000FE00
3F8000FC00
3F0000FC00
3F0001FC00
7F0001FC00
7F0001F800
7E0001F800
7E0003F800
FE0003F800
FE0003F000
FC0003F000
FC0007F000
FC0007F000
FC0007E000
FC0007E000
FC0007E000
FC0007E000
FC000FE000
FC001FE000
FE003FE000
FF00FFE000
7FFFFFE000
7FFFFFE000
3FFFF7E000
1FFFC3F000
0FFF83F000
01F8000000
ENDCHAR
STARTCHAR 00FD
ENCODING 253
SWIDTH 488 0
DWIDTH 38 0
BBX 43 67 -1 -13
BITMAP
000000002000
000000006000
00000000F000
00000001F800
00000003F800
00000007FC00
0000000FF000
0000001FE000
0000003FC000
0000007F0000
000000FE0000
000000FC0000
000000700000
000000200000
000000000000
000000000000
000000000000
000000000000
000FC0000FE0
000FC0000FC0
000FC0001FC0
000FC0001FC0
000FC0001F80
000FE0003F80
000FE0003F80
000FE0003F00
000FE0007F00
000FE0007E00
0007E000FE00
0007E000FE00
0007E000FC00
0007F001FC00
0007F001F800
0007F003F800
0003F003F000
0003F003F000
0003F007F000
0003F807E000
0003F80FE000
0001F80FC000
0001F81FC000
0001F81F8000
0001FC3F8000
0001FC3F0000
0000FC7E0000
0000FC7E0000
0000FEFC0000
00007FFC0000
00007FF80000
00007FF80000
00007FF00000
00003FE00000
00003FE00000
00003FC00000
00003F800000
00003F000000
00007F000000
0000FE000000
0001FC000000
0003F8000000
000FF0000000
7DFFE0000000
7FFFC0000000
FFFF80000000
FFFE00000000
FFF800000000
3FC000000000
ENDCHAR
STARTCHAR 00FE
ENCODING 254
SWIDTH 488 0
DWIDTH 38 0
BBX 38 67 1 -13
BITMAP
00000E0000
0000FC0000
0000FC0000
0000FC0000
0001FC0000
0001FC0000
0001F80000
0001F80000
0003F80000
0003F80000
0003F00000
0003F00000
0007F00000
0007F00000
0007E00000
0007E00000
000FE00000
000FE1FC00
000FEFFF80
000FFFFFC0
000FFFFFE0
001FFFFFF0
001FFFFFF8
001FF007F8
001FC003F8
003F8001FC
003F0001FC
003F0000FC
003F0000FC
007F0000FC
007E0000FC
007E0000FC
007E0000FC
00FE0000FC
00FE0001FC
00FC0001FC
00FC0001F8
01FC0001F8
01FC0003F8
01F80003F8
01F80007F0
03F80007F0
03F8000FE0
03F0001FE0
03F0003FC0
03F0007F80
07F000FF80
07E003FF00
07E01FFE00
07FFFFFC00
0FFFFFF000
0FFFFFE000
0FFFFF8000
0FFFFC0000
1FFFC00000
1FC0000000
1F80000000
1F80000000
3F80000000
3F80000000
3F00000000
3F00000000
7F00000000
7F00000000
7E00000000
7E00000000
FE00000000
ENDCHAR
STARTCHAR 00FF
ENCODING 255
SWIDTH 488 0
DWIDTH 38 0
BBX 43 64 -1 -13
BITMAP
000007803C00
00000FC07E00
00001FC0FE00
00003FC0FF00
00003FC0FF00
00003FC0FE00
00001F80FE00
00000F007C00
000000000000
000000000000
000000000000
000000000000
000000000000
000000000000
000000000000
000FC0000FE0
000FC0000FC0
000FC0001FC0
000FC0001FC0
000FC0001F80
000FE0003F80
000FE0003F80
000FE0003F00
000FE0007F00
000FE0007E00
0007E000FE00
0007E000FE00
0007E000FC00
0007F001FC00
0007F001F800
0007F003F800
0003F003F000
0003F003F000
0003F007F000
0003F807E000
0003F80FE000
0001F80FC000
0001F81FC000
0001F81F8000
0001FC3F8000
0001FC3F0000
0000FC7E0000
0000FC7E0000
0000FEFC0000
00007FFC0000
00007FF80000
00007FF80000
00007FF00000
00003FE00000
00003FE00000
00003FC00000
00003F800000
00003F000000
00007F000000
0000FE000000
0001FC000000
0003F8000000
000FF0000000
7DFFE0000000
7FFFC0000000
FFFF80000000
FFFE00000000
FFF800000000
3FC000000000
ENDCHAR
STARTCHAR 0100
ENCODING 256
SWIDTH 488 0
DWIDTH 38 0
BBX 43 60 -1 0
BITMAP
000001FFFFE0
000001FFFFC0
000001FFFFC0
000003FFFFC0
000003FFFFC0
000000000000
000000000000
000000000000
000000000000
000000000000
000000000000
000000000000
0000003FC000
0000007FC000
0000007FC000
000000FFE000
000000FFE000
000001FFE000
000003F7E000
000003F7E000
000007E7E000
000007C7E000
00000FC7E000
00001F87E000
00001F83F000
00003F03F000
00003F03F000
00007E03F000
00007C03F000
0000FC03F000
0001F803F000
0001F803F000
0003F003F000
0003F003F000
0007E003F000
0007E003F000
000FC003F000
000F8003F800
001F8001F800
001F0001F800
003F0001F800
003E0001F800
007FFFFFF800
00FFFFFFF800
00FFFFFFF800
01FFFFFFF800
01FFFFFFF800
03F00001F800
03F00001F800
07E00001F800
07E00001F800
0FC00001F800
0FC00001F800
1FC00001F800
1F800001F800
3F800001F800
3F000001F800
7F000001F800
7E000001F800
FE000001F800
ENDCHAR
STARTCHAR 0101
ENCODING 257
SWIDTH 488 0
DWIDTH 38 0
BBX 35 50 6 -1
BITMAP
0000FFFFE0
0000FFFFE0
0000FFFFE0
0001FFFFE0
0001FFFFE0
0000000000
0000000000
0000000000
0000000000
0000000000
0000000000
0000000000
00000FF800
0000FFFF80
0007FFFFC0
001FFFFFC0
003FFFFF80
00FFFFFF80
01FFC01F80
03FF003F80
07FC003F00
0FF8003F00
0FF0003F00
1FE0007F00
1FC0007E00
3F80007E00
3F00007E00
7F0000FE00
7F0000FC00
7E0000FC00
FE0000FC00
FE0001FC00
FC0001F800
FC0001F800
FC0001F800
FC0003F800
FC0003F000
FC0003F000
FC0003F000
FC0003F000
FE0003F000
FE000FF000
FF001FF000
7F807FF000
7FF7FFF000
3FFFFFF000
1FFFFBF000
0FFFF3F800
07FFC1F800
00FE000000
ENDCHAR
STARTCHAR 0102
ENCODING 258
SWIDTH 488 0
DWIDTH 38 0
BBX 43 63 -1 0
BITMAP
000000F001E0
000000F003E0
000000F803E0
000000F807C0
0000007C0FC0
0000007FFF80
0000007FFF00
0000003FFE00
0000001FFC00
00000007E000
000000000000
000000000000
000000000000
000000000000
000000000000
0000003FC000
0000007FC000
0000007FC000
000000FFE000
000000FFE000
000001FFE000
000003F7E000
000003F7E000
000007E7E000
000007C7E000
00000FC7E000
00001F87E000
00001F83F000
00003F03F000
00003F03F000
00007E03F000
00007C03F000
0000FC03F000
0001F803F000
0001F803F000
0003F003F000
0003F003F000
0007E003F000
0007E003F000
000FC003F000
000F8003F800
001F8001F800
001F0001F800
003F0001F800
003E0001F800
007FFFFFF800
00FFFFFFF800
00FFFFFFF800
01FFFFFFF800
01FFFFFFF800
03F00001F800
03F00001F800
07E00001F800
07E00001F800
0FC00001F800
0FC00001F800
1FC00001F800
1F800001F800
3F800001F800
3F000001F800
7F000001F800
7E000001F800
FE000001F800
ENDCHAR
STARTCHAR 0103
ENCODING 259
SWIDTH 488 0
DWIDTH 38 0
BBX 36 53 6 -1
BITMAP
00007801F0
00007801F0
00007C01E0
00007C03E0
00003E0FE0
00003FFFC0
00003FFF80
00001FFF00
000007FC00
000001E000
0000000000
0000000000
0000000000
0000000000
0000000000
00000FF800
0000FFFF80
0007FFFFC0
001FFFFFC0
003FFFFF80
00FFFFFF80
01FFC01F80
03FF003F80
07FC003F00
0FF8003F00
0FF0003F00
1FE0007F00
1FC0007E00
3F80007E00
3F00007E00
7F0000FE00
7F0000FC00
7E0000FC00
FE0000FC00
FE0001FC00
FC0001F800
FC0001F800
FC0001F800
FC0003F800
FC0003F000
FC0003F000
FC0003F000
FC0003F000
FE0003F000
FE000FF000
FF001FF000
7F807FF000
7FF7FFF000
3FFFFFF000
1FFFFBF000
0FFFF3F800
07FFC1F800
00FE000000
ENDCHAR
STARTCHAR 0104
ENCODING 260
SWIDTH 488 0
DWIDTH 38 0
BBX 37 61 -1 -13
BITMAP
0000003FC0
0000007FC0
0000007FC0
000000FFE0
000000FFE0
000001FFE0
000003F7E0
000003F7E0
000007E7E0
000007C7E0
00000FC7E0
00001F87E0
00001F83F0
00003F03F0
00003F03F0
00007E03F0
00007C03F0
0000FC03F0
0001F803F0
0001F803F0
0003F003F0
0003F003F0
0007E003F0
0007E003F0
000FC003F0
000F8003F8
001F8001F8
001F0001F8
003F0001F8
003E0001F8
007FFFFFF8
00FFFFFFF8
00FFFFFFF8
01FFFFFFF8
01FFFFFFF8
03F00001F8
03F00001F8
07E00001F8
07E00001F8
0FC00001F8
0FC00001F8
1FC00001F8
1F800001F8
3F800001F8
3F000001F8
7F000001F8
7E000001F8
FE000001F8
00000003F8
00000007E0
0000000FC0
0000001F80
0000003F00
0000007E00
0000007E00
0000007E00
000000FFB0
0000007FF0
0000007FF0
0000003FE0
0000001FE0
ENDCHAR
STARTCHAR 0105
ENCODING 261
SWIDTH 488 0
DWIDTH 38 0
BBX 34 50 6 -13
BITMAP
00000FF800
0000FFFF80
0007FFFFC0
001FFFFFC0
003FFFFF80
00FFFFFF80
01FFC01F80
03FF003F80
07FC003F00
0FF8003F00
0FF0003F00
1FE0007F00
1FC0007E00
3F80007E00
3F00007E00
7F0000FE00
7F0000FC00
7E0000FC00
FE0000FC00
FE0001FC00
FC0001F800
FC0001F800
FC0001F800
FC0003F800
FC0003F000
FC0003F000
FC0003F000
FC0003F000
FE0003F000
FE000FF000
FF001FF000
7F807FF000
7FF7FFF000
3FFFFFF000
1FFFFBF000
0FFFF3F800
07FFC1F800
00FE07F000
00000FC000
00001F8000
00003F0000
00007E0000
0000FC0000
0000FC0000
0001FC0000
0001FF6000
0001FFE000
0000FFC000
0000FFC000
00003FC000
ENDCHAR
STARTCHAR 0106
ENCODING 262
SWIDTH 488 0
DWIDTH 38 0
BBX 38 65 7 0
BITMAP
0000000300
0000000780
0000000F80
0000001FC0
0000003FE0
0000007F80
000000FF00
000001FE00
000003F800
000007F000
000007E000
0000078000
0000030000
0000000000
0000000000
00000FFF00
00007FFFE0
0001FFFFF0
0003FFFFFC
000FFFFFF8
001FFFBFF0
003FF001F0
007FC00060
00FF000000
01FE000000
01FC000000
03F8000000
07F0000000
07F0000000
0FE0000000
0FE0000000
1FC0000000
1FC0000000
1F80000000
3F80000000
3F00000000
3F00000000
7F00000000
7E00000000
7E00000000
7E00000000
FE00000000
FE00000000
FE00000000
FC00000000
FC00000000
FC00000000
FC00000000
FC00000000
FC00000000
FE00000000
FE00000000
FE00000000
FE00000000
7F00000000
7F00000000
7F80000000
3FC0006000
3FF003E000
1FFFFFE000
0FFFFFE000
07FFFFF000
03FFFFE000
00FFFF0000
003FF00000
ENDCHAR
STARTCHAR 0107
ENCODING 263
SWIDTH 488 0
DWIDTH 38 0
BBX 34 54 6 0
BITMAP
0000000600
0000000F00
0000001F80
0000003F80
0000007FC0
000000FF00
000001FE00
000003FC00
000007F000
00000FE000
00000FC000
0000070000
0000060000
0000000000
0000000000
0000000000
00003FFC00
0003FFFF80
000FFFFF80
003FFFFF80
007FFFFF80
00FFFC7F00
01FF800300
03FE000000
07F8000000
0FF0000000
1FE0000000
1FC0000000
3F80000000
3F80000000
7F00000000
7F00000000
7E00000000
FE00000000
FE00000000
FC00000000
FC00000000
FC00000000
FC00000000
FC00000000
FC00000000
FC00000000
FC00000000
FE00000000
FE00000000
FF00000000
7F80002000
7FE001F000
3FFFFFF000
1FFFFFF000
0FFFFFF000
07FFFFF000
01FFFF8000
001FFC0000
ENDCHAR
STARTCHAR 0108
ENCODING 264
SWIDTH 488 0
DWIDTH 38 0
BBX 38 65 7 -1
BITMAP
0000000800
0000001C00
0000007E00
000000FE00
000001FF00
000003FF80
000007FFC0
00000FEFC0
00003F87E0
00007F03F0
00003E01E0
00001800C0
0000000000
0000000000
0000000000
00000FFF00
00007FFFE0
0001FFFFF0
0003FFFFFC
000FFFFFF8
001FFFBFF0
003FF001F0
007FC00060
00FF000000
01FE000000
01FC000000
03F8000000
07F0000000
07F0000000
0FE0000000
0FE0000000
1FC0000000
1FC0000000
1F80000000
3F80000000
3F00000000
3F00000000
7F00000000
7E00000000
7E00000000
7E00000000
FE00000000
FE00000000
FE00000000
FC00000000
FC00000000
FC00000000
FC00000000
FC00000000
FC00000000
FE00000000
FE00000000
FE00000000
FE00000000
7F00000000
7F00000000
7F80000000
3FC0006000
3FF003E000
1FFFFFE000
0FFFFFE000
07FFFFF000
03FFFFE000
00FFFF0000
003FF00000
ENDCHAR
STARTCHAR 0109
ENCODING 265
SWIDTH 488 0
DWIDTH 38 0
BBX 33 54 6 -1
BITMAP
0000004000
000001E000
000003F000
000007F800
00000FF800
00001FFC00
00003FFE00
0000FE7E00
0001FC3F00
0001F81F80
0001E00F00
0000C00600
0000000000
0000000000
0000000000
0000000000
00003FFC00
0003FFFF80
000FFFFF80
003FFFFF80
007FFFFF80
00FFFC7F00
01FF800300
03FE000000
07F8000000
0FF0000000
1FE0000000
1FC0000000
3F80000000
3F80000000
7F00000000
7F00000000
7E00000000
FE00000000
FE00000000
FC00000000
FC00000000
FC00000000
FC00000000
FC00000000
FC00000000
FC00000000
FC00000000
FE00000000
FE00000000
FF00000000
7F80002000
7FE001F000
3FFFFFF000
1FFFFFF000
0FFFFFF000
07FFFFF000
01FFFF8000
001FFC0000
ENDCHAR
STARTCHAR 010A
ENCODING 266
SWIDTH 488 0
DWIDTH 38 0
BBX 38 63 7 -1
BITMAP
0000007000
000001FC00
000001FC00
000003FC00
000003FC00
000003FC00
000003FC00
000001F800
0000000000
0000000000
0000000000
0000000000
0000000000
00000FFF00
00007FFFE0
0001FFFFF0
0003FFFFFC
000FFFFFF8
001FFFBFF0
003FF001F0
007FC00060
00FF000000
01FE000000
01FC000000
03F8000000
07F0000000
07F0000000
0FE0000000
0FE0000000
1FC0000000
1FC0000000
1F80000000
3F80000000
3F00000000
3F00000000
7F00000000
7E00000000
7E00000000
7E00000000
FE00000000
FE00000000
FE00000000
FC00000000
FC00000000
FC00000000
FC00000000
FC00000000
FC00000000
FE00000000
FE00000000
FE00000000
FE00000000
7F00000000
7F00000000
7F80000000
3FC0006000
3FF003E000
1FFFFFE000
0FFFFFE000
07FFFFF000
03FFFFE000
00FFFF0000
003FF00000
ENDCHAR
STARTCHAR 010B
ENCODING 267
SWIDTH 488 0
DWIDTH 38 0
BBX 33 52 6 -1
BITMAP
000001F000
000003F800
000007F800
000007F800
000007F800
000007F800
000007F000
000003E000
0000000000
0000000000
0000000000
0000000000
0000000000
0000000000
00003FFC00
0003FFFF80
000FFFFF80
003FFFFF80
007FFFFF80
00FFFC7F00
01FF800300
03FE000000
07F8000000
0FF0000000
1FE0000000
1FC0000000
3F80000000
3F80000000
7F00000000
7F00000000
7E00000000
FE00000000
FE00000000
FC00000000
FC00000000
FC00000000
FC00000000
FC00000000
FC00000000
FC00000000
FC00000000
FE00000000
FE00000000
FF00000000
7F80002000
7FE001F000
3FFFFFF000
1FFFFFF000
0FFFFFF000
07FFFFF000
01FFFF8000
001FFC0000
ENDCHAR
STARTCHAR 010C
ENCODING 268
SWIDTH 488 0
DWIDTH 38 0
BBX 38 66 7 -1
BITMAP
0000040000
00000C0020
00001E00F0
00001F01F8
00001F83F0
00000FCFE0
000007FFC0
000007FF80
000003FF00
000001FC00
000000F800
000000F000
0000006000
0000000000
0000000000
0000000000
00000FFF00
00007FFFE0
0001FFFFF0
0003FFFFFC
000FFFFFF8
001FFFBFF0
003FF001F0
007FC00060
00FF000000
01FE000000
01FC000000
03F8000000
07F0000000
07F0000000
0FE0000000
0FE0000000
1FC0000000
1FC0000000
1F80000000
3F80000000
3F00000000
3F00000000
7F00000000
7E00000000
7E00000000
7E00000000
FE00000000
FE00000000
FE00000000
FC00000000
FC00000000
FC00000000
FC00000000
FC00000000
FC00000000
FE00000000
FE00000000
FE00000000
FE00000000
7F00000000
7F00000000
7F80000000
3FC0006000
3FF003E000
1FFFFFE000
0FFFFFE000
07FFFFF000
03FFFFE000
00FFFF0000
003FF00000
ENDCHAR
STARTCHAR 010D
ENCODING 269
SWIDTH 488 0
DWIDTH 38 0
BBX 35 54 6 0
BITMAP
0000300180
00007803C0
0000FC0FE0
00007E1FC0
00003F3F80
00003FFE00
00001FFC00
00000FF800
000007F000
000007E000
000003C000
0000010000
0000000000
0000000000
0000000000
0000000000
00003FFC00
0003FFFF80
000FFFFF80
003FFFFF80
007FFFFF80
00FFFC7F00
01FF800300
03FE000000
07F8000000
0FF0000000
1FE0000000
1FC0000000
3F80000000
3F80000000
7F00000000
7F00000000
7E00000000
FE00000000
FE00000000
FC00000000
FC00000000
FC00000000
FC00000000
FC00000000
FC00000000
FC00000000
FC00000000
FE00000000
FE00000000
FF00000000
7F80002000
7FE001F000
3FFFFFF000
1FFFFFF000
0FFFFFF000
07FFFFF000
01FFFF8000
001FFC0000
ENDCHAR
STARTCHAR 010E
ENCODING 270
SWIDTH 488 0
DWIDTH 38 0
BBX 38 65 3 0
BITMAP
0000080000
00001C0040
00003C01E0
00003E03F0
00003F07E0
00001F9FC0
00000FFF80
00000FFF00
000007FE00
000003FC00
000001F000
000001E000
000000C000
0000000000
0000000000
0000000000
00001C0000
001FFFF000
001FFFFC00
003FFFFF00
003FFFFF80
003FFFFFC0
003F00FFE0
007F001FE0
007F000FF0
007E0007F0
007E0007F8
007E0003F8
00FE0003F8
00FC0001F8
00FC0001F8
00FC0001FC
01FC0001FC
01F80001FC
01F80001FC
01F80001FC
03F80001FC
03F80001F8
03F00001F8
03F00001F8
07F00001F8
07F00003F8
07E00003F8
07E00003F8
0FE00003F0
0FE00007F0
0FC00007F0
0FC00007E0
0FC0000FE0
1FC0000FE0
1F80001FC0
1F80003FC0
1F80003F80
3F80007F00
3F0000FF00
3F0001FE00
3F0003FC00
7F000FF800
7F003FF000
7E03FFE000
7FFFFFC000
FFFFFF0000
FFFFFE0000
FFFFF00000
FFFFC00000
ENDCHAR
STARTCHAR 010F
ENCODING 271
SWIDTH 488 0
DWIDTH 38 0
BBX 46 55 4 -1
BITMAP
0000000060FC
00000007E0FC
00000007E1F8
0000000FE1F8
0000000FC1F8
0000000FC1F0
0000000FC3F0
0000001FC3F0
0000001FC3E0
0000001F83E0
0000001F83C0
0000003F87C0
0000003F87C0
0000003F0780
0000003F0780
0000007F0F80
0000007F0000
00003FFE0000
0003FFFE0000
000FFFFE0000
003FFFFE0000
007FFFFC0000
00FFFFFC0000
01FF00FC0000
03FE01FC0000
07F801F80000
0FF001F80000
0FE001F80000
1FC003F80000
1FC003F00000
3F8003F00000
3F0003F00000
7F0007F00000
7F0007E00000
7E0007E00000
7E0007E00000
FE000FE00000
FE000FE00000
FC000FC00000
FC000FC00000
FC001FC00000
FC001FC00000
FC001F800000
FC001F800000
FC001F800000
FE001F800000
FE003F800000
FE007F800000
7F01FF800000
7FDFFF800000
3FFFFF800000
3FFFDF800000
1FFF8FC00000
07FF0FC00000
01F800000000
ENDCHAR
STARTCHAR 0110
ENCODING 272
SWIDTH 488 0
DWIDTH 38 0
BBX 36 49 5 0
BITMAP
00001C0000
000FFFE000
001FFFF800
001FFFFC00
001FFFFE00
001FFFFF00
003F81FF80
003F807F80
003F003FC0
003F001FC0
007F000FE0
007F000FE0
007E000FE0
007E0007E0
00FE0007E0
00FE0007F0
00FC0007F0
00FC0007F0
00FC0007F0
01FC0007F0
01F80007F0
7FFFE007E0
7FFFE007E0
7FFFE007E0
7FFFE007E0
FFFFC00FE0
FFFFC00FE0
07F0000FE0
07F0000FC0
07E0001FC0
07E0001FC0
0FE0001F80
0FE0003F80
0FC0003F80
0FC0007F00
1FC0007F00
1FC000FE00
1F8001FE00
1F8003FC00
3F8007F800
3F800FF800
3F001FF000
3F007FE000
3F03FFC000
7FFFFF8000
7FFFFE0000
7FFFFC0000
7FFFF00000
7FFF800000
ENDCHAR
STARTCHAR 0111
ENCODING 273
SWIDTH 488 0
DWIDTH 38 0
BBX 41 55 6 -1
BITMAP
000000001C00
00000001F800
00000001F800
00000001F800
00000003F800
00000003F000
00000003F000
0000FFFFFF80
0000FFFFFF80
0000FFFFFF80
0000FFFFFF00
00000007E000
0000000FE000
0000000FC000
0000000FC000
0000000FC000
0000001FC000
00001FFFC000
0000FFFF8000
0007FFFF8000
001FFFFF8000
003FFFFF8000
007FFFFF0000
01FFC03F0000
01FF003F0000
03FC007F0000
07F8007E0000
0FF0007E0000
0FE0007E0000
1FC000FE0000
1FC000FC0000
3F8000FC0000
3F8000FC0000
7F0001FC0000
7F0001F80000
7E0001F80000
7E0001F80000
7E0003F80000
FE0003F00000
FE0003F00000
FE0003F00000
FE0007F00000
FE0007F00000
FE0007E00000
FE0007E00000
FE0007E00000
7F000FE00000
7F001FE00000
7F807FE00000
3FF7FFE00000
3FFFFFE00000
1FFFFFF00000
0FFFE3F00000
07FF83F00000
00FE00000000
ENDCHAR
STARTCHAR 0112
ENCODING 274
SWIDTH 488 0
DWIDTH 38 0
BBX 38 60 6 0
BITMAP
00007FFFF8
00007FFFF8
00007FFFF0
00007FFFF0
00007FFFF0
0000000000
0000000000
0000000000
0000000000
0000000000
0000000000
0000000000
001FFFFFFC
001FFFFFFC
001FFFFFF8
003FFFFFF8
003FFFFFF8
003F000000
003F000000
007F000000
007E000000
007E000000
007E000000
00FE000000
00FE000000
00FC000000
00FC000000
01FC000000
01FC000000
01F8000000
01F8000000
03F8000000
03FFFFFE00
03FFFFFC00
03FFFFFC00
07FFFFFC00
07FFFFFC00
07FFFFF800
07E0000000
0FE0000000
0FE0000000
0FC0000000
0FC0000000
0FC0000000
1FC0000000
1F80000000
1F80000000
1F80000000
3F80000000
3F80000000
3F00000000
3F00000000
7F00000000
7F00000000
7E00000000
7FFFFFF800
FFFFFFF800
FFFFFFF800
FFFFFFF800
FFFFFFF000
ENDCHAR
STARTCHAR 0113
ENCODING 275
SWIDTH 488 0
DWIDTH 38 0
BBX 34 50 6 -1
BITMAP
0001FFFFC0
0001FFFFC0
0003FFFFC0
0003FFFFC0
0003FFFF80
0000000000
0000000000
0000000000
0000000000
0000000000
0000000000
0000000000
00007FC000
0003FFF800
001FFFFC00
003FFFFE00
00FFFFFF00
01FFF7FF00
03FF007F80
07FC003F80
0FF8001F80
0FF0001F80
1FE0001F80
1FC0003F80
3F80003F80
3F00007F00
7F00007F00
7E0001FE00
7E0007FE00
FE00FFFC00
FFFFFFF000
FFFFFFE000
FFFFFF8000
FFFFFC0000
FFFE000000
FC00000000
FC00000000
FC00000000
FC00000000
FC00000000
FE00000000
FF00000000
7F80002000
7FE001F000
3FFFFFF000
1FFFFFF000
0FFFFFF000
07FFFFF000
01FFFF8000
003FF80000
ENDCHAR
STARTCHAR 0114
ENCODING 276
SWIDTH 488 0
DWIDTH 38 0
BBX 38 63 6 0
BITMAP
00001E0078
00001E0078
00001E00F8
00001E01F8
00001F03F0
00001FFFE0
00000FFFE0
000007FFC0
000003FF00
000000F800
0000000000
0000000000
0000000000
0000000000
0000000000
001FFFFFFC
001FFFFFFC
001FFFFFF8
003FFFFFF8
003FFFFFF8
003F000000
003F000000
007F000000
007E000000
007E000000
007E000000
00FE000000
00FE000000
00FC000000
00FC000000
01FC000000
01FC000000
01F8000000
01F8000000
03F8000000
03FFFFFE00
03FFFFFC00
03FFFFFC00
07FFFFFC00
07FFFFFC00
07FFFFF800
07E0000000
0FE0000000
0FE0000000
0FC0000000
0FC0000000
0FC0000000
1FC0000000
1F80000000
1F80000000
1F80000000
3F80000000
3F80000000
3F00000000
3F00000000
7F00000000
7F00000000
7E00000000
7FFFFFF800
FFFFFFF800
FFFFFFF800
FFFFFFF800
FFFFFFF000
ENDCHAR
STARTCHAR 0115
ENCODING 277
SWIDTH 488 0
DWIDTH 38 0
BBX 35 53 6 -1
BITMAP
0000F003E0
0000F003C0
0000F007C0
0000F807C0
0000FC1F80
00007FFF80
00007FFF00
00003FFE00
00001FF800
0000018000
0000000000
0000000000
0000000000
0000000000
0000000000
00007FC000
0003FFF800
001FFFFC00
003FFFFE00
00FFFFFF00
01FFF7FF00
03FF007F80
07FC003F80
0FF8001F80
0FF0001F80
1FE0001F80
1FC0003F80
3F80003F80
3F00007F00
7F00007F00
7E0001FE00
7E0007FE00
FE00FFFC00
FFFFFFF000
FFFFFFE000
FFFFFF8000
FFFFFC0000
FFFE000000
FC00000000
FC00000000
FC00000000
FC00000000
FC00000000
FE00000000
FF00000000
7F80002000
7FE001F000
3FFFFFF000
1FFFFFF000
0FFFFFF000
07FFFFF000
01FFFF8000
003FF80000
ENDCHAR
STARTCHAR 0116
ENCODING 278
SWIDTH 488 0
DWIDTH 38 0
BBX 38 62 6 0
BITMAP
0000007800
000000FC00
000001FE00
000001FE00
000003FE00
000001FE00
000001FC00
000001F800
0000002000
0000000000
0000000000
0000000000
0000000000
0000000000
001FFFFFFC
001FFFFFFC
001FFFFFF8
003FFFFFF8
003FFFFFF8
003F000000
003F000000
007F000000
007E000000
007E000000
007E000000
00FE000000
00FE000000
00FC000000
00FC000000
01FC000000
01FC000000
01F8000000
01F8000000
03F8000000
03FFFFFE00
03FFFFFC00
03FFFFFC00
07FFFFFC00
07FFFFFC00
07FFFFF800
07E0000000
0FE0000000
0FE0000000
0FC0000000
0FC0000000
0FC0000000
1FC0000000
1F80000000
1F80000000
1F80000000
3F80000000
3F80000000
3F00000000
3F00000000
7F00000000
7F00000000
7E00000000
7FFFFFF800
FFFFFFF800
FFFFFFF800
FFFFFFF800
FFFFFFF000
ENDCHAR
STARTCHAR 0117
ENCODING 279
SWIDTH 488 0
DWIDTH 38 0
BBX 33 52 6 -1
BITMAP
000003C000
000007F000
00000FF000
00000FF000
00000FF000
00000FF000
00000FE000
000007C000
0000000000
0000000000
0000000000
0000000000
0000000000
0000000000
00007FC000
0003FFF800
001FFFFC00
003FFFFE00
00FFFFFF00
01FFF7FF00
03FF007F80
07FC003F80
0FF8001F80
0FF0001F80
1FE0001F80
1FC0003F80
3F80003F80
3F00007F00
7F00007F00
7E0001FE00
7E0007FE00
FE00FFFC00
FFFFFFF000
FFFFFFE000
FFFFFF8000
FFFFFC0000
FFFE000000
FC00000000
FC00000000
FC00000000
FC00000000
FC00000000
FE00000000
FF00000000
7F80002000
7FE001F000
3FFFFFF000
1FFFFFF000
0FFFFFF000
07FFFFF000
01FFFF8000
003FF80000
ENDCHAR
STARTCHAR 0118
ENCODING 280
SWIDTH 488 0
DWIDTH 38 0
BBX 38 61 6 -13
BITMAP
001FFFFFFC
001FFFFFFC
001FFFFFF8
003FFFFFF8
003FFFFFF8
003F000000
003F000000
007F000000
007E000000
007E000000
007E000000
00FE000000
00FE000000
00FC000000
00FC000000
01FC000000
01FC000000
01F8000000
01F8000000
03F8000000
03FFFFFE00
03FFFFFC00
03FFFFFC00
07FFFFFC00
07FFFFFC00
07FFFFF800
07E0000000
0FE0000000
0FE0000000
0FC0000000
0FC0000000
0FC0000000
1FC0000000
1F80000000
1F80000000
1F80000000
3F80000000
3F80000000
3F00000000
3F00000000
7F00000000
7F00000000
7E00000000
7FFFFFF800
FFFFFFF800
FFFFFFF800
FFFFFFF800
FFFFFFF000
000007E000
00001FC000
00003F0000
00007E0000
0000FC0000
0000F80000
0001F80000
0001F80000
0001FEC000
0001FFC000
0001FFC000
0000FFC000
00003F8000
ENDCHAR
STARTCHAR 0119
ENCODING 281
SWIDTH 488 0
DWIDTH 38 0
BBX 33 50 6 -13
BITMAP
00007FC000
0003FFF800
001FFFFC00
003FFFFE00
00FFFFFF00
01FFF7FF00
03FF007F80
07FC003F80
0FF8001F80
0FF0001F80
1FE0001F80
1FC0003F80
3F80003F80
3F00007F00
7F00007F00
7E0001FE00
7E0007FE00
FE00FFFC00
FFFFFFF000
FFFFFFE000
FFFFFF8000
FFFFFC0000
FFFE000000
FC00000000
FC00000000
FC00000000
FC00000000
FC00000000
FE00000000
FF00000000
7F80002000
7FE001F000
3FFFFFF000
1FFFFFF000
0FFFFFF000
07FFFFF000
01FFFFC000
003FFF8000
00007E0000
0000FC0000
0001F80000
0003F00000
0007E00000
0007E00000
0007E00000
000FFB0000
0007FF0000
0007FF0000
0003FE0000
0001FE0000
ENDCHAR
STARTCHAR 011A
ENCODING 282
SWIDTH 488 0
DWIDTH 38 0
BBX 38 64 6 1
BITMAP
0000060030
00001F0070
00001F81F8
00000F83F8
00000FC7E0
000007FFC0
000003FF80
000003FF00
000001FE00
000000FC00
0000007000
0000006000
0000000000
0000000000
0000000000
0000000000
001FFFFFFC
001FFFFFFC
001FFFFFF8
003FFFFFF8
003FFFFFF8
003F000000
003F000000
007F000000
007E000000
007E000000
007E000000
00FE000000
00FE000000
00FC000000
00FC000000
01FC000000
01FC000000
01F8000000
01F8000000
03F8000000
03FFFFFE00
03FFFFFC00
03FFFFFC00
07FFFFFC00
07FFFFFC00
07FFFFF800
07E0000000
0FE0000000
0FE0000000
0FC0000000
0FC0000000
0FC0000000
1FC0000000
1F80000000
1F80000000
1F80000000
3F80000000
3F80000000
3F00000000
3F00000000
7F00000000
7F00000000
7E00000000
7FFFFFF800
FFFFFFF800
FFFFFFF800
FFFFFFF800
FFFFFFF000
ENDCHAR
STARTCHAR 011B
ENCODING 283
SWIDTH 488 0
DWIDTH 38 0
BBX 34 55 6 -1
BITMAP
0000200000
0000600300
0000F00780
0000F80FC0
0000FC3F80
00007E7F00
00003FFE00
00003FF800
00001FF000
00000FE000
000007C000
0000078000
0000030000
0000000000
0000000000
0000000000
0000000000
00007FC000
0003FFF800
001FFFFC00
003FFFFE00
00FFFFFF00
01FFF7FF00
03FF007F80
07FC003F80
0FF8001F80
0FF0001F80
1FE0001F80
1FC0003F80
3F80003F80
3F00007F00
7F00007F00
7E0001FE00
7E0007FE00
FE00FFFC00
FFFFFFF000
FFFFFFE000
FFFFFF8000
FFFFFC0000
FFFE000000
FC00000000
FC00000000
FC00000000
FC00000000
FC00000000
FE00000000
FF00000000
7F80002000
7FE001F000
3FFFFFF000
1FFFFFF000
0FFFFFF000
07FFFFF000
01FFFF8000
003FF80000
ENDCHAR
STARTCHAR 011C
ENCODING 284
SWIDTH 488 0
DWIDTH 38 0
BBX 37 65 6 -1
BITMAP
0000001800
0000003C00
0000007C00
000000FE00
000001FF00
000003FF00
00000FFF80
00001FCFC0
00003F87E0
00007F03E0
00003C03E0
00001801C0
0000000080
0000000000
0000000000
000007FF00
00003FFFE0
0000FFFFF0
0003FFFFF8
0007FFFFF8
000FFF1FF0
003FF001F0
007FC00060
007F800000
00FE000000
01FC000000
03F8000000
03F8000000
07F0000000
07E0000000
0FE0000000
0FC0000000
1FC0000000
1F80000000
3F80000000
3F80000000
3F00000000
3F00000000
7F00000000
7F00000000
7E00003F80
7E00003F80
7E00003F00
FE00003F00
FE00007F00
FE00007F00
FE00007E00
FE00007E00
FE0000FE00
FE0000FE00
FE0000FC00
FE0000FC00
7E0000FC00
7F0001FC00
7F0001F800
7F8001F800
3F8001F800
3FC003F800
1FF003F800
1FFFFFF000
0FFFFFF000
07FFFFF000
03FFFFF000
00FFFFC000
001FF80000
ENDCHAR
STARTCHAR 011D
ENCODING 285
SWIDTH 488 0
DWIDTH 38 0
BBX 39 66 2 -13
BITMAP
0000000600
0000000F00
0000001F80
0000003F80
0000007FC0
000000FFE0
000003FFE0
000007F3F0
00000FE1F8
00001F80FC
00000F0078
0000060030
0000000000
0000000000
0000000000
0000000000
0000007FE0
000007FFFC
00003FFFFE
0000FFFFFE
0001FFFFFE
0007FFFFFC
000FFE00FC
001FF001FC
003FE001FC
007FC001F8
007F8001F8
00FF0003F8
00FE0003F8
01FC0003F0
01F80003F0
03F80003F0
03F80007F0
03F00007E0
07F00007E0
07F00007E0
07E0000FE0
07E0000FC0
07E0000FC0
07E0000FC0
07E0001FC0
07E0001F80
07E0001F80
07F0003F80
07F0007F80
07FC03FF00
03FFFFFF00
01FFFFFF00
01FFFFFF00
007FFFFE00
003FFC7E00
0000807E00
000000FE00
000000FC00
000000FC00
000001FC00
000003F800
000007F800
20000FF000
78003FE000
7FC3FFE000
FFFFFFC000
FFFFFF8000
FFFFFE0000
3FFFF80000
07FF800000
ENDCHAR
STARTCHAR 011E
ENCODING 286
SWIDTH 488 0
DWIDTH 38 0
BBX 37 64 6 -1
BITMAP
00001E0078
00001E0078
00001E00F8
00001E01F8
00001F03F0
00001FFFE0
00000FFFE0
000007FFC0
000003FF00
000000F800
0000000000
0000000000
0000000000
0000000000
000007FF00
00003FFFE0
0000FFFFF0
0003FFFFF8
0007FFFFF8
000FFF1FF0
003FF001F0
007FC00060
007F800000
00FE000000
01FC000000
03F8000000
03F8000000
07F0000000
07E0000000
0FE0000000
0FC0000000
1FC0000000
1F80000000
3F80000000
3F80000000
3F00000000
3F00000000
7F00000000
7F00000000
7E00003F80
7E00003F80
7E00003F00
FE00003F00
FE00007F00
FE00007F00
FE00007E00
FE00007E00
FE0000FE00
FE0000FE00
FE0000FC00
FE0000FC00
7E0000FC00
7F0001FC00
7F0001F800
7F8001F800
3F8001F800
3FC003F800
1FF003F800
1FFFFFF000
0FFFFFF000
07FFFFF000
03FFFFF000
00FFFFC000
001FF80000
ENDCHAR
STARTCHAR 011F
ENCODING 287
SWIDTH 488 0
DWIDTH 38 0
BBX 39 65 2 -13
BITMAP
000007801E
000007801E
000007803E
000007C07E
000007E0FC
000007FFF8
000003FFF8
000001FFF0
000000FFC0
0000001C00
0000000000
0000000000
0000000000
0000000000
0000000000
0000007FE0
000007FFFC
00003FFFFE
0000FFFFFE
0001FFFFFE
0007FFFFFC
000FFE00FC
001FF001FC
003FE001FC
007FC001F8
007F8001F8
00FF0003F8
00FE0003F8
01FC0003F0
01F80003F0
03F80003F0
03F80007F0
03F00007E0
07F00007E0
07F00007E0
07E0000FE0
07E0000FC0
07E0000FC0
07E0000FC0
07E0001FC0
07E0001F80
07E0001F80
07F0003F80
07F0007F80
07FC03FF00
03FFFFFF00
01FFFFFF00
01FFFFFF00
007FFFFE00
003FFC7E00
0000807E00
000000FE00
000000FC00
000000FC00
000001FC00
000003F800
000007F800
20000FF000
78003FE000
7FC3FFE000
FFFFFFC000
FFFFFF8000
FFFFFE0000
3FFFF80000
07FF800000
ENDCHAR
STARTCHAR 0120
ENCODING 288
SWIDTH 488 0
DWIDTH 38 0
BBX 37 63 6 -1
BITMAP
0000007800
000000FC00
000001FE00
000001FE00
000003FE00
000001FE00
000001FC00
000001F800
0000002000
0000000000
0000000000
0000000000
0000000000
000007FF00
00003FFFE0
0000FFFFF0
0003FFFFF8
0007FFFFF8
000FFF1FF0
003FF001F0
007FC00060
007F800000
00FE000000
01FC000000
03F8000000
03F8000000
07F0000000
07E0000000
0FE0000000
0FC0000000
1FC0000000
1F80000000
3F80000000
3F80000000
3F00000000
3F00000000
7F00000000
7F00000000
7E00003F80
7E00003F80
7E00003F00
FE00003F00
FE00007F00
FE00007F00
FE00007E00
FE00007E00
FE0000FE00
FE0000FE00
FE0000FC00
FE0000FC00
7E0000FC00
7F0001FC00
7F0001F800
7F8001F800
3F8001F800
3FC003F800
1FF003F800
1FFFFFF000
0FFFFFF000
07FFFFF000
03FFFFF000
00FFFFC000
001FF80000
ENDCHAR
STARTCHAR 0121
ENCODING 289
SWIDTH 488 0
DWIDTH 38 0
BBX 39 64 2 -13
BITMAP
0000001F00
0000003F80
0000007F80
0000007F80
0000007F80
0000007F80
0000007F00
0000003E00
0000000000
0000000000
0000000000
0000000000
0000000000
0000000000
0000007FE0
000007FFFC
00003FFFFE
0000FFFFFE
0001FFFFFE
0007FFFFFC
000FFE00FC
001FF001FC
003FE001FC
007FC001F8
007F8001F8
00FF0003F8
00FE0003F8
01FC0003F0
01F80003F0
03F80003F0
03F80007F0
03F00007E0
07F00007E0
07F00007E0
07E0000FE0
07E0000FC0
07E0000FC0
07E0000FC0
07E0001FC0
07E0001F80
07E0001F80
07F0003F80
07F0007F80
07FC03FF00
03FFFFFF00
01FFFFFF00
01FFFFFF00
007FFFFE00
003FFC7E00
0000807E00
000000FE00
000000FC00
000000FC00
000001FC00
000003F800
000007F800
20000FF000
78003FE000
7FC3FFE000
FFFFFFC000
FFFFFF8000
FFFFFE0000
3FFFF80000
07FF800000
ENDCHAR
STARTCHAR 0122
ENCODING 290
SWIDTH 488 0
DWIDTH 38 0
BBX 37 62 6 -13
BITMAP
000007FF00
00003FFFE0
0000FFFFF0
0003FFFFF8
0007FFFFF8
000FFF1FF0
003FF001F0
007FC00060
007F800000
00FE000000
01FC000000
03F8000000
03F8000000
07F0000000
07E0000000
0FE0000000
0FC0000000
1FC0000000
1F80000000
3F80000000
3F80000000
3F00000000
3F00000000
7F00000000
7F00000000
7E00003F80
7E00003F80
7E00003F00
FE00003F00
FE00007F00
FE00007F00
FE00007E00
FE00007E00
FE0000FE00
FE0000FE00
FE0000FC00
FE0000FC00
7E0000FC00
7F0001FC00
7F0001F800
7F8001F800
3F8001F800
3FC003F800
1FF003F800
1FFFFFF000
0FFFFFF000
07FFFFF000
03FFFFF000
00FFFFC000
001FF80000
0000000000
0000000000
003F000000
003F000000
003F000000
007F000000
007E000000
00FE000000
0FFC000000
1FF8000000
1FF0000000
1FC0000000
ENDCHAR
STARTCHAR 0123
ENCODING 291
SWIDTH 488 0
DWIDTH 38 0
BBX 39 67 2 -13
BITMAP
0000000038
00000000F8
00000003FC
00000007F8
00000007F0
0000000FE0
0000001FC0
0000001F80
0000001F80
0000003F80
0000003F00
0000003F00
0000000000
0000000000
0000000000
0000000000
0000000000
0000007FE0
000007FFFC
00003FFFFE
0000FFFFFE
0001FFFFFE
0007FFFFFC
000FFE00FC
001FF001FC
003FE001FC
007FC001F8
007F8001F8
00FF0003F8
00FE0003F8
01FC0003F0
01F80003F0
03F80003F0
03F80007F0
03F00007E0
07F00007E0
07F00007E0
07E0000FE0
07E0000FC0
07E0000FC0
07E0000FC0
07E0001FC0
07E0001F80
07E0001F80
07F0003F80
07F0007F80
07FC03FF00
03FFFFFF00
01FFFFFF00
01FFFFFF00
007FFFFE00
003FFC7E00
0000807E00
000000FE00
000000FC00
000000FC00
000001FC00
000003F800
000007F800
20000FF000
78003FE000
7FC3FFE000
FFFFFFC000
FFFFFF8000
FFFFFE0000
3FFFF80000
07FF800000
ENDCHAR
STARTCHAR 0124
ENCODING 292
SWIDTH 488 0
DWIDTH 38 0
BBX 42 64 3 0
BITMAP
000000060000
0000000E0000
0000001F0000
0000003F8000
000000FF8000
000001FFC000
000003FFE000
000007F7E000
00000FC3F000
00001F81F800
00001F00F800
00000C007000
000000002000
000000000000
000000000000
000000000000
001FC0001FC0
001F80001F80
001F80001F80
003F80001F80
003F80003F80
003F00003F80
003F00003F00
007F00003F00
007F00007F00
007E00007F00
007E00007E00
007E00007E00
00FE0000FE00
00FC0000FE00
00FC0000FC00
00FC0000FC00
01FC0001FC00
01FC0001FC00
01F80001F800
01F80001F800
03FFFFFFF800
03FFFFFFF800
03FFFFFFF000
03FFFFFFF000
07FFFFFFF000
07FFFFFFF000
07E00007E000
07E00007E000
0FE00007E000
0FE0000FE000
0FC0000FE000
0FC0000FC000
1FC0000FC000
1FC0001FC000
1F80001FC000
1F80001F8000
1F80001F8000
3F80003F8000
3F00003F8000
3F00003F0000
3F00003F0000
7F00007F0000
7E00007F0000
7E00007E0000
7E00007E0000
FE0000FE0000
FC0000FE0000
FC0000FC0000
ENDCHAR
STARTCHAR 0125
ENCODING 293
SWIDTH 488 0
DWIDTH 38 0
BBX 33 64 4 1
BITMAP
00000C0000
00003E0000
00007F0000
0001FF8000
0003FFC000
0007F7E000
000FC3F000
000F81E000
000600C000
0004000000
0000000000
0001C00000
000FC00000
000FC00000
001FC00000
001FC00000
001F800000
001F800000
003F800000
003F800000
003F000000
003F000000
007F000000
007F000000
007E000000
007E000000
00FE000000
00FE3F8000
00FFFFF000
00FFFFF800
01FFFFFC00
01FFFFFE00
01FFFFFF00
01FC00FF00
01F8007F80
03F8003F80
03F8003F80
03F0003F80
03F0001F80
07F0001F80
07F0001F80
07E0003F80
07E0003F80
0FE0003F00
0FE0003F00
0FC0003F00
0FC0007F00
1FC0007F00
1FC0007E00
1F80007E00
1F8000FE00
3F8000FE00
3F8000FC00
3F0000FC00
3F0001FC00
3F0001FC00
7F0001F800
7E0001F800
7E0003F800
7E0003F800
FE0003F000
FC0003F000
FC0007F000
FC0007F000
ENDCHAR
STARTCHAR 0126
ENCODING 294
SWIDTH 488 0
DWIDTH 38 0
BBX 41 48 5 0
BITMAP
001FC001FC00
001F8001F800
001F8001F800
003F8001F800
003F8003F800
003F0003F000
003F0003F000
07FFFFFFFF80
0FFFFFFFFF80
0FFFFFFFFF00
0FFFFFFFFF00
0FFFFFFFFF00
00FE000FE000
00FC000FC000
00FC000FC000
00FC000FC000
01FC001FC000
01FC001FC000
01F8001F8000
01F8001F8000
03FFFFFF8000
03FFFFFF8000
03FFFFFF0000
03FFFFFF0000
07FFFFFF0000
07FFFFFF0000
07E0007E0000
07E0007E0000
07E000FE0000
0FE000FE0000
0FC000FC0000
0FC000FC0000
0FC000FC0000
1FC001FC0000
1F8001F80000
1F8001F80000
1F8001F80000
3F8003F80000
3F0003F00000
3F0003F00000
3F0003F00000
7F0007F00000
7F0007F00000
7E0007E00000
7E0007E00000
FE000FE00000
FE000FE00000
FC000FC00000
ENDCHAR
STARTCHAR 0127
ENCODING 295
SWIDTH 488 0
DWIDTH 38 0
BBX 32 54 6 0
BITMAP
00006000
0007E000
0007E000
000FE000
000FC000
000FC000
000FC000
03FFFFF8
03FFFFF8
03FFFFF8
03FFFFF0
003F8000
003F8000
003F0000
003F0000
007F0000
007F0000
007E3F80
007FFFF0
007FFFF8
00FFFFFC
00FFFFFE
00FFFFFE
00FE01FF
01FC007F
01FC007F
01F8003F
01F8003F
03F8003F
03F8003F
03F0003F
03F0003F
07F0003F
07F0007F
07E0007F
07E0007E
0FE0007E
0FE000FE
0FC000FE
0FC000FC
1FC000FC
1FC001FC
1F8001FC
1F8001F8
3F8001F8
3F8001F8
3F0003F8
3F0003F0
3F0003F0
7F0003F0
7E0007F0
7E0007F0
7E0007E0
FE0007E0
ENDCHAR
STARTCHAR 0128
ENCODING 296
SWIDTH 488 0
DWIDTH 38 0
BBX 37 62 6 0
BITMAP
0000000060
00003F8070
0000FFE0F8
0001FFFFF0
0003FFFFF0
0003F3FFE0
0007C0FFC0
0001803F00
0000800000
0000000000
0000000000
0000000000
0000000000
0000000000
001FFFFFF0
001FFFFFF0
003FFFFFE0
003FFFFFE0
003FFFFFE0
00001F8000
00001F8000
00001F8000
00003F8000
00003F8000
00003F0000
00003F0000
00007F0000
00007F0000
00007E0000
00007E0000
0000FE0000
0000FE0000
0000FC0000
0000FC0000
0001FC0000
0001FC0000
0001F80000
0001F80000
0003F80000
0003F80000
0003F00000
0003F00000
0007F00000
0007F00000
0007E00000
0007E00000
000FE00000
000FE00000
000FC00000
000FC00000
000FC00000
001FC00000
001F800000
001F800000
001F800000
003F800000
003F800000
7FFFFFC000
FFFFFF8000
FFFFFF8000
FFFFFF8000
FFFFFF8000
ENDCHAR
STARTCHAR 0129
ENCODING 297
SWIDTH 488 0
DWIDTH 38 0
BBX 28 51 11 0
BITMAP
001800C0
00FF01E0
01FFC3F0
03FFFFE0
07FFFFC0
07C7FF80
0F81FF00
03003C00
00000000
00000000
00000000
00000000
00000000
00000000
00000000
7FFF8000
FFFF8000
FFFF8000
FFFF8000
FFFF0000
003F0000
003F0000
007F0000
007E0000
007E0000
007E0000
00FE0000
00FE0000
00FC0000
00FC0000
01FC0000
01FC0000
01F80000
01F80000
03F80000
03F80000
03F00000
03F00000
03F00000
07F00000
07F00000
07F00000
07F00000
03F00000
03F80000
03FE0C00
03FFFC00
01FFFC00
00FFFC00
007FFC00
001FFC00
ENDCHAR
STARTCHAR 012A
ENCODING 298
SWIDTH 488 0
DWIDTH 38 0
BBX 36 60 6 0
BITMAP
00007FFFF0
00007FFFF0
0000FFFFF0
0000FFFFF0
0000FFFFE0
0000000000
0000000000
0000000000
0000000000
0000000000
0000000000
0000000000
001FFFFFF0
001FFFFFF0
003FFFFFE0
003FFFFFE0
003FFFFFE0
00001F8000
00001F8000
00001F8000
00003F8000
00003F8000
00003F0000
00003F0000
00007F0000
00007F0000
00007E0000
00007E0000
0000FE0000
0000FE0000
0000FC0000
0000FC0000
0001FC0000
0001FC0000
0001F80000
0001F80000
0003F80000
0003F80000
0003F00000
0003F00000
0007F00000
0007F00000
0007E00000
0007E00000
000FE00000
000FE00000
000FC00000
000FC00000
000FC00000
001FC00000
001F800000
001F800000
001F800000
003F800000
003F800000
7FFFFFC000
FFFFFF8000
FFFFFF8000
FFFFFF8000
FFFFFF8000
ENDCHAR
STARTCHAR 012B
ENCODING 299
SWIDTH 488 0
DWIDTH 38 0
BBX 26 49 11 0
BITMAP
01FFFFC0
01FFFFC0
03FFFFC0
03FFFFC0
03FFFF80
00000000
00000000
00000000
00000000
00000000
00000000
00000000
00000000
7FFF8000
FFFF8000
FFFF8000
FFFF8000
FFFF0000
003F0000
003F0000
007F0000
007E0000
007E0000
007E0000
00FE0000
00FE0000
00FC0000
00FC0000
01FC0000
01FC0000
01F80000
01F80000
03F80000
03F80000
03F00000
03F00000
03F00000
07F00000
07F00000
07F00000
07F00000
03F00000
03F80000
03FE0C00
03FFFC00
01FFFC00
00FFFC00
007FFC00
001FFC00
ENDCHAR
STARTCHAR 012C
ENCODING 300
SWIDTH 488 0
DWIDTH 38 0
BBX 36 63 6 0
BITMAP
00007800F0
00007801F0
00007C01F0
00007C03E0
00003E07E0
00003FFFC0
00003FFF80
00001FFF00
00000FFE00
000003F000
0000000000
0000000000
0000000000
0000000000
0000000000
001FFFFFF0
001FFFFFF0
003FFFFFE0
003FFFFFE0
003FFFFFE0
00001F8000
00001F8000
00001F8000
00003F8000
00003F8000
00003F0000
00003F0000
00007F0000
00007F0000
00007E0000
00007E0000
0000FE0000
0000FE0000
0000FC0000
0000FC0000
0001FC0000
0001FC0000
0001F80000
0001F80000
0003F80000
0003F80000
0003F00000
0003F00000
0007F00000
0007F00000
0007E00000
0007E00000
000FE00000
000FE00000
000FC00000
000FC00000
000FC00000
001FC00000
001F800000
001F800000
001F800000
003F800000
003F800000
7FFFFFC000
FFFFFF8000
FFFFFF8000
FFFFFF8000
FFFFFF8000
ENDCHAR
STARTCHAR 012D
ENCODING 301
SWIDTH 488 0
DWIDTH 38 0
BBX 27 52 11 0
BITMAP
00F003E0
00F003E0
00F807C0
00F807C0
00FC1F80
007FFF80
007FFF00
003FFE00
001FF800
0001C000
00000000
00000000
00000000
00000000
00000000
00000000
7FFF8000
FFFF8000
FFFF8000
FFFF8000
FFFF0000
003F0000
003F0000
007F0000
007E0000
007E0000
007E0000
00FE0000
00FE0000
00FC0000
00FC0000
01FC0000
01FC0000
01F80000
01F80000
03F80000
03F80000
03F00000
03F00000
03F00000
07F00000
07F00000
07F00000
07F00000
03F00000
03F80000
03FE0C00
03FFFC00
01FFFC00
00FFFC00
007FFC00
001FFC00
ENDCHAR
STARTCHAR 012E
ENCODING 302
SWIDTH 488 0
DWIDTH 38 0
BBX 36 61 6 -13
BITMAP
001FFFFFF0
001FFFFFF0
003FFFFFE0
003FFFFFE0
003FFFFFE0
00001F8000
00001F8000
00001F8000
00003F8000
00003F8000
00003F0000
00003F0000
00007F0000
00007F0000
00007E0000
00007E0000
0000FE0000
0000FE0000
0000FC0000
0000FC0000
0001FC0000
0001FC0000
0001F80000
0001F80000
0003F80000
0003F80000
0003F00000
0003F00000
0007F00000
0007F00000
0007E00000
0007E00000
000FE00000
000FE00000
000FC00000
000FC00000
000FC00000
001FC00000
001F800000
001F800000
001F800000
003F800000
003F800000
7FFFFFC000
FFFFFF8000
FFFFFF8000
FFFFFF8000
FFFFFF8000
00FC000000
01F8000000
03F0000000
07C0000000
0F80000000
1F80000000
3F00000000
3F00000000
3FF8000000
3FF8000000
1FF8000000
1FF8000000
07F0000000
ENDCHAR
STARTCHAR 012F
ENCODING 303
SWIDTH 488 0
DWIDTH 38 0
BBX 22 65 11 -13
BITMAP
0007C0
000FE0
001FF0
003FF0
003FF0
003FF0
003FF0
003FE0
001FE0
000F80
000000
000000
000000
000000
000000
000000
7FFF80
FFFF80
FFFF80
FFFF80
FFFF00
003F00
003F00
007F00
007E00
007E00
007E00
00FE00
00FE00
00FC00
00FC00
01FC00
01FC00
01F800
01F800
03F800
03F800
03F000
03F000
03F000
07F000
07F000
07F000
07F000
03F000
03F800
03FE0C
03FFFC
01FFFC
00FFFC
007FFC
001FFC
0003F0
0007E0
000FC0
001F00
003E00
007E00
00FC00
00FC00
00FF60
00FFE0
00FFE0
007FE0
001FC0
ENDCHAR
STARTCHAR 0130
ENCODING 304
SWIDTH 488 0
DWIDTH 38 0
BBX 36 62 6 0
BITMAP
000000E000
000003F800
000003F800
000007F800
000007F800
000007F800
000007F800
000003F000
000000C000
0000000000
0000000000
0000000000
0000000000
0000000000
001FFFFFF0
001FFFFFF0
003FFFFFE0
003FFFFFE0
003FFFFFE0
00001F8000
00001F8000
00001F8000
00003F8000
00003F8000
00003F0000
00003F0000
00007F0000
00007F0000
00007E0000
00007E0000
0000FE0000
0000FE0000
0000FC0000
0000FC0000
0001FC0000
0001FC0000
0001F80000
0001F80000
0003F80000
0003F80000
0003F00000
0003F00000
0007F00000
0007F00000
0007E00000
0007E00000
000FE00000
000FE00000
000FC00000
000FC00000
000FC00000
001FC00000
001F800000
001F800000
001F800000
003F800000
003F800000
7FFFFFC000
FFFFFF8000
FFFFFF8000
FFFFFF8000
FFFFFF8000
ENDCHAR
STARTCHAR 0131
ENCODING 305
SWIDTH 488 0
DWIDTH 38 0
BBX 22 36 11 0
BITMAP
7FFF80
FFFF80
FFFF80
FFFF80
FFFF00
003F00
003F00
007F00
007E00
007E00
007E00
00FE00
00FE00
00FC00
00FC00
01FC00
01FC00
01F800
01F800
03F800
03F800
03F000
03F000
03F000
07F000
07F000
07F000
07F000
03F000
03F800
03FE0C
03FFFC
01FFFC
00FFFC
007FFC
001FFC
ENDCHAR
STARTCHAR 0132
ENCODING 306
SWIDTH 488 0
DWIDTH 38 0
BBX 44 49 2 -1
BITMAP
001F800003F0
001F800003F0
003F800007F0
003F800007F0
003F000007E0
003F000007E0
007F00000FE0
007F00000FE0
007E00000FC0
007E00000FC0
007E00001FC0
00FE00001FC0
00FC00001F80
00FC00001F80
00FC00003F80
01FC00003F80
01F800003F00
01F800003F00
01F800003F00
03F800007F00
03F800007E00
03F000007E00
03F000007E00
07F00000FE00
07F00000FE00
07E00000FC00
07E00000FC00
0FE00001FC00
0FE00001FC00
0FC00001F800
0FC00001F800
0FC00003F800
1FC00003F800
1F800003F000
1F800003F000
1F800007F000
3F800007F000
3F000007E000
3F00000FE000
3F00000FE000
7F02001FC000
7F07003FC000
7E07807F8000
7E0FFFFF0000
FE1FFFFF0000
FE1FFFFE0000
FC0FFFF80000
FC03FFF00000
0000FF800000
ENDCHAR
STARTCHAR 0133
ENCODING 307
SWIDTH 488 0
DWIDTH 38 0
BBX 34 65 8 -13
BITMAP
0002000000
001F801F80
003FC03FC0
003FC07FC0
007FC07FC0
007FC07FC0
007FC07FC0
007FC07FC0
003F803F80
000E001E00
0000000000
0000000000
0000000000
0000000000
0000000000
0000000000
00FC00FC00
00FC00FC00
00FC01FC00
01FC01FC00
01F801F800
01F801F800
01F803F800
03F803F800
03F803F000
03F003F000
03F007F000
07F007F000
07F007E000
07E007E000
07E007E000
0FE00FE000
0FE00FC000
0FC00FC000
0FC00FC000
1FC01FC000
1FC01F8000
1F801F8000
1F801F8000
3F803F8000
3F803F8000
3F003F0000
3F003F0000
3F007F0000
7F007F0000
7E007E0000
7E007E0000
7E00FE0000
FE00FE0000
FE00FC0000
FC00FC0000
FC01FC0000
0001FC0000
0001F80000
0003F80000
0003F80000
0007F00000
0007F00000
000FE00000
1FFFE00000
1FFFC00000
1FFF800000
1FFF000000
3FFE000000
0FF0000000
ENDCHAR
STARTCHAR 0134
ENCODING 308
SWIDTH 488 0
DWIDTH 38 0
BBX 38 65 5 -1
BITMAP
0000000200
0000000700
0000001F80
0000003F80
0000007FC0
000000FFE0
000001FFF0
000003FBF0
00000FE1F8
00001FC0FC
00000F8078
0000060030
0000000000
0000000000
0000000000
0000000000
0001FFFFFC
0001FFFFFC
0001FFFFF8
0003FFFFF8
0003FFFFF8
00000003F8
00000003F8
00000003F0
00000003F0
00000007F0
00000007F0
00000007E0
00000007E0
0000000FE0
0000000FE0
0000000FC0
0000000FC0
0000001FC0
0000001FC0
0000001F80
0000001F80
0000003F80
0000003F80
0000003F00
0000003F00
0000003F00
0000007F00
0000007F00
0000007E00
0000007E00
000000FE00
000000FE00
000000FC00
000000FC00
000001FC00
000001F800
000001F800
000003F800
000003F000
000007F000
18000FF000
3C001FE000
3F007FE000
7FFFFFC000
FFFFFF8000
7FFFFF0000
1FFFFC0000
07FFF80000
00FFC00000
ENDCHAR
STARTCHAR 0135
ENCODING 309
SWIDTH 488 0
DWIDTH 38 0
BBX 37 66 2 -13
BITMAP
0000000C00
0000001E00
0000003F00
0000007F00
000000FF80
000001FFC0
000007FFE0
00000FE7E0
00001FC3F0
00001F01F8
00001E00F0
00000C0060
0000000000
0000000000
0000000000
0000000000
0000000000
0003FFFFE0
0003FFFFE0
0007FFFFE0
0007FFFFC0
0007FFFFC0
0000001FC0
0000001FC0
0000001F80
0000001F80
0000003F80
0000003F80
0000003F00
0000003F00
0000007F00
0000007F00
0000007E00
0000007E00
0000007E00
000000FE00
000000FC00
000000FC00
000000FC00
000001FC00
000001F800
000001F800
000001F800
000003F800
000003F000
000003F000
000003F000
000007F000
000007F000
000007E000
000007E000
00000FE000
00000FE000
00000FC000
00000FC000
00001FC000
00001F8000
00003F8000
20007F0000
7800FF0000
7FDFFE0000
FFFFFC0000
FFFFF80000
FFFFF00000
3FFFC00000
07FE000000
ENDCHAR
STARTCHAR 0136
ENCODING 310
SWIDTH 488 0
DWIDTH 38 0
BBX 41 61 4 -13
BITMAP
001F80007F80
001F8000FF00
003F8001FE00
003F8003FC00
003F0007F800
003F0007F000
007F000FE000
007F001FC000
007E003F8000
007E007F0000
00FE00FE0000
00FE01FC0000
00FC07F80000
00FC0FF00000
00FC1FE00000
01FC3FC00000
01F87F800000
01F8FF000000
01F9FE000000
03FBFC000000
03F7F8000000
03FFF0000000
03FFE0000000
07FFE0000000
07FFE0000000
07EFF0000000
07E7F8000000
0FE3FC000000
0FE1FC000000
0FC0FE000000
0FC0FF000000
1FC07F000000
1FC03F800000
1F801FC00000
1F801FC00000
3F800FE00000
3F800FE00000
3F0007F00000
3F0007F00000
3F0003F80000
7F0003F80000
7E0001FC0000
7E0001FC0000
7E0000FE0000
FE0000FE0000
FC0000FE0000
FC00007F0000
FC00007F0000
000000000000
000000000000
000000000000
001F80000000
001F80000000
003F80000000
003F00000000
007F00000000
00FF00000000
0FFE00000000
0FFC00000000
0FF800000000
0FE000000000
ENDCHAR
STARTCHAR 0137
ENCODING 311
SWIDTH 488 0
DWIDTH 38 0
BBX 37 67 5 -13
BITMAP
0000600000
000FE00000
000FE00000
000FC00000
000FC00000
000FC00000
001FC00000
001F800000
001F800000
001F800000
003F800000
003F800000
003F000000
003F000000
007F000000
007F000000
007E000000
007E000000
00FE0007F8
00FE000FF0
00FC001FE0
00FC003FC0
01FC00FF00
01FC01FE00
01F803FC00
01F807F800
03F81FF000
03F83FC000
03F07F8000
03F1FF0000
03F3FE0000
07F7F80000
07FFF00000
07FFE00000
07FFC00000
0FFFE00000
0FFFF00000
0FCFF00000
0FC7F80000
1FC3FC0000
1FC1FE0000
1F80FF0000
1F807F0000
3F803F8000
3F803FC000
3F001FC000
3F000FE000
7F000FE000
7F0007F000
7E0007F800
7E0003F800
FE0003F800
FE0001FC00
FC0001FC00
0000000000
0000000000
0000000000
001F800000
001F800000
001F800000
003F800000
003F000000
007F000000
07FE000000
0FFC000000
0FF8000000
0FE0000000
ENDCHAR
STARTCHAR 0138
ENCODING 312
SWIDTH 488 0
DWIDTH 38 0
BBX 37 36 5 0
BITMAP
00FE0007F8
00FE000FF0
00FC001FE0
00FC003FC0
01FC007F80
01FC01FE00
01F803FC00
01F807F800
03F80FF000
03F83FC000
03F07F8000
03F0FF0000
03F3FE0000
07F7F80000
07EFF00000
07FFE00000
07FF800000
0FFFC00000
0FFFE00000
0FCFF00000
0FC7F80000
1FC3FC0000
1FC1FE0000
1F80FF0000
1F807F0000
3F803F8000
3F803FC000
3F001FC000
3F000FE000
7F000FF000
7F0007F000
7E0007F800
7E0003F800
FE0003FC00
FE0001FC00
FC0001FE00
ENDCHAR
STARTCHAR 0139
ENCODING 313
SWIDTH 488 0
DWIDTH 38 0
BBX 29 64 4 1
BITMAP
000000C0
000001E0
000003E0
000007F0
00000FF8
00001FE0
00003FC0
00007F80
0000FE00
0001FC00
0001F800
0000E000
0000C000
00000000
00000000
00000000
000FC000
001FC000
001FC000
001F8000
001F8000
003F8000
003F8000
003F0000
003F0000
007F0000
007F0000
007E0000
007E0000
007E0000
00FE0000
00FC0000
00FC0000
00FC0000
01FC0000
01F80000
01F80000
01F80000
03F80000
03F80000
03F00000
03F00000
07F00000
07F00000
07E00000
07E00000
0FE00000
0FE00000
0FC00000
0FC00000
1FC00000
1FC00000
1F800000
1F800000
3F800000
3F800000
3F000000
3F000000
3F000000
7FFFFFF8
7FFFFFF0
7FFFFFF0
7FFFFFF0
FFFFFFF0
ENDCHAR
STARTCHAR 013A
ENCODING 314
SWIDTH 488 0
DWIDTH 38 0
BBX 22 65 14 0
BITMAP
000038
0000F8
0003F8
000FFC
003FFC
007FE0
007F00
007800
000000
000000
000000
7FFFC0
7FFFC0
7FFF80
FFFF80
FFFF80
FFFF80
003F00
003F00
003F00
007F00
007E00
007E00
007E00
00FE00
00FC00
00FC00
00FC00
01FC00
01FC00
01F800
01F800
03F800
03F800
03F000
03F000
07F000
07F000
07E000
07E000
0FE000
0FE000
0FC000
0FC000
1FC000
1FC000
1F8000
1F8000
1F8000
3F8000
3F0000
3F0000
3F0000
3F0000
3F0000
7F0000
7F0000
3F0000
3F8030
3FFFF0
3FFFF0
1FFFF0
0FFFF0
07FFE0
00FF00
ENDCHAR
STARTCHAR 013B
ENCODING 315
SWIDTH 488 0
DWIDTH 38 0
BBX 29 61 4 -13
BITMAP
000FC000
001FC000
001FC000
001F8000
001F8000
003F8000
003F8000
003F0000
003F0000
007F0000
007F0000
007E0000
007E0000
007E0000
00FE0000
00FC0000
00FC0000
00FC0000
01FC0000
01F80000
01F80000
01F80000
03F80000
03F80000
03F00000
03F00000
07F00000
07F00000
07E00000
07E00000
0FE00000
0FE00000
0FC00000
0FC00000
1FC00000
1FC00000
1F800000
1F800000
3F800000
3F800000
3F000000
3F000000
3F000000
7FFFFFF8
7FFFFFF0
7FFFFFF0
7FFFFFF0
FFFFFFF0
00000000
00000000
00000000
000FC000
000FC000
000FC000
001FC000
001F8000
003F8000
03FF0000
07FE0000
07FC0000
07F00000
ENDCHAR
STARTCHAR 013C
ENCODING 316
SWIDTH 488 0
DWIDTH 38 0
BBX 21 67 13 -13
BITMAP
3FFFE0
3FFFE0
3FFFE0
3FFFC0
7FFFC0
7FFFC0
001FC0
001F80
001F80
003F80
003F80
003F00
003F00
003F00
007F00
007E00
007E00
007E00
00FE00
00FC00
00FC00
00FC00
01FC00
01FC00
01F800
01F800
03F800
03F800
03F000
03F000
07F000
07F000
07E000
07E000
0FE000
0FE000
0FC000
0FC000
0FC000
1FC000
1F8000
1F8000
1F8000
1F8000
1F8000
3F8000
3F8000
1F8000
1FC018
1FFFF8
1FFFF8
0FFFF8
07FFF8
03FFF0
007F80
000000
000000
01FC00
01FC00
01F800
03F800
03F800
07F000
7FE000
FFE000
FF8000
FE0000
ENDCHAR
STARTCHAR 013D
ENCODING 317
SWIDTH 488 0
DWIDTH 38 0
BBX 30 48 4 0
BITMAP
000FC0FC
001FC0FC
001FC0FC
001F81F8
001F81F8
003F81F0
003F81F0
003F01F0
003F03E0
007F03E0
007F03E0
007E03C0
007E07C0
007E07C0
00FE0780
00FC0000
00FC0000
00FC0000
01FC0000
01F80000
01F80000
01F80000
03F80000
03F80000
03F00000
03F00000
07F00000
07F00000
07E00000
07E00000
0FE00000
0FE00000
0FC00000
0FC00000
1FC00000
1FC00000
1F800000
1F800000
3F800000
3F800000
3F000000
3F000000
3F000000
7FFFFFF8
7FFFFFF0
7FFFFFF0
7FFFFFF0
FFFFFFF0
ENDCHAR
STARTCHAR 013E
ENCODING 318
SWIDTH 488 0
DWIDTH 38 0
BBX 30 55 14 -1
BITMAP
7FFFC1FC
7FFFC1F8
7FFFC1F8
7FFF81F8
FFFF81F0
FFFF83F0
003F83E0
003F03E0
003F03E0
007F07C0
007F07C0
007E07C0
007E0780
007E0F80
00FE0F00
00FC0F00
00FC0000
00FC0000
01FC0000
01F80000
01F80000
01F80000
03F80000
03F80000
03F00000
03F00000
07F00000
07F00000
07E00000
07E00000
0FE00000
0FE00000
0FC00000
0FC00000
1FC00000
1FC00000
1F800000
1F800000
1F800000
3F800000
3F000000
3F000000
3F000000
3F000000
3F000000
7F000000
7F000000
3F000000
3F803000
3FFFF000
3FFFF000
1FFFF000
0FFFF000
07FFE000
00FF0000
ENDCHAR
STARTCHAR 013F
ENCODING 319
SWIDTH 488 0
DWIDTH 38 0
BBX 31 48 4 0
BITMAP
000FC000
001FC000
001FC000
001F8000
001F8000
003F8000
003F8000
003F0000
003F0000
007F0000
007F0000
007E0000
007E0000
007E0000
00FE0000
00FC0000
00FC0000
00FC0000
01FC0000
01F8007C
01F800FE
01F801FE
03F801FE
03F801FE
03F001FE
03F000FC
07F00078
07F00000
07E00000
07E00000
0FE00000
0FE00000
0FC00000
0FC00000
1FC00000
1FC00000
1F800000
1F800000
3F800000
3F800000
3F000000
3F000000
3F000000
7FFFFFF8
7FFFFFF0
7FFFFFF0
7FFFFFF0
FFFFFFF0
ENDCHAR
STARTCHAR 0140
ENCODING 320
SWIDTH 488 0
DWIDTH 38 0
BBX 31 55 14 -1
BITMAP
7FFFC000
7FFFC000
7FFFC000
7FFF8000
FFFF8000
FFFF8000
003F8000
003F0000
003F0000
007F0000
007F0000
007E0000
007E0000
007E0000
00FE0000
00FC0000
00FC0000
00FC0000
01FC0000
01F80000
01F80000
01F80000
03F80000
03F80000
03F00000
03F000FC
07F001FE
07F001FE
07E001FE
07E001FE
0FE001FE
0FE001FC
0FC000F0
0FC00000
1FC00000
1FC00000
1F800000
1F800000
1F800000
3F800000
3F000000
3F000000
3F000000
3F000000
3F000000
7F000000
7F000000
3F000000
3F803000
3FFFF000
3FFFF000
1FFFF000
0FFFF000
07FFE000
00FF0000
ENDCHAR
STARTCHAR 0141
ENCODING 321
SWIDTH 488 0
DWIDTH 38 0
BBX 29 48 4 0
BITMAP
000FE000
000FE000
000FC000
000FC000
000FC000
001FC000
001F8000
001F8000
001F8000
003F8000
003F0000
003F0000
003F0000
007F0000
007F0000
007E0100
007E0700
00FE1F00
00FE7F00
00FFFF80
00FFFF00
01FFF800
01FFE000
07FF8000
1FFE0000
7FF80000
FFF80000
FFF00000
FFF00000
F7F00000
87F00000
07E00000
07E00000
07E00000
0FE00000
0FC00000
0FC00000
0FC00000
1FC00000
1FC00000
1F800000
1F800000
3F800000
3FFFFFF8
3FFFFFF0
3FFFFFF0
7FFFFFF0
7FFFFFF0
ENDCHAR
STARTCHAR 0142
ENCODING 322
SWIDTH 488 0
DWIDTH 38 0
BBX 21 55 13 -1
BITMAP
3FFFE0
3FFFE0
3FFFE0
3FFFC0
7FFFC0
7FFFC0
001FC0
001F80
001F80
003F80
003F80
003F00
003F00
007F00
007F00
007E00
007E00
007E00
00FE00
00FC20
00FCF0
00FFF0
01FFF0
01FFF0
03FFE0
0FFF80
3FFE00
FFF800
FFF000
FFF000
FFF000
E7F000
87E000
07E000
0FE000
0FE000
0FC000
0FC000
0FC000
1FC000
1F8000
1F8000
1F8000
1F8000
1F8000
3F8000
3F8000
1F8000
1FC018
1FFFF8
1FFFF8
0FFFF8
07FFF8
03FFF0
007F80
ENDCHAR
STARTCHAR 0143
ENCODING 323
SWIDTH 488 0
DWIDTH 38 0
BBX 42 65 3 0
BITMAP
000000002000
000000006000
00000000F000
00000001F800
00000003F800
00000007FC00
0000000FF800
0000001FE000
0000003FC000
0000007F8000
000000FE0000
000000FC0000
000000780000
000000200000
000000000000
000000000000
000000000000
000FC0000FC0
001FC0000FC0
001FE0000F80
001FE0001F80
001FE0001F80
003FF0001F80
003FF0001F00
003FF0003F00
003FF8003F00
007FF8003F00
007EF8003E00
007EF8007E00
007CFC007E00
00FCFC007E00
00FC7C007E00
00FC7E00FC00
00F87E00FC00
01F83E00FC00
01F83E00FC00
01F83F00F800
01F03F01F800
03F01F01F800
03F01F01F800
03F01F81F000
03F01F83F000
03E00F83F000
07E00F83F000
07E00F83E000
07E00FC7E000
07C007C7E000
0FC007C7E000
0FC007C7C000
0FC007CFC000
0F8007EFC000
1F8003EFC000
1F8003EF8000
1F8003FF8000
1F0003FF8000
3F0003FF8000
3F0001FF8000
3F0001FF0000
3E0001FF0000
7E0001FF0000
7E0001FF0000
7E0000FE0000
7E0000FE0000
FC0000FE0000
FC0000FE0000
ENDCHAR
STARTCHAR 0144
ENCODING 324
SWIDTH 488 0
DWIDTH 38 0
BBX 33 54 5 0
BITMAP
0000000400
0000000E00
0000001E00
0000003F00
0000007F80
000000FF80
000001FF00
000003FC00
000007F800
00000FF000
00001FC000
00001F8000
00000F0000
0000040000
0000000000
0000000000
0000000000
00007F8000
001FFFF000
00FFFFFC00
00FFFFFE00
00FFFFFF00
01FFFFFF00
01FC00FF80
01F8007F80
01F8003F80
03F8001F80
03F8001F80
03F0001F80
03F0001F80
03F0001F80
07F0001F80
07E0001F80
07E0003F80
07E0003F80
0FE0003F00
0FC0003F00
0FC0007F00
0FC0007F00
1FC0007E00
1FC0007E00
1F80007E00
1F8000FE00
3F8000FC00
3F8000FC00
3F0000FC00
3F0001FC00
7F0001F800
7F0001F800
7E0001F800
7E0003F800
FE0003F800
FE0003F000
FC0003F000
ENDCHAR
STARTCHAR 0145
ENCODING 325
SWIDTH 488 0
DWIDTH 38 0
BBX 42 61 3 -13
BITMAP
000FC0000FC0
001FC0000FC0
001FE0000F80
001FE0001F80
001FE0001F80
003FF0001F80
003FF0001F00
003FF0003F00
003FF8003F00
007FF8003F00
007EF8003E00
007EF8007E00
007CFC007E00
00FCFC007E00
00FC7C007E00
00FC7E00FC00
00F87E00FC00
01F83E00FC00
01F83E00FC00
01F83F00F800
01F03F01F800
03F01F01F800
03F01F01F800
03F01F81F000
03F01F83F000
03E00F83F000
07E00F83F000
07E00F83E000
07E00FC7E000
07C007C7E000
0FC007C7E000
0FC007C7C000
0FC007CFC000
0F8007EFC000
1F8003EFC000
1F8003EF8000
1F8003FF8000
1F0003FF8000
3F0003FF8000
3F0001FF8000
3F0001FF0000
3E0001FF0000
7E0001FF0000
7E0001FF0000
7E0000FE0000
7E0000FE0000
FC0000FE0000
FC0000FE0000
000000000000
000000000000
000000000000
000FC0000000
000FC0000000
001FC0000000
001F80000000
003F80000000
007F80000000
07FF00000000
07FE00000000
07FC00000000
07F000000000
ENDCHAR
STARTCHAR 0146
ENCODING 326
SWIDTH 488 0
DWIDTH 38 0
BBX 33 50 5 -13
BITMAP
00007F8000
001FFFF000
00FFFFFC00
00FFFFFE00
00FFFFFF00
01FFFFFF00
01FC00FF80
01F8007F80
01F8003F80
03F8001F80
03F8001F80
03F0001F80
03F0001F80
03F0001F80
07F0001F80
07E0001F80
07E0003F80
07E0003F80
0FE0003F00
0FC0003F00
0FC0007F00
0FC0007F00
1FC0007E00
1FC0007E00
1F80007E00
1F8000FE00
3F8000FC00
3F8000FC00
3F0000FC00
3F0001FC00
7F0001F800
7F0001F800
7E0001F800
7E0003F800
FE0003F800
FE0003F000
FC0003F000
0000000000
0000000000
0000000000
003F000000
003F000000
007F000000
007E000000
00FE000000
01FE000000
1FFC000000
1FF8000000
1FF0000000
1FC0000000
ENDCHAR
STARTCHAR 0147
ENCODING 327
SWIDTH 488 0
DWIDTH 38 0
BBX 42 64 3 1
BITMAP
000003000800
000007803C00
00000FC07E00
000007E0FC00
000003F3F800
000001FFF000
000001FFE000
000000FFC000
0000007F0000
0000007E0000
0000003C0000
000000180000
000000000000
000000000000
000000000000
000000000000
000FC0000FC0
001FC0000FC0
001FE0000F80
001FE0001F80
001FE0001F80
003FF0001F80
003FF0001F00
003FF0003F00
003FF8003F00
007FF8003F00
007EF8003E00
007EF8007E00
007CFC007E00
00FCFC007E00
00FC7C007E00
00FC7E00FC00
00F87E00FC00
01F83E00FC00
01F83E00FC00
01F83F00F800
01F03F01F800
03F01F01F800
03F01F01F800
03F01F81F000
03F01F83F000
03E00F83F000
07E00F83F000
07E00F83E000
07E00FC7E000
07C007C7E000
0FC007C7E000
0FC007C7C000
0FC007CFC000
0F8007EFC000
1F8003EFC000
1F8003EF8000
1F8003FF8000
1F0003FF8000
3F0003FF8000
3F0001FF8000
3F0001FF0000
3E0001FF0000
7E0001FF0000
7E0001FF0000
7E0000FE0000
7E0000FE0000
FC0000FE0000
FC0000FE0000
ENDCHAR
STARTCHAR 0148
ENCODING 328
SWIDTH 488 0
DWIDTH 38 0
BBX 34 54 5 0
BITMAP
0000200000
0000700180
0000F80780
0000F80FC0
0000FC3F80
00007E7F00
00003FFE00
00001FFC00
00001FF800
00000FE000
000007C000
0000078000
0000030000
0000000000
0000000000
0000000000
0000000000
00007F8000
001FFFF000
00FFFFFC00
00FFFFFE00
00FFFFFF00
01FFFFFF00
01FC00FF80
01F8007F80
01F8003F80
03F8001F80
03F8001F80
03F0001F80
03F0001F80
03F0001F80
07F0001F80
07E0001F80
07E0003F80
07E0003F80
0FE0003F00
0FC0003F00
0FC0007F00
0FC0007F00
1FC0007E00
1FC0007E00
1F80007E00
1F8000FE00
3F8000FC00
3F8000FC00
3F0000FC00
3F0001FC00
7F0001F800
7F0001F800
7E0001F800
7E0003F800
FE0003F800
FE0003F000
FC0003F000
ENDCHAR
STARTCHAR 0149
ENCODING 329
SWIDTH 488 0
DWIDTH 38 0
BBX 33 54 5 0
BITMAP
003F800000
003F000000
003F000000
007F000000
007E000000
007E000000
00FC000000
00FC000000
01F8000000
01F8000000
03F0000000
03E0000000
07E0000000
07C0000000
0080000000
0000000000
0000000000
00007F8000
001FFFF000
00FFFFFC00
00FFFFFE00
00FFFFFF00
01FFFFFF00
01FC00FF80
01F8007F80
01F8003F80
03F8001F80
03F8001F80
03F0001F80
03F0001F80
03F0001F80
07F0001F80
07E0001F80
07E0003F80
07E0003F80
0FE0003F00
0FC0003F00
0FC0007F00
0FC0007F00
1FC0007E00
1FC0007E00
1F80007E00
1F8000FE00
3F8000FC00
3F8000FC00
3F0000FC00
3F0001FC00
7F0001F800
7F0001F800
7E0001F800
7E0003F800
FE0003F800
FE0003F000
FC0003F000
ENDCHAR
STARTCHAR 014A
ENCODING 330
SWIDTH 488 0
DWIDTH 38 0
BBX 42 61 3 -13
BITMAP
000FC0000FC0
001FE0000FC0
001FE0000F80
001FE0001F80
001FF0001F80
003FF0001F80
003FF0001F00
003FF8003F00
003FF8003F00
007FF8003F00
007EFC003E00
007EFC007E00
007CFC007E00
00FC7C007E00
00FC7E007E00
00FC7E00FC00
00F87E00FC00
01F83F00FC00
01F83F00FC00
01F83F01F800
01F03F01F800
03F01F81F800
03F01F81F800
03F01F83F000
03F00F83F000
03E00FC3F000
07E00FC3F000
07E00FC3E000
07E007C7E000
07C007C7E000
0FC007E7E000
0FC007E7C000
0FC003EFC000
0F8003EFC000
1F8003EFC000
1F8003FF8000
1F8001FF8000
1F0001FF8000
3F0001FF8000
3F0001FF8000
3F0000FF0000
3E0000FF0000
7E0000FF0000
7E0000FF0000
7E0000FE0000
7E00007E0000
FC00007E0000
FC00007E0000
000000FC0000
000000FC0000
000000FC0000
000000F80000
000001F80000
000001F80000
000003F00000
00010FF00000
0001FFE00000
0001FFC00000
0003FFC00000
0003FF000000
0003FC000000
ENDCHAR
STARTCHAR 014B
ENCODING 331
SWIDTH 488 0
DWIDTH 38 0
BBX 33 50 5 -13
BITMAP
0000FF8000
001FFFF000
00FFFFFC00
00FFFFFE00
00FFFFFF00
01FFFFFF00
01FC00FF80
01F8007F80
01F8003F80
03F8001F80
03F8001F80
03F0001F80
03F0001F80
03F0001F80
07F0001F80
07E0001F80
07E0003F80
07E0003F80
0FE0003F00
0FC0003F00
0FC0007F00
0FC0007F00
1FC0007E00
1FC0007E00
1F80007E00
1F8000FE00
3F8000FC00
3F8000FC00
3F0000FC00
3F0001FC00
7F0001F800
7F0001F800
7E0001F800
7E0003F800
FE0003F800
FE0003F000
FC0003F000
000007F000
000007F000
000007E000
000007E000
00000FE000
00000FC000
00001FC000
00087F8000
000FFF8000
001FFF0000
001FFE0000
001FF80000
001FE00000
ENDCHAR
STARTCHAR 014C
ENCODING 332
SWIDTH 488 0
DWIDTH 38 0
BBX 36 61 6 -1
BITMAP
00007FFFF0
00007FFFF0
0000FFFFF0
0000FFFFF0
0000FFFFE0
0000000000
0000000000
0000000000
0000000000
0000000000
0000000000
00003FF000
0000FFFC00
0003FFFF00
0007FFFF80
000FFFFF80
001FF8FFC0
003FC01FE0
007F800FE0
00FF000FE0
01FE0007F0
01FC0007F0
03F80007F0
03F00007F0
07F00003F0
07E00003F0
0FE00003F0
0FC00003F0
1FC00003F0
1FC00007F0
1F800007F0
3F800007F0
3F800007F0
3F000007E0
3F000007E0
7F000007E0
7F00000FE0
7E00000FE0
7E00000FC0
7E00000FC0
7E00001FC0
FE00001F80
FE00001F80
FE00003F80
FE00003F00
FE00007F00
FE00007E00
FE0000FE00
FE0000FC00
FE0001FC00
7E0003F800
7F0003F800
7F0007F000
7F800FE000
3FC03FC000
3FFFFFC000
1FFFFF0000
0FFFFE0000
07FFFC0000
01FFF00000
007F800000
ENDCHAR
STARTCHAR 014D
ENCODING 333
SWIDTH 488 0
DWIDTH 38 0
BBX 34 50 6 -1
BITMAP
0001FFFFC0
0003FFFFC0
0003FFFFC0
0003FFFF80
0003FFFF80
0000000000
0000000000
0000000000
0000000000
0000000000
0000000000
0000000000
00007F8000
0007FFF000
001FFFF800
003FFFFC00
007FFFFE00
00FFFFFF00
01FF00FF00
03FC007F80
07F8003F80
0FF0003F80
0FE0001F80
1FE0001F80
1FC0001F80
3F80001F80
3F80001F80
3F00001F80
7F00001F80
7F00003F80
7E00003F80
7E00003F80
7E00003F00
FE00007F00
FE00007F00
FE00007E00
FE0000FE00
FE0000FE00
FE0001FC00
FE0003FC00
FE0007F800
7F000FF000
7F801FF000
7FC07FE000
3FFFFFC000
1FFFFF8000
1FFFFE0000
07FFFC0000
03FFF00000
007F000000
ENDCHAR
STARTCHAR 014E
ENCODING 334
SWIDTH 488 0
DWIDTH 38 0
BBX 37 64 6 -1
BITMAP
00003C00F8
00003C00F0
00003C01F0
00003E01F0
00003F07E0
00001FFFE0
00001FFFC0
00000FFF80
000007FF00
000001F800
0000000000
0000000000
0000000000
0000000000
00003FF000
0000FFFC00
0003FFFF00
0007FFFF80
000FFFFF80
001FF8FFC0
003FC01FE0
007F800FE0
00FF000FE0
01FE0007F0
01FC0007F0
03F80007F0
03F00007F0
07F00003F0
07E00003F0
0FE00003F0
0FC00003F0
1FC00003F0
1FC00007F0
1F800007F0
3F800007F0
3F800007F0
3F000007E0
3F000007E0
7F000007E0
7F00000FE0
7E00000FE0
7E00000FC0
7E00000FC0
7E00001FC0
FE00001F80
FE00001F80
FE00003F80
FE00003F00
FE00007F00
FE00007E00
FE0000FE00
FE0000FC00
FE0001FC00
7E0003F800
7F0003F800
7F0007F000
7F800FE000
3FC03FC000
3FFFFFC000
1FFFFF0000
0FFFFE0000
07FFFC0000
01FFF00000
007F800000
ENDCHAR
STARTCHAR 014F
ENCODING 335
SWIDTH 488 0
DWIDTH 38 0
BBX 35 53 6 -1
BITMAP
0000F003E0
0000F003C0
0000F007C0
0000F80FC0
0000FC1F80
00007FFF80
00007FFF00
00003FFE00
00001FF800
0000038000
0000000000
0000000000
0000000000
0000000000
0000000000
00007F8000
0007FFF000
001FFFF800
003FFFFC00
007FFFFE00
00FFFFFF00
01FF00FF00
03FC007F80
07F8003F80
0FF0003F80
0FE0001F80
1FE0001F80
1FC0001F80
3F80001F80
3F80001F80
3F00001F80
7F00001F80
7F00003F80
7E00003F80
7E00003F80
7E00003F00
FE00007F00
FE00007F00
FE00007E00
FE0000FE00
FE0000FE00
FE0001FC00
FE0003FC00
FE0007F800
7F000FF000
7F801FF000
7FC07FE000
3FFFFFC000
1FFFFF8000
1FFFFE0000
07FFFC0000
03FFF00000
007F000000
ENDCHAR
STARTCHAR 0150
ENCODING 336
SWIDTH 488 0
DWIDTH 38 0
BBX 40 65 6 0
BITMAP
000000C00C
000001E01C
000003F03E
000007F07F
00000FF0FF
00001FE1FE
00001FC3F8
00003F87F0
00007E0FE0
0000FC0FC0
0000F80F80
0000700700
0000200400
0000000000
0000000000
00003FF000
0000FFFC00
0003FFFF00
0007FFFF80
000FFFFF80
001FF8FFC0
003FC01FE0
007F800FE0
00FF000FE0
01FE0007F0
01FC0007F0
03F80007F0
03F00007F0
07F00003F0
07E00003F0
0FE00003F0
0FC00003F0
1FC00003F0
1FC00007F0
1F800007F0
3F800007F0
3F800007F0
3F000007E0
3F000007E0
7F000007E0
7F00000FE0
7E00000FE0
7E00000FC0
7E00000FC0
7E00001FC0
FE00001F80
FE00001F80
FE00003F80
FE00003F00
FE00007F00
FE00007E00
FE0000FE00
FE0000FC00
FE0001FC00
7E0003F800
7F0003F800
7F0007F000
7F800FE000
3FC03FC000
3FFFFFC000
1FFFFF0000
0FFFFE0000
07FFFC0000
01FFF00000
007F800000
ENDCHAR
STARTCHAR 0151
ENCODING 337
SWIDTH 488 0
DWIDTH 38 0
BBX 37 55 6 -1
BITMAP
0000000040
00000600C0
00000F01E0
00001F03F0
00003F83F8
00007F07F0
0000FE0FE0
0001FC1FC0
0003F83F80
0007F07E00
000FE0FC00
000780F800
0003007000
0000002000
0000000000
0000000000
0000000000
00007F8000
0007FFF000
001FFFF800
003FFFFC00
007FFFFE00
00FFFFFF00
01FF00FF00
03FC007F80
07F8003F80
0FF0003F80
0FE0001F80
1FE0001F80
1FC0001F80
3F80001F80
3F80001F80
3F00001F80
7F00001F80
7F00003F80
7E00003F80
7E00003F80
7E00003F00
FE00007F00
FE00007F00
FE00007E00
FE0000FE00
FE0000FE00
FE0001FC00
FE0003FC00
FE0007F800
7F000FF000
7F801FF000
7FC07FE000
3FFFFFC000
1FFFFF8000
1FFFFE0000
07FFFC0000
03FFF00000
007F000000
ENDCHAR
STARTCHAR 0152
ENCODING 338
SWIDTH 488 0
DWIDTH 38 0
BBX 42 49 5 0
BITMAP
000007000000
0000FFFFFFC0
0003FFFFFF80
0007FFFFFF80
001FFFFFFF80
003FFFFFFF80
007FC0FC0000
00FF00FC0000
00FE00FC0000
01FC00FC0000
03F801F80000
03F001F80000
07F001F80000
07E001F80000
0FE003F80000
0FC003F00000
1FC003F00000
1F8003F00000
3F8007F00000
3F8007E00000
3F0007E00000
3F0007FFE000
7F000FFFE000
7E000FFFC000
7E000FFFC000
7E000FFFC000
FE001FFFC000
FE001F800000
FE001F800000
FC001F800000
FC001F800000
FC003F000000
FC003F000000
FC003F000000
FC003F000000
FC007E000000
FC007E000000
FC007E000000
FE007E000000
FE00FE000000
FE00FC000000
7F00FC000000
7F00FC000000
7FC1FC000000
3FFFFFFF0000
3FFFFFFF0000
1FFFFFFF0000
0FFFFFFF0000
03FFFFFE0000
ENDCHAR
STARTCHAR 0153
ENCODING 339
SWIDTH 488 0
DWIDTH 38 0
BBX 39 38 4 -1
BITMAP
0007C007E0
003FF01FF8
007FF83FFC
00FFFCFFFC
01FFFCFFFE
03FFFFFFFE
07F87FF0FE
07F07FE07E
0FE07FE07E
0FC03FC07E
1FC03FC07E
1F803F807E
3F803F80FC
3F803F00FC
3F003F01FC
7F007F03F8
7F007F0FF0
7F007F7FE0
7E007FFFC0
7E007FFF80
7E007FFE00
FE007FF800
FE00FFC000
FE00FE0000
FE00FE0000
FE01FE0000
FE01FE0000
FE03FE0000
FE03FE0000
7E07FE0000
7E07FF0000
7F0FFF0300
7FFFFFFF80
3FFF9FFF80
3FFF1FFF80
1FFE0FFF80
0FFC07FE00
03F001F000
ENDCHAR
STARTCHAR 0154
ENCODING 340
SWIDTH 488 0
DWIDTH 38 0
BBX 37 64 4 1
BITMAP
0000000180
00000003C0
00000007C0
0000000FE0
0000001FF0
0000003FC0
0000007F80
000000FF00
000001FC00
000003F800
000003F000
000003C000
0000018000
0000000000
0000000000
00001F8000
001FFFFC00
001FFFFF00
003FFFFFC0
003FFFFFE0
003FFFFFE0
003F003FF0
007F000FF0
007F0007F8
007E0003F8
007E0003F8
00FE0001F8
00FE0001F8
00FC0001F8
00FC0001F8
01FC0003F8
01FC0003F8
01F80003F0
01F80003F0
01F80007F0
03F8000FE0
03F0001FC0
03F0003FC0
03F000FF80
07F01FFF00
07FFFFFE00
07FFFFF800
07FFFFF000
0FFFFF8000
0FFFFF8000
0FC03F8000
0FC01FC000
1FC01FC000
1FC00FC000
1F800FE000
1F8007E000
3F8007F000
3F8007F000
3F0003F000
3F0003F800
3F0003F800
7F0001F800
7E0001F800
7E0001FC00
7E0000FC00
FE0000FC00
FC0000FC00
FC0000FE00
FC0000FE00
ENDCHAR
STARTCHAR 0155
ENCODING 341
SWIDTH 488 0
DWIDTH 38 0
BBX 33 53 7 1
BITMAP
0000000C00
0000001E00
0000003F00
0000007F00
000000FF80
000001FE00
000003FC00
000007F800
00000FE000
00001FC000
00001F8000
00000E0000
00000C0000
0000000000
0000000000
0000000000
00001FFC00
0007FFFF80
007FFFFF80
00FFFFFF80
00FFFFFF00
00FFFFFF00
01FF000200
01F8000000
01F8000000
01F8000000
03F8000000
03F0000000
03F0000000
03F0000000
07F0000000
07E0000000
07E0000000
07E0000000
0FE0000000
0FC0000000
0FC0000000
0FC0000000
1FC0000000
1FC0000000
1F80000000
1F80000000
3F80000000
3F80000000
3F00000000
3F00000000
7F00000000
7F00000000
7E00000000
7E00000000
7E00000000
FE00000000
FC00000000
ENDCHAR
STARTCHAR 0156
ENCODING 342
SWIDTH 488 0
DWIDTH 38 0
BBX 37 62 4 -13
BITMAP
00001F8000
001FFFFC00
001FFFFF00
003FFFFFC0
003FFFFFE0
003FFFFFE0
003F003FF0
007F000FF0
007F0007F8
007E0003F8
007E0003F8
00FE0001F8
00FE0001F8
00FC0001F8
00FC0001F8
01FC0003F8
01FC0003F8
01F80003F0
01F80003F0
01F80007F0
03F8000FE0
03F0001FC0
03F0003FC0
03F000FF80
07F01FFF00
07FFFFFE00
07FFFFF800
07FFFFF000
0FFFFF8000
0FFFFF8000
0FC03F8000
0FC01FC000
1FC01FC000
1FC00FC000
1F800FE000
1F8007E000
3F8007F000
3F8007F000
3F0003F000
3F0003F800
3F0003F800
7F0001F800
7E0001F800
7E0001FC00
7E0000FC00
FE0000FC00
FC0000FC00
FC0000FE00
FC0000FE00
0000000000
0000000000
0000000000
001F800000
001F800000
003F800000
003F000000
007F000000
00FF000000
0FFE000000
0FFC000000
0FF8000000
0FE0000000
ENDCHAR
STARTCHAR 0157
ENCODING 343
SWIDTH 488 0
DWIDTH 38 0
BBX 41 50 -1 -13
BITMAP
0000001FFC00
000007FFFF80
00007FFFFF80
0000FFFFFF80
0000FFFFFF00
0000FFFFFF00
0001FF000200
0001F8000000
0001F8000000
0001F8000000
0003F8000000
0003F0000000
0003F0000000
0003F0000000
0007F0000000
0007E0000000
0007E0000000
0007E0000000
000FE0000000
000FC0000000
000FC0000000
000FC0000000
001FC0000000
001FC0000000
001F80000000
001F80000000
003F80000000
003F80000000
003F00000000
003F00000000
007F00000000
007F00000000
007E00000000
007E00000000
007E00000000
00FE00000000
00FC00000000
000000000000
000000000000
000000000000
01F800000000
01F800000000
03F800000000
03F000000000
07F000000000
0FF000000000
FFE000000000
FFC000000000
FF8000000000
FE0000000000
ENDCHAR
STARTCHAR 0158
ENCODING 344
SWIDTH 488 0
DWIDTH 38 0
BBX 37 65 4 0
BITMAP
0000100000
0000380080
00007803C0
00007C07E0
00007E0FC0
00003F3F80
00001FFF00
00001FFE00
00000FFC00
000007F800
000003E000
000003C000
0000018000
0000000000
0000000000
0000000000
00001F8000
001FFFFC00
001FFFFF00
003FFFFFC0
003FFFFFE0
003FFFFFE0
003F003FF0
007F000FF0
007F0007F8
007E0003F8
007E0003F8
00FE0001F8
00FE0001F8
00FC0001F8
00FC0001F8
01FC0003F8
01FC0003F8
01F80003F0
01F80003F0
01F80007F0
03F8000FE0
03F0001FC0
03F0003FC0
03F000FF80
07F01FFF00
07FFFFFE00
07FFFFF800
07FFFFF000
0FFFFF8000
0FFFFF8000
0FC03F8000
0FC01FC000
1FC01FC000
1FC00FC000
1F800FE000
1F8007E000
3F8007F000
3F8007F000
3F0003F000
3F0003F800
3F0003F800
7F0001F800
7E0001F800
7E0001FC00
7E0000FC00
FE0000FC00
FC0000FC00
FC0000FE00
FC0000FE00
ENDCHAR
STARTCHAR 0159
ENCODING 345
SWIDTH 488 0
DWIDTH 38 0
BBX 34 53 7 1
BITMAP
0000700180
0000F807C0
0000FC0FC0
00007E1FC0
00003F7F00
00003FFE00
00001FFC00
00000FF800
00000FF000
000007E000
0000038000
0000010000
0000000000
0000000000
0000000000
0000000000
00001FFC00
0007FFFF80
007FFFFF80
00FFFFFF80
00FFFFFF00
00FFFFFF00
01FF000200
01F8000000
01F8000000
01F8000000
03F8000000
03F0000000
03F0000000
03F0000000
07F0000000
07E0000000
07E0000000
07E0000000
0FE0000000
0FC0000000
0FC0000000
0FC0000000
1FC0000000
1FC0000000
1F80000000
1F80000000
3F80000000
3F80000000
3F00000000
3F00000000
7F00000000
7F00000000
7E00000000
7E00000000
7E00000000
FE00000000
FC00000000
ENDCHAR
STARTCHAR 015A
ENCODING 346
SWIDTH 488 0
DWIDTH 38 0
BBX 38 65 4 0
BITMAP
0000000180
00000003C0
00000007C0
0000000FE0
0000001FF0
0000003FC0
0000007F80
000000FF00
000001FC00
000003F800
000003F000
000003C000
0000018000
0000000000
0000000000
00000FFF80
00007FFFF0
0001FFFFFC
0003FFFFFC
0007FFFFF8
000FFF0FF8
001FF00070
003FC00010
003F800000
003F000000
007F000000
007F000000
007E000000
007E000000
007E000000
007F000000
007F000000
007F800000
003F800000
003FC00000
001FF00000
001FFC0000
000FFF0000
0007FF8000
0001FFE000
0000FFF000
00003FFC00
00000FFC00
000003FE00
000001FE00
000000FF00
0000007F00
0000007F00
0000003F00
0000003F00
0000003F00
0000003F00
0000003F00
0000007F00
0000007F00
000000FE00
100000FE00
380003FC00
3F000FFC00
7FFFFFF800
7FFFFFF000
FFFFFFE000
3FFFFF8000
0FFFFE0000
00FFF00000
ENDCHAR
STARTCHAR 015B
ENCODING 347
SWIDTH 488 0
DWIDTH 38 0
BBX 33 55 6 -1
BITMAP
0000000800
0000001C00
0000003C00
0000007E00
000000FF00
000001FF00
000003FE00
000007F800
00000FF000
00001FE000
00003F8000
00003F0000
00001E0000
0000080000
0000000000
0000000000
0000000000
00007FF000
0003FFFF00
000FFFFF80
001FFFFF00
003FFFFF00
007FFFFE00
00FF000E00
00FE000000
01FC000000
01F8000000
01F8000000
01F8000000
01FC000000
01FE000000
00FF000000
00FFC00000
007FF00000
003FFC0000
001FFF0000
0007FF8000
0001FFC000
00007FE000
00001FF000
00000FF000
000007F000
000003F000
000003F000
000003F000
000003F000
000007F000
30000FF000
3E001FE000
7FFFFFE000
7FFFFFC000
FFFFFF8000
7FFFFE0000
1FFFF80000
01FFC00000
ENDCHAR
STARTCHAR 015C
ENCODING 348
SWIDTH 488 0
DWIDTH 38 0
BBX 38 65 4 -1
BITMAP
0000000C00
0000001C00
0000003E00
0000007F00
000001FF00
000003FF80
000007FFC0
00000FEFC0
00001F87E0
00003F03F0
00003E01F0
00001800E0
0000000040
0000000000
0000000000
00000FFF80
00007FFFF0
0001FFFFFC
0003FFFFFC
0007FFFFF8
000FFF0FF8
001FF00070
003FC00010
003F800000
003F000000
007F000000
007F000000
007E000000
007E000000
007E000000
007F000000
007F000000
007F800000
003F800000
003FC00000
001FF00000
001FFC0000
000FFF0000
0007FF8000
0001FFE000
0000FFF000
00003FFC00
00000FFC00
000003FE00
000001FE00
000000FF00
0000007F00
0000007F00
0000003F00
0000003F00
0000003F00
0000003F00
0000003F00
0000007F00
0000007F00
000000FE00
100000FE00
380003FC00
3F000FFC00
7FFFFFF800
7FFFFFF000
FFFFFFE000
3FFFFF8000
0FFFFE0000
00FFF00000
ENDCHAR
STARTCHAR 015D
ENCODING 349
SWIDTH 488 0
DWIDTH 38 0
BBX 33 54 6 -1
BITMAP
000000C000
000001E000
000003F000
000007F000
00000FF800
00001FFC00
00007FFE00
0000FE7E00
0001FC3F00
0001F01F80
0001E00F00
0000C00600
0000000000
0000000000
0000000000
0000000000
00007FF000
0003FFFF00
000FFFFF80
001FFFFF00
003FFFFF00
007FFFFE00
00FF000E00
00FE000000
01FC000000
01F8000000
01F8000000
01F8000000
01FC000000
01FE000000
00FF000000
00FFC00000
007FF00000
003FFC0000
001FFF0000
0007FF8000
0001FFC000
00007FE000
00001FF000
00000FF000
000007F000
000003F000
000003F000
000003F000
000003F000
000007F000
30000FF000
3E001FE000
7FFFFFE000
7FFFFFC000
FFFFFF8000
7FFFFE0000
1FFFF80000
01FFC00000
ENDCHAR
STARTCHAR 015E
ENCODING 350
SWIDTH 488 0
DWIDTH 38 0
BBX 38 62 4 -13
BITMAP
00000FFF80
00007FFFF0
0001FFFFFC
0003FFFFFC
0007FFFFF8
000FFF0FF8
001FF00070
003FC00010
003F800000
003F000000
007F000000
007F000000
007E000000
007E000000
007E000000
007F000000
007F000000
007F800000
003F800000
003FC00000
001FF00000
001FFC0000
000FFF0000
0007FF8000
0001FFE000
0000FFF000
00003FFC00
00000FFC00
000003FE00
000001FE00
000000FF00
0000007F00
0000007F00
0000003F00
0000003F00
0000003F00
0000003F00
0000003F00
0000007F00
0000007F00
000000FE00
100000FE00
380003FC00
3F000FFC00
7FFFFFF800
7FFFFFF000
FFFFFFE000
3FFFFF8000
0FFFFE0000
00FFE00000
001F000000
003E000000
003F000000
007F800000
001F800000
000F800000
000F800000
041F800000
07FF800000
0FFF000000
0FFE000000
07F8000000
ENDCHAR
STARTCHAR 015F
ENCODING 351
SWIDTH 488 0
DWIDTH 38 0
BBX 33 50 6 -13
BITMAP
00007FF000
0003FFFF00
000FFFFF80
001FFFFF00
003FFFFF00
007FFFFE00
00FF000E00
00FE000000
01FC000000
01F8000000
01F8000000
01F8000000
01FC000000
01FE000000
00FF000000
00FFC00000
007FF00000
003FFC0000
001FFF0000
0007FF8000
0001FFC000
00007FE000
00001FF000
00000FF000
000007F000
000003F000
000003F000
000003F000
000003F000
000007F000
30000FF000
3E001FE000
7FFFFFE000
7FFFFFC000
FFFFFF8000
7FFFFE0000
0FFFF80000
00FF800000
003C000000
007C000000
00FE000000
00FF000000
007F000000
003F000000
003F000000
083F000000
0FFF000000
1FFE000000
1FFC000000
0FF0000000
ENDCHAR
STARTCHAR 0160
ENCODING 352
SWIDTH 488 0
DWIDTH 38 0
BBX 38 65 4 0
BITMAP
0000030018
0000078038
00000FC0FC
000007E1FC
000007E3F8
000003FFE0
000001FFC0
000000FF80
000000FF00
0000007E00
0000003C00
0000003000
0000000000
0000000000
0000000000
00000FFF80
00007FFFF0
0001FFFFFC
0003FFFFFC
0007FFFFF8
000FFF0FF8
001FF00070
003FC00010
003F800000
003F000000
007F000000
007F000000
007E000000
007E000000
007E000000
007F000000
007F000000
007F800000
003F800000
003FC00000
001FF00000
001FFC0000
000FFF0000
0007FF8000
0001FFE000
0000FFF000
00003FFC00
00000FFC00
000003FE00
000001FE00
000000FF00
0000007F00
0000007F00
0000003F00
0000003F00
0000003F00
0000003F00
0000003F00
0000007F00
0000007F00
000000FE00
100000FE00
380003FC00
3F000FFC00
7FFFFFF800
7FFFFFF000
FFFFFFE000
3FFFFF8000
0FFFFE0000
00FFF00000
ENDCHAR
STARTCHAR 0161
ENCODING 353
SWIDTH 488 0
DWIDTH 38 0
BBX 35 55 6 -1
BITMAP
0000100000
00003800C0
00007C03C0
00007E07E0
00003E0FC0
00003F3F80
00001FFF00
00000FFE00
00000FFC00
000007F000
000003E000
000001C000
0000018000
0000000000
0000000000
0000000000
0000000000
00007FF000
0003FFFF00
000FFFFF80
001FFFFF00
003FFFFF00
007FFFFE00
00FF000E00
00FE000000
01FC000000
01F8000000
01F8000000
01F8000000
01FC000000
01FE000000
00FF000000
00FFC00000
007FF00000
003FFC0000
001FFF0000
0007FF8000
0001FFC000
00007FE000
00001FF000
00000FF000
000007F000
000003F000
000003F000
000003F000
000003F000
000007F000
30000FF000
3E001FE000
7FFFFFE000
7FFFFFC000
FFFFFF8000
7FFFFE0000
1FFFF80000
01FFC00000
ENDCHAR
STARTCHAR 0162
ENCODING 354
SWIDTH 488 0
DWIDTH 38 0
BBX 39 61 7 -13
BITMAP
03FFFFFFFE
03FFFFFFFC
07FFFFFFFC
07FFFFFFFC
07FFFFFFFC
00003F0000
00003F0000
00007F0000
00007F0000
00007E0000
00007E0000
0000FE0000
0000FE0000
0000FC0000
0000FC0000
0001FC0000
0001FC0000
0001F80000
0001F80000
0001F80000
0003F80000
0003F00000
0003F00000
0003F00000
0007F00000
0007F00000
0007E00000
0007E00000
000FE00000
000FE00000
000FC00000
000FC00000
001FC00000
001FC00000
001F800000
001F800000
003F800000
003F800000
003F000000
003F000000
007F000000
007F000000
007E000000
007E000000
00FE000000
00FE000000
00FC000000
00FC000000
00F0000000
01F0000000
03E0000000
03F0000000
07F8000000
01F8000000
00FC000000
00FC000000
41F8000000
7FF8000000
FFF0000000
FFE0000000
7F80000000
ENDCHAR
STARTCHAR 0163
ENCODING 355
SWIDTH 488 0
DWIDTH 38 0
BBX 29 60 10 -13
BITMAP
0007C000
001F8000
001F8000
003F8000
003F8000
003F0000
003F0000
007F0000
007F0000
007E0000
007E0000
7FFFFFF8
7FFFFFF8
FFFFFFF0
FFFFFFF0
FFFFFFF0
01FC0000
01F80000
01F80000
01F80000
03F80000
03F80000
03F00000
03F00000
07F00000
07F00000
07E00000
07E00000
0FE00000
0FE00000
0FC00000
0FC00000
1FC00000
1FC00000
1F800000
1F800000
1F800000
1F800000
1F800000
1F800000
1FC00000
1FE00E00
1FFFFE00
0FFFFE00
0FFFFE00
07FFFE00
01FFFC00
007FC000
00780000
00F00000
01FC0000
01FE0000
00FE0000
007E0000
007E0000
107E0000
3FFE0000
3FFC0000
3FF80000
3FE00000
ENDCHAR
STARTCHAR 0164
ENCODING 356
SWIDTH 488 0
DWIDTH 38 0
BBX 34 64 12 1
BITMAP
0006001000
000F007800
001F80FC00
000FC1F800
0007E7F000
0003FFE000
0003FFC000
0001FF8000
0000FE0000
0000FC0000
0000780000
0000300000
0000000000
0000000000
0000000000
0000000000
7FFFFFFFC0
7FFFFFFF80
FFFFFFFF80
FFFFFFFF80
FFFFFFFF80
0007E00000
0007E00000
000FE00000
000FE00000
000FC00000
000FC00000
001FC00000
001FC00000
001F800000
001F800000
003F800000
003F800000
003F000000
003F000000
003F000000
007F000000
007E000000
007E000000
007E000000
00FE000000
00FE000000
00FC000000
00FC000000
01FC000000
01FC000000
01F8000000
01F8000000
03F8000000
03F8000000
03F0000000
03F0000000
07F0000000
07F0000000
07E0000000
07E0000000
0FE0000000
0FE0000000
0FC0000000
0FC0000000
1FC0000000
1FC0000000
1F80000000
1F80000000
ENDCHAR
STARTCHAR 0165
ENCODING 357
SWIDTH 488 0
DWIDTH 38 0
BBX 31 55 11 -1
BITMAP
0000007E
000000FE
000000FC
000000FC
000000F8
000001F8
000001F8
0007C1F0
001F81F0
001F83F0
003F83E0
003F83E0
003F03C0
003F07C0
007F0000
007F0000
007E0000
007E0000
7FFFFFF8
7FFFFFF8
FFFFFFF0
FFFFFFF0
FFFFFFF0
01FC0000
01F80000
01F80000
01F80000
03F80000
03F80000
03F00000
03F00000
07F00000
07F00000
07E00000
07E00000
0FE00000
0FE00000
0FC00000
0FC00000
1FC00000
1FC00000
1F800000
1F800000
1F800000
1F800000
1F800000
1F800000
1FC00000
1FE00E00
1FFFFE00
0FFFFE00
0FFFFE00
07FFFE00
01FFFC00
007F8000
ENDCHAR
STARTCHAR 0166
ENCODING 358
SWIDTH 488 0
DWIDTH 38 0
BBX 34 48 12 0
BITMAP
7FFFFFFFC0
7FFFFFFF80
FFFFFFFF80
FFFFFFFF80
FFFFFFFF80
0007E00000
0007E00000
000FE00000
000FE00000
000FC00000
000FC00000
001FC00000
001FC00000
001F800000
001F800000
003F800000
003F800000
003F000000
003F000000
007F000000
007F000000
3FFFFE0000
3FFFFE0000
7FFFFC0000
7FFFFC0000
7FFFFC0000
00FC000000
00FC000000
01FC000000
01F8000000
01F8000000
01F8000000
03F8000000
03F8000000
03F0000000
03F0000000
07F0000000
07F0000000
07E0000000
07E0000000
0FE0000000
0FE0000000
0FC0000000
0FC0000000
1FC0000000
1FC0000000
1F80000000
1F80000000
ENDCHAR
STARTCHAR 0167
ENCODING 359
SWIDTH 488 0
DWIDTH 38 0
BBX 33 48 7 -1
BITMAP
00007C0000
0001F80000
0001F80000
0003F80000
0003F80000
0003F00000
0003F00000
0007F00000
0007F00000
0007E00000
0007E00000
07FFFFFF80
07FFFFFF80
0FFFFFFF00
0FFFFFFF00
0FFFFFFF00
001FC00000
001F800000
001F800000
003F800000
003F800000
003F000000
003F000000
007F000000
007F000000
007E000000
7FFFFFF800
7FFFFFF800
7FFFFFF800
FFFFFFF000
FFFFFFF000
00FC000000
01FC000000
01FC000000
01F8000000
01F8000000
01F8000000
01F8000000
01F8000000
01F8000000
01FC000000
01FE00E000
01FFFFE000
00FFFFE000
00FFFFE000
007FFFE000
001FFFC000
0003FC0000
ENDCHAR
STARTCHAR 0168
ENCODING 360
SWIDTH 488 0
DWIDTH 38 0
BBX 39 63 6 -1
BITMAP
0000000060
00003F8070
0000FFE0F8
0001FFFFF0
0003FFFFF0
0003F3FFE0
0007C0FFC0
0001803F00
0000800000
0000000000
0000000000
0000000000
0000000000
0000000000
00FE0000FE
00FC0000FC
00FC0000FC
01FC0000FC
01FC0001FC
01F80001F8
01F80001F8
03F80001F8
03F80003F8
03F00003F8
03F00003F0
03F00003F0
07F00007F0
07E00007F0
07E00007E0
07E00007E0
0FE0000FE0
0FC0000FE0
0FC0000FC0
0FC0000FC0
1FC0001FC0
1FC0001FC0
1F80001F80
1F80001F80
3F80003F80
3F80003F80
3F00003F00
3F00003F00
7F00003F00
7F00007F00
7E00007E00
7E00007E00
7E00007E00
FE0000FE00
FE0000FC00
FE0000FC00
FE0001FC00
FE0001FC00
FE0003F800
7E0003F800
7F0007F000
7F000FF000
3FC03FE000
3FFFFFC000
1FFFFF8000
0FFFFF0000
07FFFE0000
03FFF80000
007FC00000
ENDCHAR
STARTCHAR 0169
ENCODING 361
SWIDTH 488 0
DWIDTH 38 0
BBX 33 52 7 -1
BITMAP
0000600200
0007FC0780
000FFF0F80
001FFFFF00
001FFFFF00
003E1FFE00
003C07FC00
001801E000
0000000000
0000000000
0000000000
0000000000
0000000000
0000000000
0000000000
07E0001F80
07E0003F80
0FE0003F00
0FE0003F00
0FC0003F00
0FC0007F00
1FC0007F00
1FC0007E00
1F80007E00
1F8000FE00
3F8000FE00
3F8000FC00
3F0000FC00
3F0001FC00
7F0001FC00
7F0001F800
7E0001F800
7E0003F800
FE0003F800
FE0003F000
FC0003F000
FC0007F000
FC0007F000
FC0007E000
FC0007E000
FC0007E000
FC0007E000
FC000FE000
FC001FE000
FE003FE000
FF00FFE000
7FFFFFE000
7FFFFFE000
3FFFF7E000
1FFFC3F000
0FFF83F000
01F8000000
ENDCHAR
STARTCHAR 016A
ENCODING 362
SWIDTH 488 0
DWIDTH 38 0
BBX 39 61 6 -1
BITMAP
0000FFFFF0
0000FFFFE0
0000FFFFE0
0001FFFFE0
0001FFFFE0
0000000000
0000000000
0000000000
0000000000
0000000000
0000000000
0000000000
00FE0000FE
00FC0000FC
00FC0000FC
01FC0000FC
01FC0001FC
01F80001F8
01F80001F8
03F80001F8
03F80003F8
03F00003F8
03F00003F0
03F00003F0
07F00007F0
07E00007F0
07E00007E0
07E00007E0
0FE0000FE0
0FC0000FE0
0FC0000FC0
0FC0000FC0
1FC0001FC0
1FC0001FC0
1F80001F80
1F80001F80
3F80003F80
3F80003F80
3F00003F00
3F00003F00
7F00003F00
7F00007F00
7E00007E00
7E00007E00
7E00007E00
FE0000FE00
FE0000FC00
FE0000FC00
FE0001FC00
FE0001FC00
FE0003F800
7E0003F800
7F0007F000
7F000FF000
3FC03FE000
3FFFFFC000
1FFFFF8000
0FFFFF0000
07FFFE0000
03FFF80000
007FC00000
ENDCHAR
STARTCHAR 016B
ENCODING 363
SWIDTH 488 0
DWIDTH 38 0
BBX 33 50 7 -1
BITMAP
000FFFFF00
000FFFFE00
000FFFFE00
000FFFFE00
001FFFFE00
0000000000
0000000000
0000000000
0000000000
0000000000
0000000000
0000000000
0000000000
07E0001F80
07E0003F80
0FE0003F00
0FE0003F00
0FC0003F00
0FC0007F00
1FC0007F00
1FC0007E00
1F80007E00
1F8000FE00
3F8000FE00
3F8000FC00
3F0000FC00
3F0001FC00
7F0001FC00
7F0001F800
7E0001F800
7E0003F800
FE0003F800
FE0003F000
FC0003F000
FC0007F000
FC0007F000
FC0007E000
FC0007E000
FC0007E000
FC0007E000
FC000FE000
FC001FE000
FE003FE000
FF00FFE000
7FFFFFE000
7FFFFFE000
3FFFF7E000
1FFFC3F000
0FFF83F000
01F8000000
ENDCHAR
STARTCHAR 016C
ENCODING 364
SWIDTH 488 0
DWIDTH 38 0
BBX 39 64 6 -1
BITMAP
00007800F0
00007801F0
00007C01F0
00007C03E0
00003E07E0
00003FFFC0
00003FFF80
00001FFF00
00000FFE00
000003F000
0000000000
0000000000
0000000000
0000000000
0000000000
00FE0000FE
00FC0000FC
00FC0000FC
01FC0000FC
01FC0001FC
01F80001F8
01F80001F8
03F80001F8
03F80003F8
03F00003F8
03F00003F0
03F00003F0
07F00007F0
07E00007F0
07E00007E0
07E00007E0
0FE0000FE0
0FC0000FE0
0FC0000FC0
0FC0000FC0
1FC0001FC0
1FC0001FC0
1F80001F80
1F80001F80
3F80003F80
3F80003F80
3F00003F00
3F00003F00
7F00003F00
7F00007F00
7E00007E00
7E00007E00
7E00007E00
FE0000FE00
FE0000FC00
FE0000FC00
FE0001FC00
FE0001FC00
FE0003F800
7E0003F800
7F0007F000
7F000FF000
3FC03FE000
3FFFFFC000
1FFFFF8000
0FFFFF0000
07FFFE0000
03FFF80000
007FC00000
ENDCHAR
STARTCHAR 016D
ENCODING 365
SWIDTH 488 0
DWIDTH 38 0
BBX 33 53 7 -1
BITMAP
0003C00F00
0007C01F00
0007C01F00
0003C03E00
0003E07E00
0003FFFC00
0001FFF800
0001FFF000
00007FE000
00000E0000
0000000000
0000000000
0000000000
0000000000
0000000000
0000000000
07E0001F80
07E0003F80
0FE0003F00
0FE0003F00
0FC0003F00
0FC0007F00
1FC0007F00
1FC0007E00
1F80007E00
1F8000FE00
3F8000FE00
3F8000FC00
3F0000FC00
3F0001FC00
7F0001FC00
7F0001F800
7E0001F800
7E0003F800
FE0003F800
FE0003F000
FC0003F000
FC0007F000
FC0007F000
FC0007E000
FC0007E000
FC0007E000
FC0007E000
FC000FE000
FC001FE000
FE003FE000
FF00FFE000
7FFFFFE000
7FFFFFE000
3FFFF7E000
1FFFC3F000
0FFF83F000
01F8000000
ENDCHAR
STARTCHAR 016E
ENCODING 366
SWIDTH 488 0
DWIDTH 38 0
BBX 39 66 6 -1
BITMAP
000001F000
000007FC00
00000FFE00
00001F3F00
00001E0F00
00003C0700
00003C0700
00003C0780
00003C0700
00001C0F00
00001E1F00
00001FFE00
00000FFC00
000003F800
0000000000
0000000000
0000000000
00FE0000FE
00FC0000FC
00FC0000FC
01FC0000FC
01FC0001FC
01F80001F8
01F80001F8
03F80001F8
03F80003F8
03F00003F8
03F00003F0
03F00003F0
07F00007F0
07E00007F0
07E00007E0
07E00007E0
0FE0000FE0
0FC0000FE0
0FC0000FC0
0FC0000FC0
1FC0001FC0
1FC0001FC0
1F80001F80
1F80001F80
3F80003F80
3F80003F80
3F00003F00
3F00003F00
7F00003F00
7F00007F00
7E00007E00
7E00007E00
7E00007E00
FE0000FE00
FE0000FC00
FE0000FC00
FE0001FC00
FE0001FC00
FE0003F800
7E0003F800
7F0007F000
7F000FF000
3FC03FE000
3FFFFFC000
1FFFFF8000
0FFFFF0000
07FFFE0000
03FFF80000
007FC00000
ENDCHAR
STARTCHAR 016F
ENCODING 367
SWIDTH 488 0
DWIDTH 38 0
BBX 33 55 7 -1
BITMAP
00003F8000
00007FC000
0000FFE000
0001F1F000
0001E0F000
0003C07800
0003C07800
0003C07800
0001C07800
0001E0F000
0001F1F000
0000FFE000
00007FC000
00001F8000
0000000000
0000000000
0000000000
0000000000
07E0001F80
07E0003F80
0FE0003F00
0FE0003F00
0FC0003F00
0FC0007F00
1FC0007F00
1FC0007E00
1F80007E00
1F8000FE00
3F8000FE00
3F8000FC00
3F0000FC00
3F0001FC00
7F0001FC00
7F0001F800
7E0001F800
7E0003F800
FE0003F800
FE0003F000
FC0003F000
FC0007F000
FC0007F000
FC0007E000
FC0007E000
FC0007E000
FC0007E000
FC000FE000
FC001FE000
FE003FE000
FF00FFE000
7FFFFFE000
7FFFFFE000
3FFFF7E000
1FFFC3F000
0FFF83F000
01F8000000
ENDCHAR
STARTCHAR 0170
ENCODING 368
SWIDTH 488 0
DWIDTH 38 0
BBX 39 65 6 0
BITMAP
0000018010
0000038038
000007C07C
00000FE0FE
00001FE1FE
00003FC3F8
00007F07F0
0000FE0FE0
0001FC1FC0
0003F83F80
0001F03E00
0000E01C00
0000000800
0000000000
0000000000
0000000000
00FE0000FE
00FC0000FC
00FC0000FC
01FC0000FC
01FC0001FC
01F80001F8
01F80001F8
03F80001F8
03F80003F8
03F00003F8
03F00003F0
03F00003F0
07F00007F0
07E00007F0
07E00007E0
07E00007E0
0FE0000FE0
0FC0000FE0
0FC0000FC0
0FC0000FC0
1FC0001FC0
1FC0001FC0
1F80001F80
1F80001F80
3F80003F80
3F80003F80
3F00003F00
3F00003F00
7F00003F00
7F00007F00
7E00007E00
7E00007E00
7E00007E00
FE0000FE00
FE0000FC00
FE0000FC00
FE0001FC00
FE0001FC00
FE0003F800
7E0003F800
7F0007F000
7F000FF000
3FC03FE000
3FFFFFC000
1FFFFF8000
0FFFFF0000
07FFFE0000
03FFF80000
007FC00000
ENDCHAR
STARTCHAR 0171
ENCODING 369
SWIDTH 488 0
DWIDTH 38 0
BBX 34 55 7 -1
BITMAP
0000100000
0000300300
0000780780
0000FC0F80
0001FE1FC0
0003FC3FC0
0007F87F80
0007F0FE00
000FE1FC00
001F83F800
003F03F000
003E03E000
001C018000
0008000000
0000000000
0000000000
0000000000
0000000000
07E0001F80
07E0003F80
0FE0003F00
0FE0003F00
0FC0003F00
0FC0007F00
1FC0007F00
1FC0007E00
1F80007E00
1F8000FE00
3F8000FE00
3F8000FC00
3F0000FC00
3F0001FC00
7F0001FC00
7F0001F800
7E0001F800
7E0003F800
FE0003F800
FE0003F000
FC0003F000
FC0007F000
FC0007F000
FC0007E000
FC0007E000
FC0007E000
FC0007E000
FC000FE000
FC001FE000
FE003FE000
FF00FFE000
7FFFFFE000
7FFFFFE000
3FFFF7E000
1FFFC3F000
0FFF83F000
01F8000000
ENDCHAR
STARTCHAR 0172
ENCODING 370
SWIDTH 488 0
DWIDTH 38 0
BBX 39 61 6 -13
BITMAP
00FE0000FE
00FC0000FC
00FC0000FC
01FC0000FC
01FC0001FC
01F80001F8
01F80001F8
03F80001F8
03F80003F8
03F00003F8
03F00003F0
03F00003F0
07F00007F0
07E00007F0
07E00007E0
07E00007E0
0FE0000FE0
0FC0000FE0
0FC0000FC0
0FC0000FC0
1FC0001FC0
1FC0001FC0
1F80001F80
1F80001F80
3F80003F80
3F80003F80
3F00003F00
3F00003F00
7F00003F00
7F00007F00
7E00007E00
7E00007E00
7E00007E00
FE0000FE00
FE0000FC00
FE0000FC00
FE0001FC00
FE0001FC00
FE0003F800
7E0003F800
7F0007F000
7F000FF000
3FC03FE000
3FFFFFC000
1FFFFF8000
0FFFFF0000
07FFFE0000
03FFF80000
007FF00000
000FE00000
001F800000
003F000000
007E000000
007C000000
00FC000000
00FC000000
00FF600000
00FFE00000
00FFE00000
007FE00000
001FC00000
ENDCHAR
STARTCHAR 0173
ENCODING 371
SWIDTH 488 0
DWIDTH 38 0
BBX 33 49 7 -13
BITMAP
07E0001F80
07E0003F80
0FE0003F00
0FE0003F00
0FC0003F00
0FC0007F00
1FC0007F00
1FC0007E00
1F80007E00
1F8000FE00
3F8000FE00
3F8000FC00
3F0000FC00
3F0001FC00
7F0001FC00
7F0001F800
7E0001F800
7E0003F800
FE0003F800
FE0003F000
FC0003F000
FC0007F000
FC0007F000
FC0007E000
FC0007E000
FC0007E000
FC0007E000
FC000FE000
FC001FE000
FE003FE000
FF00FFE000
7FFFFFE000
7FFFFFE000
3FFFF7E000
1FFFC3F000
0FFF83F000
01F80FE000
00001F8000
00003F0000
00007E0000
0000FC0000
0001F80000
0001F80000
0003F80000
0003FEC000
0003FFC000
0001FFC000
0000FF8000
00007F8000
ENDCHAR
STARTCHAR 0174
ENCODING 372
SWIDTH 488 0
DWIDTH 38 0
BBX 42 64 5 0
BITMAP
000000180000
000000380000
0000007C0000
000000FE0000
000003FE0000
000007FF0000
00000FFF8000
00001FDF8000
00003F0FC000
00007E07E000
00007C03E000
00003001C000
000000008000
000000000000
000000000000
000000000000
00FC00001FC0
01FC00001F80
01F800001F80
01F800001F80
01F800003F00
01F800003F00
03F000003F00
03F000003F00
03F000007E00
03F000007E00
03F000007E00
07E00000FC00
07E00000FC00
07E00000FC00
07E00000F800
07C00001F800
0FC00001F800
0FC00001F800
0FC07E01F000
0FC0FE03F000
0F80FE03F000
0F81FE03E000
1F81FE03E000
1F83FE07E000
1F03FE07C000
1F07DE07C000
1F079E0FC000
3F0F9E0F8000
3F1F1F0F8000
3E1F1F0F8000
3E3E1F1F8000
3E3E1F1F0000
3E7C1F1F0000
7C7C0F3F0000
7CF80F3E0000
7CF00F3E0000
7DF00F3E0000
7FE00F7C0000
7BE00F7C0000
7FC00FFC0000
FFC00FF80000
FF800FF80000
FF800FF00000
FF000FF00000
FF000FF00000
FE000FE00000
FC000FE00000
FC0007E00000
ENDCHAR
STARTCHAR 0175
ENCODING 373
SWIDTH 488 0
DWIDTH 38 0
BBX 39 53 6 0
BITMAP
000000C000
000001E000
000003F000
000007F000
00000FF800
00001FFC00
00007FFE00
0000FE7E00
0001FC3F00
0001F01F80
0001E00F00
0000C00600
0000000000
0000000000
0000000000
0000000000
0000000000
1F8000007E
1F800000FC
1F800000FC
1F000000FC
3F000001F8
3F000001F8
3F000001F8
3F000001F0
3F000003F0
3F00F803F0
3F00F803E0
3E01F807E0
3E01FC07C0
7E03FC0FC0
7E03FC0FC0
7E07FC0F80
7E07FC1F80
7E0FFC1F80
7E1F7C1F00
7E1F7C3F00
7C3E7C3E00
7C3E3C7E00
7C7C3C7E00
7CF83E7C00
7CF83EFC00
7DF03EF800
7DF03FF800
FFE03FF000
FFC03FF000
FFC03FF000
FF801FE000
FF801FE000
FF001FC000
FE001FC000
FE001F8000
FC001F8000
ENDCHAR
STARTCHAR 0176
ENCODING 374
SWIDTH 488 0
DWIDTH 38 0
BBX 36 64 12 0
BITMAP
0000040000
00000E0000
00003F0000
00007F0000
0000FF8000
0001FFC000
0003FFC000
0007F7E000
001FC3F000
003F81F800
001E00F000
000C006000
0000000000
0000000000
0000000000
0000000000
FC000007F0
FC00000FE0
FC00000FE0
FC00001FC0
FC00003F80
FE00003F80
7E00007F00
7E0000FE00
7E0000FE00
7E0001FC00
7F0003F800
3F0003F800
3F0007F000
3F000FE000
3F800FC000
1F801FC000
1F803F8000
1F807F0000
0FC07E0000
0FC0FC0000
0FC1FC0000
07E1F80000
07E3F00000
07E7E00000
03EFC00000
03FFC00000
03FF800000
01FF000000
01FE000000
01FC000000
01FC000000
01FC000000
01F8000000
01F8000000
03F8000000
03F8000000
03F0000000
03F0000000
03F0000000
07F0000000
07E0000000
07E0000000
07E0000000
0FE0000000
0FC0000000
0FC0000000
0FC0000000
1FC0000000
ENDCHAR
STARTCHAR 0177
ENCODING 375
SWIDTH 488 0
DWIDTH 38 0
BBX 43 66 -1 -13
BITMAP
000000060000
0000000F0000
0000001F8000
0000003F8000
0000007FC000
000000FFE000
000003FFE000
000007F3F000
00000FE1F800
00001F80FC00
00000F007800
000006003000
000000000000
000000000000
000000000000
000000000000
000000000000
000FC0000FE0
000FC0000FC0
000FC0001FC0
000FC0001FC0
000FC0001F80
000FE0003F80
000FE0003F80
000FE0003F00
000FE0007F00
000FE0007E00
0007E000FE00
0007E000FE00
0007E000FC00
0007F001FC00
0007F001F800
0007F003F800
0003F003F000
0003F003F000
0003F007F000
0003F807E000
0003F80FE000
0001F80FC000
0001F81FC000
0001F81F8000
0001FC3F8000
0001FC3F0000
0000FC7E0000
0000FC7E0000
0000FEFC0000
00007FFC0000
00007FF80000
00007FF80000
00007FF00000
00003FE00000
00003FE00000
00003FC00000
00003F800000
00003F000000
00007F000000
0000FE000000
0001FC000000
0003F8000000
000FF0000000
7DFFE0000000
7FFFC0000000
FFFF80000000
FFFE00000000
FFF800000000
3FC000000000
ENDCHAR
STARTCHAR 0178
ENCODING 376
SWIDTH 488 0
DWIDTH 38 0
BBX 36 62 12 0
BITMAP
000E007000
003F01F800
007F81FC00
007F83FC00
007F83FC00
007F83FC00
007F03F800
003E01F000
0000000000
0000000000
0000000000
0000000000
0000000000
0000000000
FC000007F0
FC00000FE0
FC00000FE0
FC00001FC0
FC00003F80
FE00003F80
7E00007F00
7E0000FE00
7E0000FE00
7E0001FC00
7F0003F800
3F0003F800
3F0007F000
3F000FE000
3F800FC000
1F801FC000
1F803F8000
1F807F0000
0FC07E0000
0FC0FC0000
0FC1FC0000
07E1F80000
07E3F00000
07E7E00000
03EFC00000
03FFC00000
03FF800000
01FF000000
01FE000000
01FC000000
01FC000000
01FC000000
01F8000000
01F8000000
03F8000000
03F8000000
03F0000000
03F0000000
03F0000000
07F0000000
07E0000000
07E0000000
07E0000000
0FE0000000
0FC0000000
0FC0000000
0FC0000000
1FC0000000
ENDCHAR
ENDFONT
